<?xml version="1.0" encoding="utf-8"?>
<!-- Generator: Adobe Illustrator 17.0.0, SVG Export Plug-In . SVG Version: 6.00 Build 0)  -->
<!DOCTYPE svg PUBLIC "-//W3C//DTD SVG 1.1//EN" "http://www.w3.org/Graphics/SVG/1.1/DTD/svg11.dtd">
<svg version="1.1" id="Layer_1" xmlns="http://www.w3.org/2000/svg" xmlns:xlink="http://www.w3.org/1999/xlink" x="0px" y="0px"
	 width="500px" height="500px" viewBox="0 0 500 500" enable-background="new 0 0 500 500" xml:space="preserve">
<g>
	<path fill="#FFFFFF" d="M35.676,318.535c0-7.776,6.023-19.412,20.465-19.412c11.577,0,20.406,6.899,20.406,18.652
		c0,11.168-8.244,20.289-20.699,20.289C41.523,338.064,35.676,327.423,35.676,318.535z M71.051,319.236
		c0-11.752-7.25-18.301-15.261-18.301c-8.127,0-14.676,5.028-14.676,16.079c0,11.461,6.374,19.062,16.197,19.062
		C61.228,336.076,71.051,334.089,71.051,319.236z"/>
	<path fill="#FFFFFF" d="M88.307,314.208c0-7.659,0-9.121-0.117-10.7c-0.117-1.578-0.526-2.397-2.28-2.748
		c-0.468-0.059-1.287-0.117-1.403-0.117c-0.526,0-0.76-0.175-0.76-0.409c0-0.292,0.351-0.409,0.877-0.409
		c2.456,0,5.964,0.176,6.081,0.176c1.403,0,3.333-0.176,5.613-0.176c8.771,0,10.525,4.854,10.525,7.367
		c0,4.327-2.456,7.075-4.912,9.005c3.917,1.169,8.946,4.736,8.946,10.467c0,5.438-4.385,10.875-13.273,10.875
		c-0.936,0-2.105-0.116-3.625-0.116c-1.637-0.117-3.041-0.176-3.274-0.176c-1.813,0-3.333,0.176-5.262,0.176
		c-0.526,0-0.819-0.117-0.819-0.352c0-0.175,0.059-0.468,0.819-0.468c0.409,0,0.584,0,1.052-0.116
		c0.994-0.176,1.345-1.403,1.52-2.807c0.292-2.164,0.292-6.14,0.292-10.701V314.208z M92.868,315.261
		c0,0.409,0.117,0.468,0.292,0.585c0.351,0.059,0.994,0.175,2.924,0.175c2.982,0,3.859-0.175,4.97-1.403
		c0.936-1.11,1.52-2.748,1.52-4.678c0-4.034-1.813-8.536-6.783-8.536c-0.468,0-1.696,0.116-2.222,0.292
		c-0.526,0.117-0.702,0.234-0.702,0.526V315.261z M92.868,320.289c0,3.684,0,10.116,0.059,10.584
		c0.175,2.572,0.117,3.332,1.871,4.093c1.403,0.701,3.742,0.76,4.327,0.76c2.514,0,6.9-1.228,6.9-6.607
		c0-2.981-1.053-7.484-5.029-10.174c-1.754-1.053-2.807-1.169-3.976-1.286c-0.994-0.117-3.041-0.117-3.859,0
		c-0.175,0-0.292,0.059-0.292,0.351V320.289z"/>
	<path fill="#FFFFFF" d="M121.991,314.208c0-7.718,0-9.121-0.117-10.7c-0.117-1.578-0.526-2.456-2.339-2.807
		c-0.351-0.059-0.936-0.117-1.403-0.117c-0.409,0-0.643-0.116-0.643-0.351c0-0.233,0.175-0.409,0.702-0.409
		c2.515,0,6.081,0.176,6.198,0.176c0.526,0,4.502-0.176,6.14-0.176c3.274,0,6.841,0.292,9.589,2.222
		c1.111,0.819,3.509,3.157,3.509,7.134c0,3.216-1.579,7.309-6.198,11.051c4.269,5.263,7.777,9.59,10.759,12.688
		c2.807,2.865,4.561,3.333,6.198,3.567c0.409,0.059,1.637,0.116,1.813,0.116c0.468,0,0.643,0.176,0.643,0.409
		c0,0.293-0.234,0.41-1.052,0.41h-4.093c-2.748,0-4.035-0.176-5.321-0.702c-2.456-1.053-4.21-3.684-7.25-7.602
		c-2.281-2.807-4.62-5.964-5.613-7.191c-0.234-0.234-0.351-0.351-0.702-0.351l-6.022-0.059c-0.234,0-0.292,0.059-0.292,0.292v0.818
		c0,4.678,0,8.946,0.292,11.052c0.175,1.403,0.351,2.572,2.28,2.807c0.584,0.059,1.228,0.116,1.695,0.116
		c0.526,0,0.76,0.176,0.76,0.352c0,0.292-0.234,0.468-0.818,0.468c-3.041,0-6.315-0.176-6.549-0.176
		c-0.936,0-3.508,0.176-5.087,0.176c-0.584,0-0.818-0.117-0.818-0.468c0-0.176,0.351-0.352,0.702-0.352c0.409,0,0.819,0,1.287-0.116
		c0.994-0.176,1.345-0.819,1.52-2.223c0.292-2.104,0.234-6.899,0.234-11.285V314.208z M126.493,318.359
		c0,0.293,0.058,0.585,0.292,0.702c0.76,0.409,3.099,0.76,5.204,0.76c1.228,0,2.69-0.059,3.917-0.877
		c1.754-1.11,2.924-3.684,2.924-7.426c0-6.373-3.392-9.882-8.595-9.882c-1.462,0-2.69,0.117-3.392,0.293
		c-0.175,0.058-0.351,0.233-0.351,0.525V318.359z"/>
	<path fill="#FFFFFF" d="M165.147,323.154c-0.292,0-0.468,0.176-0.584,0.468l-2.573,7.31c-0.585,1.637-0.994,3.216-0.994,4.151
		c0,1.052,0.643,1.52,1.93,1.52c0.175,0,0.234,0,0.409,0c0.526,0,0.702,0.176,0.702,0.409c0,0.293-0.468,0.41-0.877,0.41
		c-1.287,0-3.976-0.176-4.619-0.176c-0.585,0-3.158,0.176-5.613,0.176c-0.644,0-0.936-0.117-0.936-0.41
		c0-0.233,0.233-0.409,0.701-0.409c0.292,0,0.819,0,1.17-0.058c2.514-0.234,3.508-2.164,4.502-4.62l11.694-30.814
		c0.644-1.695,0.819-1.987,1.228-1.987c0.292,0,0.526,0.233,1.169,1.871c0.818,1.929,8.771,22.336,11.87,29.645
		c1.93,4.619,3.625,5.38,4.444,5.672c0.76,0.292,1.579,0.292,1.988,0.292s0.702,0.117,0.702,0.409c0,0.293-0.234,0.41-0.877,0.41
		c-0.584,0-4.97,0-8.888-0.117c-1.111-0.059-1.461-0.117-1.461-0.409c0-0.176,0.175-0.351,0.409-0.409
		c0.234-0.117,0.584-0.41,0.234-1.287l-4.619-11.752c-0.117-0.176-0.234-0.293-0.468-0.293H165.147z M175.088,321.107
		c0.234,0,0.234-0.175,0.175-0.351l-4.619-12.922c-0.292-0.818-0.351-0.818-0.644,0l-4.385,12.922c-0.117,0.234,0,0.351,0.117,0.351
		H175.088z"/>
	<path fill="#FFFFFF" d="M196.2,336.778c-0.76-0.351-0.76-0.585-0.76-1.988c0-2.689,0.175-4.678,0.234-5.496
		c0.059-0.526,0.175-0.818,0.468-0.818s0.409,0.175,0.409,0.585c0,0.351,0,1.052,0.175,1.754c0.76,3.801,4.21,5.262,7.602,5.262
		c4.853,0,7.192-3.332,7.192-6.256c0-3.333-1.52-5.38-5.789-8.829l-2.339-1.813c-5.613-4.503-6.783-7.602-6.783-11.052
		c0-5.379,4.269-9.004,10.817-9.004c2.046,0,3.45,0.175,4.736,0.467c1.111,0.234,1.579,0.293,1.988,0.293s0.526,0.117,0.526,0.351
		c0,0.234-0.234,2.28-0.234,5.672c0,0.877-0.117,1.228-0.41,1.228c-0.292,0-0.351-0.233-0.409-0.643
		c-0.059-0.526-0.175-1.754-0.702-2.748c-0.292-0.526-1.637-2.748-6.549-2.748c-3.508,0-6.139,2.104-6.139,5.613
		c0,2.748,1.403,4.443,6.256,8.127l1.345,1.053c6.081,4.678,7.66,7.776,7.66,11.928c0,2.105-0.877,5.848-4.444,8.304
		c-2.28,1.462-5.087,2.046-7.894,2.046C200.703,338.064,198.422,337.772,196.2,336.778z"/>
	<path fill="#FFFFFF" d="M274.383,315.494c0.176,0,0.351,0,0.351-0.292v-1.053c0-7.718,0-9.063-0.117-10.642
		c-0.116-1.578-0.351-2.397-2.28-2.748c-0.409-0.059-0.994-0.117-1.462-0.117c-0.409,0-0.701-0.175-0.701-0.409
		c0-0.351,0.292-0.409,0.818-0.409c2.456,0,5.905,0.176,6.14,0.176s3.508-0.176,5.263-0.176c0.585,0,0.936,0.059,0.936,0.409
		c0,0.176-0.176,0.409-0.644,0.409c-0.351,0-0.818,0.059-1.169,0.117c-1.579,0.234-1.813,1.17-1.93,2.807
		c-0.059,1.579-0.059,2.924-0.059,10.642v8.771c0,4.795,0,8.596,0.233,10.701c0.176,1.403,0.468,2.572,1.988,2.748
		c0.76,0.117,1.521,0.175,2.047,0.175c0.468,0,0.76,0.176,0.76,0.409c0,0.293-0.292,0.41-0.877,0.41
		c-2.924,0-6.314-0.176-6.607-0.176c-0.233,0-3.625,0.176-5.204,0.176c-0.585,0-0.877-0.117-0.877-0.468
		c0-0.176,0.176-0.352,0.644-0.352s0.877,0,1.345-0.116c0.994-0.176,1.286-1.462,1.462-2.807c0.292-2.105,0.292-5.789,0.292-10.525
		v-5.204c0-0.233-0.175-0.351-0.351-0.351h-21.226c-0.175,0-0.292,0.059-0.292,0.351v5.204c0,4.736,0,8.537,0.292,10.642
		c0.176,1.287,0.468,2.456,1.988,2.632c0.76,0.117,1.638,0.175,2.104,0.175c0.41,0,0.702,0.176,0.702,0.409
		c0,0.234-0.233,0.41-0.76,0.41c-2.982,0-6.433-0.176-6.725-0.176c-0.176,0-3.742,0.176-5.263,0.176
		c-0.584,0-0.936-0.117-0.936-0.41c0-0.175,0.117-0.409,0.644-0.409c0.468,0,0.936-0.058,1.403-0.175
		c1.053-0.234,1.286-1.345,1.462-2.632c0.351-2.104,0.292-6.022,0.292-10.817v-8.653c0-7.718,0-9.238-0.117-10.817
		c-0.116-1.521-0.525-2.631-2.222-2.807c-0.526-0.059-1.111-0.117-1.579-0.117c-0.409,0-0.643-0.175-0.643-0.351
		c0-0.351,0.292-0.409,0.877-0.409c2.515,0,5.321,0.176,6.081,0.176c0.233,0,3.625-0.176,5.263-0.176
		c0.584,0,0.877,0.117,0.877,0.409c0,0.234-0.234,0.351-0.585,0.351s-0.526,0-1.169,0.117c-1.462,0.234-1.813,1.229-1.93,2.865
		c-0.059,1.579-0.059,2.865-0.059,10.583v1.053c0,0.292,0.176,0.292,0.351,0.292H274.383z"/>
	<path fill="#FFFFFF" d="M298.89,321.166c0,7.134,1.345,10.175,3.566,12.162c2.515,2.223,5.321,2.69,7.718,2.69
		c3.041,0,5.789-0.819,8.011-3.392c2.339-2.689,2.865-7.134,2.865-12.221v-6.198c0-7.659,0-9.005-0.116-10.583
		c-0.117-1.695-0.293-2.573-2.164-2.865c-0.409-0.059-1.111-0.117-1.637-0.117c-0.352,0-0.585-0.175-0.585-0.351
		c0-0.351,0.292-0.468,0.818-0.468c2.515,0,5.438,0.176,5.672,0.176c0.292,0,2.807-0.176,4.444-0.176
		c0.584,0,0.818,0.117,0.818,0.409c0,0.234-0.234,0.409-0.585,0.409s-0.468,0-1.053,0.059c-1.637,0.176-1.871,1.229-1.987,2.924
		c-0.059,1.578-0.059,2.924-0.059,10.583v5.204c0,5.263-0.585,11.577-4.736,15.145c-3.801,3.216-7.543,3.508-10.7,3.508
		c-1.638,0-7.134,0-10.935-3.508c-2.515-2.339-4.327-5.848-4.327-13.098v-7.251c0-7.718,0-9.063-0.175-10.642
		c-0.059-1.579-0.352-2.572-2.164-2.807c-0.351-0.059-1.053-0.117-1.52-0.117c-0.41,0-0.644-0.175-0.644-0.351
		c0-0.351,0.233-0.468,0.877-0.468c2.515,0,5.672,0.176,6.081,0.176c0.468,0,3.918-0.176,5.496-0.176
		c0.644,0,0.818,0.117,0.818,0.409s-0.409,0.409-0.701,0.409c-0.351,0-0.818,0.059-1.286,0.117c-1.403,0.176-1.638,1.17-1.755,2.807
		c-0.058,1.579-0.058,2.924-0.058,10.642V321.166z"/>
	<path fill="#FFFFFF" d="M342.104,323.154c-0.292,0-0.468,0.176-0.585,0.468l-2.572,7.31c-0.585,1.637-0.994,3.216-0.994,4.151
		c0,1.052,0.644,1.52,1.93,1.52c0.176,0,0.233,0,0.409,0c0.526,0,0.702,0.176,0.702,0.409c0,0.293-0.469,0.41-0.878,0.41
		c-1.286,0-3.976-0.176-4.619-0.176c-0.585,0-3.157,0.176-5.613,0.176c-0.643,0-0.936-0.117-0.936-0.41
		c0-0.233,0.234-0.409,0.702-0.409c0.292,0,0.818,0,1.169-0.058c2.515-0.234,3.509-2.164,4.503-4.62l11.694-30.814
		c0.643-1.695,0.818-1.987,1.228-1.987c0.292,0,0.526,0.233,1.17,1.871c0.818,1.929,8.771,22.336,11.869,29.645
		c1.93,4.619,3.625,5.38,4.444,5.672c0.76,0.292,1.578,0.292,1.987,0.292c0.41,0,0.702,0.117,0.702,0.409
		c0,0.293-0.234,0.41-0.877,0.41c-0.585,0-4.971,0-8.888-0.117c-1.111-0.059-1.462-0.117-1.462-0.409
		c0-0.176,0.175-0.351,0.409-0.409c0.234-0.117,0.585-0.41,0.234-1.287l-4.62-11.752c-0.116-0.176-0.233-0.293-0.468-0.293H342.104z
		 M352.045,321.107c0.233,0,0.233-0.175,0.176-0.351l-4.62-12.922c-0.292-0.818-0.351-0.818-0.643,0l-4.386,12.922
		c-0.117,0.234,0,0.351,0.117,0.351H352.045z"/>
	<path fill="#FFFFFF" d="M380.35,323.096c0,6.725,0.234,10.116,1.229,11.052c0.936,0.818,2.104,1.169,6.14,1.169
		c2.572,0,4.911,0,6.197-1.637c0.585-0.877,0.994-2.047,1.111-2.924c0.059-0.468,0.176-0.702,0.468-0.702
		c0.234,0,0.351,0.176,0.351,0.761c0,0.584-0.351,3.917-0.701,5.262c-0.351,1.17-0.293,1.462-3.1,1.462
		c-3.976,0-8.361-0.292-14.208-0.292c-1.93,0-3.1,0.176-5.146,0.176c-0.585,0-0.936-0.117-0.936-0.468
		c0-0.176,0.175-0.352,0.643-0.352s0.936,0,1.403-0.116c0.994-0.176,1.346-1.346,1.521-2.748c0.351-2.223,0.234-6.257,0.234-10.76
		v-8.771c0-7.718,0-9.005-0.117-10.583c-0.117-1.638-0.351-2.689-2.339-2.924c-0.351-0.059-0.994-0.059-1.462-0.059
		c-0.409,0-0.644-0.175-0.644-0.409c0-0.292,0.293-0.409,0.877-0.409c2.456,0,5.965,0.176,6.082,0.176
		c0.818,0,4.385-0.176,6.022-0.176c0.584,0,0.76,0.176,0.76,0.409c0,0.234-0.292,0.409-0.644,0.409
		c-0.409,0-0.994,0.059-1.578,0.117c-1.638,0.234-1.988,1.17-2.105,2.865c-0.117,1.578-0.059,2.865-0.059,10.583V323.096z"/>
	<path fill="#FFFFFF" d="M412.688,323.154c-0.292,0-0.468,0.176-0.585,0.468l-2.572,7.31c-0.585,1.637-0.994,3.216-0.994,4.151
		c0,1.052,0.644,1.52,1.93,1.52c0.175,0,0.233,0,0.409,0c0.526,0,0.701,0.176,0.701,0.409c0,0.293-0.467,0.41-0.877,0.41
		c-1.286,0-3.976-0.176-4.619-0.176c-0.584,0-3.157,0.176-5.613,0.176c-0.643,0-0.936-0.117-0.936-0.41
		c0-0.233,0.234-0.409,0.702-0.409c0.292,0,0.818,0,1.169-0.058c2.515-0.234,3.509-2.164,4.503-4.62L417.6,301.11
		c0.643-1.695,0.818-1.987,1.228-1.987c0.292,0,0.526,0.233,1.169,1.871c0.819,1.929,8.771,22.336,11.87,29.645
		c1.93,4.619,3.625,5.38,4.444,5.672c0.76,0.292,1.578,0.292,1.987,0.292S439,336.72,439,337.012c0,0.293-0.234,0.41-0.877,0.41
		c-0.585,0-4.971,0-8.888-0.117c-1.111-0.059-1.462-0.117-1.462-0.409c0-0.176,0.176-0.351,0.409-0.409
		c0.233-0.117,0.585-0.41,0.233-1.287l-4.619-11.752c-0.116-0.176-0.233-0.293-0.468-0.293H412.688z M422.628,321.107
		c0.233,0,0.233-0.175,0.175-0.351l-4.619-12.922c-0.292-0.818-0.351-0.818-0.643,0l-4.386,12.922c-0.117,0.234,0,0.351,0.117,0.351
		H422.628z"/>
	<path fill="#FFFFFF" d="M443.74,336.778c-0.76-0.351-0.76-0.585-0.76-1.988c0-2.689,0.175-4.678,0.233-5.496
		c0.059-0.526,0.176-0.818,0.468-0.818s0.409,0.175,0.409,0.585c0,0.351,0,1.052,0.176,1.754c0.76,3.801,4.21,5.262,7.601,5.262
		c4.854,0,7.192-3.332,7.192-6.256c0-3.333-1.521-5.38-5.788-8.829l-2.34-1.813c-5.613-4.503-6.782-7.602-6.782-11.052
		c0-5.379,4.269-9.004,10.817-9.004c2.047,0,3.449,0.175,4.736,0.467c1.11,0.234,1.578,0.293,1.988,0.293
		c0.409,0,0.525,0.117,0.525,0.351c0,0.234-0.233,2.28-0.233,5.672c0,0.877-0.117,1.228-0.409,1.228
		c-0.293,0-0.352-0.233-0.409-0.643c-0.059-0.526-0.176-1.754-0.702-2.748c-0.292-0.526-1.637-2.748-6.549-2.748
		c-3.508,0-6.14,2.104-6.14,5.613c0,2.748,1.403,4.443,6.257,8.127l1.345,1.053c6.081,4.678,7.66,7.776,7.66,11.928
		c0,2.105-0.878,5.848-4.444,8.304c-2.28,1.462-5.087,2.046-7.894,2.046C448.242,338.064,445.962,337.772,443.74,336.778z"/>
	<path fill="#FFFFFF" d="M200.41,406.953c-0.76-0.351-0.76-0.585-0.76-1.988c0-2.689,0.175-4.678,0.234-5.496
		c0.059-0.526,0.175-0.818,0.468-0.818s0.409,0.175,0.409,0.584c0,0.352,0,1.053,0.176,1.755c0.76,3.801,4.21,5.263,7.601,5.263
		c4.853,0,7.192-3.333,7.192-6.257c0-3.333-1.52-5.38-5.789-8.829l-2.339-1.813c-5.613-4.503-6.783-7.602-6.783-11.052
		c0-5.379,4.269-9.005,10.817-9.005c2.046,0,3.45,0.176,4.736,0.469c1.111,0.233,1.579,0.292,1.988,0.292s0.526,0.117,0.526,0.351
		c0,0.234-0.234,2.28-0.234,5.672c0,0.877-0.117,1.228-0.409,1.228c-0.292,0-0.351-0.233-0.41-0.643
		c-0.058-0.526-0.175-1.755-0.702-2.748c-0.292-0.526-1.637-2.749-6.549-2.749c-3.508,0-6.14,2.105-6.14,5.613
		c0,2.749,1.403,4.444,6.257,8.128l1.345,1.053c6.081,4.678,7.66,7.776,7.66,11.928c0,2.105-0.877,5.848-4.444,8.304
		c-2.28,1.461-5.087,2.046-7.894,2.046C204.912,408.239,202.631,407.947,200.41,406.953z"/>
	<path fill="#FFFFFF" d="M235.145,391.341c0,7.134,1.345,10.175,3.567,12.162c2.514,2.223,5.321,2.69,7.718,2.69
		c3.04,0,5.79-0.819,8.011-3.392c2.339-2.689,2.865-7.134,2.865-12.221v-6.198c0-7.659,0-9.004-0.117-10.583
		c-0.117-1.696-0.292-2.573-2.163-2.865c-0.409-0.059-1.111-0.117-1.638-0.117c-0.351,0-0.585-0.175-0.585-0.351
		c0-0.351,0.293-0.468,0.819-0.468c2.514,0,5.438,0.176,5.672,0.176c0.292,0,2.807-0.176,4.443-0.176
		c0.585,0,0.818,0.117,0.818,0.409c0,0.234-0.233,0.409-0.584,0.409c-0.352,0-0.469,0-1.053,0.059
		c-1.638,0.176-1.871,1.228-1.988,2.924c-0.059,1.579-0.059,2.924-0.059,10.583v5.204c0,5.263-0.585,11.577-4.736,15.145
		c-3.801,3.216-7.543,3.508-10.701,3.508c-1.637,0-7.133,0-10.934-3.508c-2.514-2.339-4.327-5.848-4.327-13.098v-7.251
		c0-7.718,0-9.063-0.176-10.642c-0.059-1.579-0.351-2.573-2.163-2.807c-0.351-0.059-1.053-0.117-1.521-0.117
		c-0.409,0-0.643-0.175-0.643-0.351c0-0.351,0.234-0.468,0.877-0.468c2.514,0,5.672,0.176,6.081,0.176
		c0.468,0,3.917-0.176,5.497-0.176c0.643,0,0.818,0.117,0.818,0.409c0,0.293-0.409,0.409-0.702,0.409
		c-0.351,0-0.819,0.059-1.287,0.117c-1.403,0.176-1.637,1.169-1.754,2.807c-0.059,1.579-0.059,2.924-0.059,10.642V391.341z"/>
	<path fill="#FFFFFF" d="M275.848,384.383c0-7.718,0-9.121-0.117-10.7s-0.526-2.456-2.339-2.807
		c-0.351-0.059-0.936-0.117-1.403-0.117c-0.409,0-0.644-0.116-0.644-0.351c0-0.233,0.176-0.409,0.702-0.409
		c2.514,0,6.081,0.176,6.197,0.176c0.526,0,4.503-0.176,6.14-0.176c3.274,0,6.842,0.292,9.59,2.222
		c1.11,0.818,3.508,3.158,3.508,7.134c0,3.216-1.578,7.309-6.198,11.051c4.269,5.263,7.777,9.59,10.76,12.688
		c2.807,2.865,4.561,3.333,6.197,3.567c0.409,0.058,1.638,0.116,1.813,0.116c0.468,0,0.644,0.176,0.644,0.41
		c0,0.292-0.233,0.409-1.053,0.409h-4.093c-2.748,0-4.034-0.176-5.321-0.702c-2.455-1.053-4.21-3.684-7.25-7.602
		c-2.28-2.807-4.619-5.964-5.613-7.191c-0.234-0.234-0.351-0.352-0.702-0.352l-6.022-0.058c-0.233,0-0.292,0.058-0.292,0.292v0.818
		c0,4.678,0,8.946,0.292,11.052c0.176,1.403,0.351,2.572,2.28,2.807c0.585,0.058,1.229,0.116,1.696,0.116
		c0.526,0,0.76,0.176,0.76,0.352c0,0.292-0.233,0.468-0.818,0.468c-3.041,0-6.315-0.176-6.549-0.176
		c-0.936,0-3.509,0.176-5.087,0.176c-0.585,0-0.818-0.117-0.818-0.468c0-0.176,0.351-0.352,0.701-0.352c0.409,0,0.818,0,1.286-0.116
		c0.994-0.176,1.345-0.819,1.521-2.223c0.292-2.104,0.234-6.899,0.234-11.284V384.383z M280.35,388.534
		c0,0.293,0.059,0.585,0.292,0.702c0.761,0.409,3.1,0.76,5.204,0.76c1.229,0,2.689-0.059,3.918-0.877
		c1.754-1.111,2.924-3.684,2.924-7.426c0-6.373-3.392-9.882-8.596-9.882c-1.462,0-2.689,0.117-3.392,0.292
		c-0.175,0.059-0.351,0.234-0.351,0.526V388.534z"/>
</g>
<g>
	<path fill="#FFFFFF" d="M259.707,269.325c-54.477-0.091-95.27-36.608-106.498-81.799c-2.673-10.756-3.632-21.656-3.057-32.732
		c2.512-48.451,36.997-87.395,81.857-98.511c9.453-2.342,19.046-3.459,28.767-3.242c42.044,0.94,75.41,24.959,92.579,56.85
		c6.059,11.255,10.026,23.212,11.819,35.861c1.365,9.628,1.417,19.275,0.269,28.953c-5.231,44.075-37.775,80.682-81.447,91.498
		C275.443,268.322,266.745,269.287,259.707,269.325z M164.149,169.826c0.412,0.257,0.671,0.469,0.966,0.596
		c7.303,3.135,14.902,4.279,22.803,3.359c5.798-0.675,11.317-2.348,16.674-4.62c5.805-2.463,11.308-5.494,16.591-8.913
		c4.791-3.1,9.495-6.334,14.232-9.518c5.011-3.369,9.987-6.791,15.031-10.108c3.804-2.501,7.785-4.707,11.935-6.592
		c3.322-1.509,6.744-2.719,10.327-3.457c7.784-1.604,14.973-0.205,21.478,4.363c1.82,1.278,3.554,2.723,5.129,4.291
		c1.931,1.921,3.792,3.946,5.431,6.117c2.107,2.793,4.748,4.757,7.863,6.265c5.821,2.817,11.809,5.165,18.01,6.998
		c2.614,0.772,5.194,1.673,7.746,2.632c1.147,0.431,2.261,1.043,3.259,1.756c1.327,0.948,1.422,2.503,0.246,3.632
		c-0.639,0.613-1.454,1.094-2.268,1.464c-1.819,0.826-3.766,1.289-5.744,1.473c-4.033,0.375-8.071,0.832-12.114,0.911
		c-5.787,0.112-11.582-0.044-17.371-0.172c-1.999-0.044-3.965,0.082-5.926,0.416c-2.608,0.444-5.216,0.889-7.821,1.354
		c-7.244,1.294-14.477,2.643-21.611,4.465c-5.374,1.372-10.655,3.011-15.707,5.349c-7.417,3.432-13.319,8.57-17.608,15.524
		c-1.257,2.039-2.447,4.13-3.507,6.277c-1.318,2.666-2.549,5.382-3.678,8.134c-4.459,10.866-8.148,22.018-12.126,33.062
		c-0.105,0.291-0.089,0.626-0.142,1.042c0.491,0.228,0.923,0.449,1.369,0.633c1.758,0.725,3.534,1.408,5.279,2.162
		c9.217,3.983,18.906,5.986,28.869,6.643c8.704,0.574,17.36,0.015,25.91-1.84c22.436-4.866,40.946-16.062,55.029-34.293
		c11.363-14.71,17.952-31.364,19.562-49.887c1.064-12.238-0.213-24.282-3.861-36.046c-12.184-39.294-46.466-63.7-83.503-66.405
		c-12.087-0.883-23.95,0.561-35.497,4.322c-47.488,15.468-67.563,58.335-65.678,94.247
		C163.803,166.938,164.009,168.409,164.149,169.826z M307.88,153.563c0,1.458-0.03,2.612,0.006,3.764
		c0.068,2.173-0.544,4.047-2.159,5.585c-0.563,0.536-1.295,1.045-1.291,2.135c0.989,0.337,1.975,0.78,3.007,1.007
		c8.491,1.865,17.028,2.012,25.585,0.511c1.036-0.182,2.04-0.643,3.002-1.096c0.369-0.174,0.578-0.687,0.915-1.117
		c-0.303-0.249-0.473-0.446-0.687-0.554c-0.514-0.26-1.033-0.531-1.579-0.704c-1.574-0.496-3.145-1.017-4.748-1.395
		c-2.989-0.705-5.866-1.68-8.587-3.112c-0.656-0.345-1.348-0.624-2.028-0.921c-0.963-0.421-1.889-0.524-2.783,0.219
		c-0.307,0.255-0.714,0.423-1.103,0.539c-1.406,0.419-2.203,0.009-2.631-1.388c-0.193-0.629-0.218-1.329-0.838-1.728
		C310.792,154.555,309.59,153.875,307.88,153.563z M284.769,152.28c1.436,0.773,2.619,0.995,3.876,0.954
		c1.41-0.046,2.577-0.607,3.444-1.691c1.109-1.386,1.763-2.968,1.828-4.773c0.065-1.808-0.648-3.253-2.147-4.203
		c-0.891-0.565-1.901-1.022-2.92-1.291c-3.999-1.056-7.862-0.357-11.629,1.122c-0.431,0.169-0.814,0.463-1.277,0.733
		c0.392,0.976,0.719,1.795,1.592,2.425c1.487-0.822,3.084-1.029,4.7-0.686c0.743,0.802,0.499,1.772,0.665,2.643
		c0.133,0.695,0.48,1.064,1.142,1.059c0.657-0.004,1.315-0.152,1.971-0.14c0.362,0.007,0.721,0.213,1.036,0.315
		C287.023,150.388,285.948,151.213,284.769,152.28z"/>
</g>
</svg>
