<?xml version="1.0" encoding="utf-8"?>
<!-- Generator: Adobe Illustrator 17.0.0, SVG Export Plug-In . SVG Version: 6.00 Build 0)  -->
<!DOCTYPE svg PUBLIC "-//W3C//DTD SVG 1.1//EN" "http://www.w3.org/Graphics/SVG/1.1/DTD/svg11.dtd">
<svg version="1.1" id="Layer_1" xmlns="http://www.w3.org/2000/svg" xmlns:xlink="http://www.w3.org/1999/xlink" x="0px" y="0px"
	 width="213.636px" height="50.25px" viewBox="0 0 213.636 50.25" enable-background="new 0 0 213.636 50.25" xml:space="preserve">
<g>
	<path d="M107.456,47.896c-13.771-0.117-27.514-0.668-41.22-1.938c-14.775-1.369-29.455-3.348-43.78-7.396
		c-4.889-1.382-9.723-2.957-14.126-5.536c-1.875-1.098-3.702-2.418-5.211-3.969c-2.694-2.767-2.547-5.905,0.094-8.742
		c2.11-2.267,4.755-3.762,7.519-5.049c7.254-3.378,14.954-5.328,22.742-6.956C46.916,5.5,60.527,3.96,74.213,2.979
		c18.732-1.342,37.478-1.507,56.231-0.62c15.024,0.71,29.987,2.083,44.801,4.764c9.48,1.716,18.899,3.736,27.752,7.689
		c2.424,1.082,4.8,2.42,6.918,4.014c4.94,3.719,4.936,7.964,0.144,11.855c-3.624,2.942-7.902,4.652-12.252,6.159
		c-9.052,3.137-18.409,5.002-27.845,6.501c-12.29,1.953-24.664,3.133-37.087,3.729C124.408,47.476,115.929,47.63,107.456,47.896z
		 M182.244,25.776c1.549,0,2.982-0.05,4.408,0.017c0.969,0.046,1.606,0.642,1.892,1.581c0.128,0.42,0.239,0.845,0.381,1.26
		c0.497,1.457,1.412,2.139,2.943,2.155c1.718,0.019,3.437,0.032,5.155-0.002c2.814-0.056,4.411-2.122,3.807-4.938
		c-0.646,0-1.302,0-1.982,0c-0.066,0.421-0.043,0.811-0.201,1.104c-0.13,0.24-0.467,0.483-0.729,0.504
		c-0.236,0.019-0.58-0.205-0.73-0.423c-0.689-1.001-1.327-2.038-1.996-3.082c0.284-0.174,0.777-0.436,1.228-0.758
		c1.795-1.284,1.854-3.007-0.064-4.094c-1.167-0.662-2.613-1.123-3.946-1.152c-7.03-0.153-14.063-0.141-21.095-0.178
		c-0.188-0.001-0.377,0.09-0.645,0.158c0,0.654,0.05,1.294-0.012,1.923c-0.087,0.88,0.317,1.111,1.113,1.064
		c0.816-0.048,1.637-0.011,2.445-0.011c0,2.297,0,4.39,0,6.628c-1.187,0-2.28,0-3.377,0c0,1.135,0,2.12,0,3.171
		c5.084,0,10.091,0,15.105,0c0-1.073,0-2.054,0-3.159c-0.663,0-1.253,0-1.842,0c-0.619,0-1.237,0-1.86,0
		C182.244,26.856,182.244,26.382,182.244,25.776z M41.424,24.323c0.585-0.4,1.063-0.69,1.5-1.032
		c1.938-1.516,1.849-3.486-0.387-4.521c-1.296-0.6-2.824-0.945-4.255-0.968c-6.356-0.101-12.714-0.044-19.072-0.044
		c-2.285,0-2.262-0.001-2.141,2.329c0.032,0.622,0.249,0.861,0.852,0.848c0.912-0.019,1.824-0.005,2.809-0.005
		c0,2.225,0,4.319,0,6.584c-1.247,0-2.416,0-3.601,0c0,1.155,0,2.136,0,3.161c0.289,0.045,0.519,0.113,0.75,0.113
		c7.317,0.005,14.635,0.041,21.951-0.037c1.066-0.011,2.234-0.385,3.168-0.917c2.049-1.168,1.886-3.836-0.205-4.923
		C42.406,24.711,41.992,24.565,41.424,24.323z M137.996,21.054c0-0.942-0.024-1.695,0.008-2.446
		c0.027-0.623-0.239-0.856-0.845-0.853c-2.84,0.013-5.68-0.012-8.519,0.032c-0.277,0.004-0.759,0.364-0.785,0.599
		c-0.096,0.848-0.038,1.713-0.038,2.681c1.108,0,2.011,0,2.946,0c0,1.441,0,2.767,0,4.267c-0.419-0.373-0.714-0.621-0.992-0.886
		c-2.085-1.986-4.14-4.005-6.272-5.939c-0.45-0.408-1.176-0.708-1.78-0.718c-3.758-0.065-7.519-0.035-11.278-0.03
		c-0.39,0.001-0.78,0.042-1.179,0.065c0,1.119,0,2.131,0,3.265c0.997,0,1.896,0,2.8,0c0,2.183,0,4.243,0,6.425
		c-0.973,0-1.875,0-2.911,0c0,0.79,0.05,1.463-0.012,2.126c-0.082,0.875,0.199,1.201,1.126,1.173
		c2.158-0.064,4.319-0.021,6.479-0.02c2.971,0,2.972,0,2.737-2.975c-0.005-0.069-0.076-0.132-0.183-0.308c-0.917,0-1.901,0-2.941,0
		c0-1.673,0-3.232,0-5.013c2.731,2.604,5.273,5.086,7.897,7.479c0.496,0.453,1.304,0.747,1.985,0.78
		c2.035,0.101,4.078,0.036,6.117,0.036c2.7,0,2.7,0,2.7-2.719c0-2.306,0-4.612,0-7.021C136.07,21.054,136.936,21.054,137.996,21.054
		z M84.349,22.452c2.788,2.66,5.364,5.163,8.007,7.594c0.444,0.409,1.169,0.694,1.775,0.715c2.396,0.081,4.797,0.033,7.195,0.033
		c1.756,0,1.757,0,1.758-1.745c0.001-2.63,0-5.261,0-8.029c1.031,0,1.928,0,2.957,0c0-0.925,0.071-1.725-0.037-2.5
		c-0.04-0.284-0.503-0.722-0.78-0.727c-2.878-0.053-5.757-0.046-8.635-0.007c-0.249,0.003-0.687,0.338-0.707,0.551
		c-0.081,0.859-0.034,1.73-0.034,2.733c1.095,0,2.032,0,2.961,0c0,1.468,0,2.796,0,4.327c-2.451-2.337-4.775-4.518-7.052-6.747
		c-0.645-0.631-1.304-0.922-2.222-0.91c-3.638,0.046-7.276,0.019-10.915,0.019c-0.429,0-0.857,0-1.328,0c0,1.177,0,2.186,0,3.314
		c1,0,1.901,0,2.793,0c0,2.209,0,4.297,0,6.374c-3.107,0.18-3.089,0.178-2.932,2.5c0.04,0.599,0.23,0.858,0.854,0.854
		c2.918-0.019,5.837,0.008,8.755-0.037c0.273-0.004,0.745-0.374,0.771-0.613c0.095-0.85,0.037-1.716,0.037-2.679
		c-1.192,0-2.177,0-3.223,0C84.349,25.828,84.349,24.289,84.349,22.452z M140.942,21.078c1.222,0,2.392,0,3.593,0
		c0,2.217,0,4.28,0,6.501c-1.24,0-2.414,0-3.565,0c0,1.138,0,2.116,0,3.215c0.554,0,1.027,0,1.499,0c7.675,0,15.349,0,23.024,0
		c0.52,0,1.048,0.051,1.555-0.03c0.242-0.038,0.628-0.323,0.634-0.507c0.052-1.458,0.029-2.918,0.029-4.356
		c-2.135,0-4.071,0-6.053,0c-0.051,0.555-0.094,1.023-0.141,1.54c-2.956,0-5.887,0-8.807,0c0-0.578,0-1.075,0-1.706
		c1.698,0,3.318,0,4.975,0c0-0.916,0-1.696,0-2.603c-1.687,0-3.307,0-4.979,0c0-0.74,0-1.35,0-2c2.936,0,5.794,0,8.713,0
		c0.057,0.632,0.109,1.205,0.158,1.747c2.02,0,3.95,0,5.865,0c0-1.727,0-3.347,0-5.016c-8.878,0-17.681,0-26.499,0
		C140.942,18.956,140.942,19.941,140.942,21.078z M73.952,27.728c-0.58,0-0.985-0.058-1.368,0.011
		c-1.201,0.216-1.867-0.34-2.475-1.338c-1.578-2.591-3.294-5.097-4.896-7.673c-0.461-0.741-0.993-1.012-1.847-0.986
		c-1.796,0.055-3.597,0.053-5.393-0.001c-0.818-0.024-1.314,0.252-1.745,0.952c-1.652,2.686-3.383,5.324-5.034,8.011
		c-0.386,0.629-0.814,0.884-1.538,0.83c-0.778-0.057-1.563-0.013-2.445-0.013c0,0.82,0.058,1.461-0.013,2.087
		c-0.114,0.997,0.346,1.214,1.244,1.201c2.756-0.042,5.514-0.012,8.271-0.02c0.344-0.001,0.688-0.063,1.015-0.095
		c0-1.058,0-1.995,0-2.965c-0.766-0.058-1.449-0.11-2.115-0.161c0.392-1.495,1.311-1.929,2.642-1.755
		c0.55,0.072,1.13,0.089,1.674-0.003c1.386-0.235,2,0.542,2.478,1.781c-0.894,0.042-1.708,0.081-2.577,0.122
		c0,1.026,0,1.962,0,2.988c4.714,0,9.362,0,14.121,0c0-0.445,0-0.798,0-1.15C73.952,28.999,73.952,28.447,73.952,27.728z"/>
	<path fill="#FFFFFF" d="M182.244,25.776c0,0.606,0,1.08,0,1.769c0.622,0,1.241,0,1.86,0c0.59,0,1.179,0,1.842,0
		c0,1.106,0,2.087,0,3.159c-5.014,0-10.021,0-15.105,0c0-1.051,0-2.037,0-3.171c1.097,0,2.189,0,3.377,0c0-2.238,0-4.331,0-6.628
		c-0.809,0-1.629-0.037-2.445,0.011c-0.796,0.047-1.2-0.184-1.113-1.064c0.062-0.629,0.012-1.269,0.012-1.923
		c0.268-0.068,0.457-0.159,0.645-0.158c7.032,0.037,14.065,0.025,21.095,0.178c1.332,0.029,2.778,0.49,3.946,1.152
		c1.918,1.087,1.86,2.811,0.064,4.094c-0.451,0.322-0.944,0.584-1.228,0.758c0.669,1.044,1.307,2.081,1.996,3.082
		c0.15,0.218,0.494,0.441,0.73,0.423c0.263-0.021,0.599-0.263,0.729-0.504c0.158-0.292,0.134-0.683,0.201-1.104
		c0.68,0,1.336,0,1.982,0c0.604,2.816-0.992,4.882-3.807,4.938c-1.718,0.034-3.437,0.02-5.155,0.002
		c-1.532-0.017-2.446-0.699-2.943-2.155c-0.142-0.415-0.253-0.84-0.381-1.26c-0.287-0.939-0.924-1.535-1.892-1.581
		C185.226,25.726,183.794,25.776,182.244,25.776z M182.256,23.213c1.049,0,1.966,0.031,2.88-0.008
		c0.989-0.043,1.996-0.061,2.953-0.278c0.389-0.088,0.666-0.671,0.994-1.028c-0.368-0.273-0.727-0.766-1.106-0.782
		c-1.894-0.081-3.793-0.037-5.721-0.037C182.256,21.801,182.256,22.425,182.256,23.213z"/>
	<path fill="#FFFFFF" d="M41.424,24.323c0.569,0.242,0.983,0.388,1.368,0.588c2.091,1.087,2.254,3.755,0.205,4.923
		c-0.934,0.533-2.102,0.906-3.168,0.917c-7.316,0.078-14.634,0.042-21.951,0.037c-0.23,0-0.46-0.068-0.75-0.113
		c0-1.025,0-2.006,0-3.161c1.186,0,2.355,0,3.601,0c0-2.266,0-4.359,0-6.584c-0.984,0-1.897-0.014-2.809,0.005
		c-0.603,0.013-0.82-0.226-0.852-0.848c-0.12-2.33-0.143-2.329,2.141-2.329c6.357,0,12.716-0.057,19.072,0.044
		c1.431,0.023,2.958,0.368,4.255,0.968c2.236,1.035,2.326,3.005,0.387,4.521C42.486,23.633,42.008,23.923,41.424,24.323z
		 M28.606,27.509c1.889,0,3.68,0.079,5.456-0.053c0.476-0.035,0.903-0.715,1.353-1.099c-0.367-0.319-0.722-0.894-1.104-0.913
		c-1.891-0.095-3.789-0.043-5.705-0.043C28.606,26.132,28.606,26.728,28.606,27.509z M28.65,23.157c1.684,0,3.303,0.014,4.921-0.011
		c0.345-0.005,0.763-0.055,1.014-0.253c0.34-0.267,0.727-0.684,0.755-1.063c0.018-0.234-0.584-0.728-0.921-0.741
		c-1.923-0.072-3.85-0.035-5.77-0.035C28.65,21.798,28.65,22.416,28.65,23.157z"/>
	<path fill="#FFFFFF" d="M137.996,21.054c-1.06,0-1.925,0-2.943,0c0,2.409,0,4.715,0,7.021c0,2.719,0,2.719-2.7,2.719
		c-2.04,0-4.083,0.065-6.117-0.036c-0.681-0.034-1.488-0.328-1.985-0.78c-2.623-2.393-5.166-4.875-7.897-7.479
		c0,1.78,0,3.34,0,5.013c1.04,0,2.024,0,2.941,0c0.107,0.176,0.178,0.24,0.183,0.308c0.234,2.975,0.234,2.975-2.737,2.975
		c-2.16,0-4.321-0.044-6.479,0.02c-0.927,0.028-1.208-0.298-1.126-1.173c0.062-0.663,0.012-1.336,0.012-2.126
		c1.037,0,1.939,0,2.911,0c0-2.182,0-4.242,0-6.425c-0.903,0-1.803,0-2.8,0c0-1.133,0-2.146,0-3.265
		c0.398-0.023,0.788-0.065,1.179-0.065c3.76-0.005,7.52-0.035,11.278,0.03c0.605,0.01,1.33,0.31,1.78,0.718
		c2.132,1.934,4.187,3.953,6.272,5.939c0.279,0.265,0.574,0.513,0.992,0.886c0-1.5,0-2.825,0-4.267c-0.935,0-1.839,0-2.946,0
		c0-0.968-0.058-1.833,0.038-2.681c0.027-0.235,0.508-0.595,0.785-0.599c2.839-0.044,5.679-0.02,8.519-0.032
		c0.607-0.003,0.872,0.23,0.845,0.853C137.971,19.359,137.996,20.112,137.996,21.054z"/>
	<path fill="#FFFFFF" d="M84.349,22.452c0,1.837,0,3.375,0,5.019c1.046,0,2.031,0,3.223,0c0,0.963,0.058,1.83-0.037,2.679
		c-0.027,0.239-0.499,0.609-0.771,0.613c-2.918,0.045-5.837,0.019-8.755,0.037c-0.625,0.004-0.814-0.255-0.854-0.854
		c-0.157-2.322-0.175-2.321,2.932-2.5c0-2.078,0-4.165,0-6.374c-0.892,0-1.793,0-2.793,0c0-1.128,0-2.137,0-3.314
		c0.471,0,0.9,0,1.328,0c3.638,0,7.277,0.027,10.915-0.019c0.918-0.012,1.577,0.279,2.222,0.91c2.277,2.229,4.601,4.41,7.052,6.747
		c0-1.53,0-2.858,0-4.327c-0.929,0-1.866,0-2.961,0c0-1.003-0.048-1.874,0.034-2.733c0.02-0.212,0.457-0.547,0.707-0.551
		c2.878-0.039,5.757-0.046,8.635,0.007c0.277,0.005,0.74,0.443,0.78,0.727c0.109,0.774,0.037,1.574,0.037,2.5
		c-1.029,0-1.926,0-2.957,0c0,2.768,0.001,5.398,0,8.029c-0.001,1.745-0.002,1.745-1.758,1.745c-2.399,0-4.799,0.047-7.195-0.033
		c-0.606-0.02-1.331-0.306-1.775-0.715C89.713,27.615,87.137,25.112,84.349,22.452z"/>
	<path fill="#FFFFFF" d="M140.942,21.078c0-1.137,0-2.122,0-3.214c8.818,0,17.62,0,26.499,0c0,1.669,0,3.289,0,5.016
		c-1.914,0-3.845,0-5.865,0c-0.049-0.543-0.101-1.115-0.158-1.747c-2.919,0-5.777,0-8.713,0c0,0.65,0,1.26,0,2
		c1.673,0,3.293,0,4.979,0c0,0.907,0,1.686,0,2.603c-1.658,0-3.277,0-4.975,0c0,0.631,0,1.127,0,1.706c2.92,0,5.852,0,8.807,0
		c0.048-0.518,0.09-0.985,0.141-1.54c1.982,0,3.918,0,6.053,0c0,1.438,0.023,2.898-0.029,4.356
		c-0.007,0.184-0.393,0.469-0.634,0.507c-0.507,0.08-1.035,0.03-1.555,0.03c-7.675,0-15.349,0-23.024,0c-0.472,0-0.945,0-1.499,0
		c0-1.1,0-2.078,0-3.215c1.152,0,2.325,0,3.565,0c0-2.221,0-4.284,0-6.501C143.335,21.078,142.164,21.078,140.942,21.078z"/>
	<path fill="#FFFFFF" d="M73.952,27.728c0,0.719,0,1.271,0,1.823c0,0.353,0,0.706,0,1.15c-4.759,0-9.407,0-14.121,0
		c0-1.026,0-1.962,0-2.988c0.869-0.041,1.683-0.08,2.577-0.122c-0.478-1.239-1.092-2.016-2.478-1.781
		c-0.544,0.092-1.124,0.075-1.674,0.003c-1.331-0.174-2.25,0.26-2.642,1.755c0.666,0.051,1.349,0.103,2.115,0.161
		c0,0.97,0,1.907,0,2.965c-0.327,0.032-0.671,0.094-1.015,0.095c-2.757,0.008-5.514-0.022-8.271,0.02
		c-0.898,0.014-1.358-0.204-1.244-1.201c0.072-0.626,0.013-1.267,0.013-2.087c0.882,0,1.667-0.044,2.445,0.013
		c0.724,0.053,1.151-0.202,1.538-0.83c1.651-2.687,3.382-5.324,5.034-8.011c0.431-0.701,0.927-0.977,1.745-0.952
		c1.796,0.053,3.597,0.056,5.393,0.001c0.854-0.026,1.386,0.245,1.847,0.986c1.602,2.576,3.318,5.083,4.896,7.673
		c0.608,0.998,1.274,1.554,2.475,1.338C72.967,27.67,73.372,27.728,73.952,27.728z M57.289,22.758
		c0.088,0.091,0.177,0.182,0.265,0.273c1.072,0,2.145,0,3.217,0c0.073-0.112,0.146-0.224,0.219-0.336
		c-0.62-0.553-1.257-1.558-1.854-1.534C58.5,21.185,57.903,22.184,57.289,22.758z"/>
	<path d="M182.256,23.213c0-0.788,0-1.412,0-2.134c1.928,0,3.827-0.044,5.721,0.037c0.379,0.016,0.738,0.509,1.106,0.782
		c-0.328,0.358-0.605,0.94-0.994,1.028c-0.957,0.217-1.964,0.235-2.953,0.278C184.222,23.244,183.305,23.213,182.256,23.213z"/>
	<path d="M28.606,27.509c0-0.781,0-1.376,0-2.108c1.915,0,3.814-0.052,5.705,0.043c0.382,0.019,0.737,0.594,1.104,0.913
		c-0.45,0.384-0.877,1.063-1.353,1.099C32.286,27.588,30.494,27.509,28.606,27.509z"/>
	<path d="M28.65,23.157c0-0.741,0-1.359,0-2.103c1.92,0,3.847-0.037,5.77,0.035c0.337,0.013,0.939,0.507,0.921,0.741
		c-0.029,0.379-0.415,0.796-0.755,1.063c-0.252,0.198-0.669,0.247-1.014,0.253C31.953,23.17,30.334,23.157,28.65,23.157z"/>
	<path d="M57.289,22.758c0.614-0.574,1.211-1.572,1.848-1.598c0.596-0.024,1.234,0.982,1.854,1.534
		c-0.073,0.112-0.146,0.224-0.219,0.336c-1.072,0-2.145,0-3.217,0C57.466,22.939,57.377,22.849,57.289,22.758z"/>
</g>
<g>
	<defs>
		<rect id="SVGID_3_" x="18.825" y="-61.5" width="174.48" height="44.4"/>
	</defs>
	<clipPath id="SVGID_1_">
		<use xlink:href="#SVGID_3_"  overflow="visible"/>
	</clipPath>
	<g transform="matrix(1 0 0 1 0 3.814697e-006)" clip-path="url(#SVGID_1_)">
		
			<image overflow="visible" width="1457" height="370" xlink:href="6FA9931F.jpg"  transform="matrix(0.1198 0 0 0.12 18.8246 -61.5)">
		</image>
	</g>
</g>
</svg>
