<?xml version="1.0" encoding="utf-8"?>
<!-- Generator: Adobe Illustrator 17.0.0, SVG Export Plug-In . SVG Version: 6.00 Build 0)  -->
<!DOCTYPE svg PUBLIC "-//W3C//DTD SVG 1.1//EN" "http://www.w3.org/Graphics/SVG/1.1/DTD/svg11.dtd">
<svg version="1.1" id="Layer_1" xmlns="http://www.w3.org/2000/svg" xmlns:xlink="http://www.w3.org/1999/xlink" x="0px" y="0px"
	 width="834px" height="232px" viewBox="0 0 834 232" enable-background="new 0 0 834 232" xml:space="preserve">
<g>
	<path d="M243.702,202.38c-0.239-1.951-0.75-4.186-0.752-6.422c-0.045-51.156-0.028-102.312-0.049-153.468
		c-0.002-3.745,0.092-6.722,5.376-6.704c41.824,0.15,83.649,0.084,125.474,0.094c0.813,0,1.627,0.113,3.512,0.253
		c0.371,11.579,0.985,23.122,0.898,34.661c-0.017,2.235-1.658,4.854-5.835,4.787c-22.489-0.363-44.988-0.172-67.483-0.172
		c-1.78,0-3.56,0-6.008,0c0,7.815,0,15.055,0,22.55c20.909,0,41.015,0.185,61.113-0.139c4.623-0.074,5.736,1.974,5.846,5.616
		c0.286,9.505,0.499,19.013,0.631,28.521c0.05,3.617-1.076,5.62-5.573,5.619c-19.617-0.002-39.233,0.448-58.849,0.75
		c-0.804,0.012-1.606,0.181-2.701,0.311c0,7.739,0,15.334,0,23.548c1.674,0.077,3.419,0.226,5.164,0.227
		c23.995,0.015,47.99,0.076,71.985-0.052c4.195-0.022,5.173,1.158,4.915,5.514c-0.495,8.36,0.111,16.783,0.154,25.18
		c0.015,2.875-0.291,5.752-0.489,9.325C335.534,202.38,290.153,202.38,243.702,202.38z"/>
	<path d="M539.982,100.397c-15.165,0-29.975-0.209-44.773,0.113c-5.201,0.113-6.989-1.468-7.953-6.72
		c-2.098-11.438-9.894-20.483-26.687-20.402c-14.486,0.07-21.656,8.703-26.124,22.158c-4.621,13.918-3.269,28.023-2.37,42.112
		c1.323,20.722,24.221,33.677,42.916,24.453c6.784-3.347,9.964-9.692,12.391-16.404c1.048-2.897,1.592-5.975,2.412-9.154
		c14.763,0,29.075,0.003,43.386-0.004c1.831-0.001,3.72,0.222,5.479-0.149c3.271-0.689,3.899,1.143,3.468,3.546
		c-4.308,24.023-14.766,43.946-36.907,56.452c-19.982,11.286-41.285,11.985-63.075,8.419c-17.205-2.816-32.355-10.386-44.259-23.189
		c-5.205-5.598-9.547-12.321-12.953-19.191c-5.007-10.099-7.515-20.978-8.542-32.414c-0.89-9.908-0.63-19.835,0.784-29.322
		c2.355-15.806,8.757-30.413,19.713-42.655c16.05-17.935,36.597-26.183,60.052-26.698c19.491-0.427,38.69,2.881,55.073,14.331
		c11.057,7.728,19.559,18.013,23.656,31.451C537.927,84.534,541.203,91.646,539.982,100.397z"/>
	<path d="M762.141,200.839c-2.088-6.776-4.132-13.408-6.393-20.747c-16.753,0-33.939,0-51.439,0
		c-1.874,6.384-3.525,12.618-5.63,18.695c-0.451,1.302-2.538,2.883-3.888,2.898c-16.15,0.177-32.303,0.089-48.455,0.03
		c-0.607-0.002-1.213-0.417-2.222-0.788c1.862-5.476,3.666-10.852,5.519-16.211c2.775-8.025,5.523-16.061,8.399-24.051
		c2.932-8.144,6.065-16.215,8.994-24.359c1.953-5.43,3.626-10.96,5.565-16.395c2-5.605,4.207-11.136,6.256-16.724
		c1.944-5.301,3.856-10.616,5.686-15.958c2.886-8.425,5.627-16.9,8.551-25.311c2.699-7.767,5.406-15.539,8.474-23.162
		c0.615-1.528,2.845-3.371,4.374-3.412c11.596-0.311,23.203-0.16,34.806-0.262c3.874-0.034,7.787-0.096,11.607-0.659
		c6.694-0.987,6.92,4.441,8.398,8.3c4.28,11.174,8.415,22.409,12.323,33.719c3.525,10.201,6.46,20.608,10.053,30.784
		c3.605,10.206,7.888,20.172,11.535,30.364c4.36,12.183,8.265,24.529,12.551,36.74c3.043,8.669,6.391,17.23,9.854,26.51
		C798.355,200.839,780.213,200.839,762.141,200.839z M714.627,143.456c10.703,0,20.578,0,31.546,0
		c-5.267-17.977-10.345-35.312-15.423-52.646c-0.415,0.015-0.831,0.029-1.246,0.044
		C724.602,108.184,719.701,125.515,714.627,143.456z"/>
	<path d="M545.303,35.505c42.308,0,84.388,0,126.86,0c0,12.769,0,25.495,0,38.857c-23.653,0-47.359,0-71.397,0
		c0,9.879,0,19.135,0,29.027c18.803,0,37.687,0,56.877,0c0,13.38,0,26.132,0,39.87c-18.92,0-37.824,0-57.217,0
		c0,2.778,0,4.576,0,6.374c-0.001,15.995-0.077,31.991,0.061,47.985c0.028,3.274-1.015,4.32-4.278,4.292
		c-15.661-0.132-31.324-0.129-46.985-0.002c-3.223,0.026-4.303-0.945-4.298-4.26c0.09-52.984,0.063-105.969,0.078-158.953
		C545.004,37.728,545.181,36.76,545.303,35.505z"/>
	<path d="M25.831,115.362c0-24.982,0.35-49.97-0.143-74.942c-0.257-13.05,10.953-25.838,23.106-27.9
		c2.752-0.467,5.562-0.835,8.345-0.839c48.116-0.064,96.232-0.002,144.348-0.118c12.64-0.03,26.429,11.358,26.503,24.437
		c0.291,51.446,0.896,102.89,1.053,154.335c0.051,16.773-15.758,27.994-29.216,27.807c-20.046-0.278-40.099-0.068-60.149,0.034
		c-27.15,0.138-54.3,0.379-81.45,0.557c-8.315,0.054-16.148-1.589-22.532-7.335c-5.794-5.215-9.85-11.439-9.858-19.593
		C25.816,166.324,25.831,140.843,25.831,115.362z M220.637,114.703c0-24.662-0.396-49.334,0.171-73.983
		c0.273-11.871-9.984-21.455-21.51-21.373c-48.134,0.343-96.271,0.331-144.407,0.316c-12.515-0.004-21.619,10.164-21.813,22.122
		c-0.368,22.776-0.173,45.562-0.076,68.343c0.042,9.98,0.556,19.957,0.604,29.937c0.049,10.09-0.294,20.181-0.307,30.272
		c-0.007,5.919,0.732,11.866,0.37,17.754c-0.765,12.463,9.34,22.67,21.075,22.41c13.879-0.307,27.762-0.456,41.644-0.505
		c22.469-0.079,44.938-0.021,67.407-0.021c11.831,0,23.689-0.492,35.487,0.136c12.083,0.643,21.794-11.521,21.552-21.425
		C220.233,164.037,220.637,139.365,220.637,114.703z"/>
	<path d="M88.002,191.418c-11.597,0-22.749-0.064-33.899,0.033c-4.126,0.036-3.346-2.813-3.349-5.185
		c-0.026-22.293,0.078-44.587-0.055-66.879c-0.068-11.461-0.692-22.919-0.791-34.381c-0.143-16.617-0.036-33.235-0.036-50.251
		c13.31,0,25.534,0,38.13,0C88.002,86.736,88.002,138.778,88.002,191.418z"/>
	<path d="M117.199,161.394c-0.825,3.644-1.496,6.607-2.241,9.895c-7.323-7.476-14.252-14.55-21.781-22.238
		c7.057-7.412,14.437-15.162,22.57-23.703c0.431,3.701,0.759,6.51,1.148,9.855c19.08,0,38.151,0,57.601,0c0,8.731,0,17.13,0,26.19
		C155.303,161.394,136.108,161.394,117.199,161.394z"/>
	<path d="M153.629,58.65c3.347,3.04,6.285,5.462,8.93,8.17c3.748,3.837,7.417,7.774,10.803,11.927
		c0.772,0.947,0.937,3.558,0.217,4.372c-6.203,7.007-12.674,13.777-19.02,20.57c-0.546-0.311-1.034-0.436-1.061-0.627
		c-1.258-8.834-1.253-9.098-10.133-9.101c-14.778-0.006-29.561,0.189-44.33,0.674c-4.634,0.152-6.347-1.181-6.039-5.856
		c0.327-4.97,0.245-9.986,0.017-14.967c-0.169-3.706,0.62-5.083,4.918-5.046c16.174,0.139,32.354-0.537,48.529-0.416
		c5.213,0.039,7.546-1.332,6.777-6.687C153.132,60.934,153.42,60.149,153.629,58.65z"/>
	<path d="M208.617,190.786c-9.945,0-19.287,0-29.23,0c0-52.581,0-104.706,0-157.308c8.94,0,17.204-0.013,25.468,0.006
		c3.446,0.008,3.816,2.208,3.8,5.037c-0.082,14.648-0.038,29.296-0.038,43.944c0,33.957,0,67.914,0,101.871
		C208.617,186.15,208.617,187.964,208.617,190.786z M183.884,38.565c0,34.543,0,68.592,0.001,102.642
		c0,2.281,0.029,4.562,0.02,6.843c-0.047,11.574-0.194,23.15-0.024,34.721c0.018,1.258,1.782,3.495,2.847,3.564
		c5.56,0.361,11.157,0.168,16.711,0.168c0-49.735,0-98.744,0-147.939C196.854,38.565,190.587,38.565,183.884,38.565z"/>
</g>
</svg>
