<?xml version="1.0" encoding="utf-8"?>
<!-- Generator: Adobe Illustrator 17.0.0, SVG Export Plug-In . SVG Version: 6.00 Build 0)  -->
<!DOCTYPE svg PUBLIC "-//W3C//DTD SVG 1.1//EN" "http://www.w3.org/Graphics/SVG/1.1/DTD/svg11.dtd">
<svg version="1.1" id="Layer_1" xmlns="http://www.w3.org/2000/svg" xmlns:xlink="http://www.w3.org/1999/xlink" x="0px" y="0px"
	 width="540px" height="305.333px" viewBox="0 0 540 305.333" enable-background="new 0 0 540 305.333" xml:space="preserve">
<g>
	<path fill="#C01F1F" d="M211.793,165.719c13.14-21.059,34.429-25.413,56.339-28.418c11.046-1.515,22.146-2.633,33.205-4.058
		c2.453-0.316,4.863-1.078,7.247-1.79c5.729-1.71,10.501-4.598,11.369-11.143c0.936-7.056-0.816-13.345-6.832-17.679
		c-9.722-7.004-20.928-6.798-32.145-6.014c-2.628,0.184-5.238,0.915-7.807,1.583c-10.12,2.629-16.008,9.17-17.238,19.539
		c-0.321,2.705-0.973,3.663-3.805,3.619c-10.496-0.16-20.999-0.208-31.493,0.02c-3.359,0.073-3.708-1.113-3.463-4.019
		c2.226-26.383,16.149-42.229,42.21-47.048c20.636-3.816,41.409-4.497,61.912,0.754c26.068,6.676,39.431,24.195,39.486,51.083
		c0.066,32.329-0.023,64.658,0.044,96.987c0.016,7.627,0.05,15.324,5.424,22.705c-11.324,0-21.739,0-32.153,0
		c-10.511,0-10.507-0.001-12.377-10.227c-0.206-1.124-0.129-2.356-1.333-3.485c-17.029,12.429-36.589,17.045-57.308,16.114
		c-21.395-0.962-38.542-10.437-51.281-29.732c0,8.071-0.191,15.076,0.078,22.063c0.142,3.686-0.599,5.14-4.749,5.023
		c-11.489-0.323-22.996-0.233-34.491-0.034c-3.241,0.056-4.226-0.761-4.143-4.091c0.237-9.493,0.113-18.996,0.053-28.494
		c-0.01-1.549,0.552-3.242-0.55-4.624c-0.988-0.104-1.212,0.621-1.507,1.157c-11.668,21.204-30.119,32.852-53.41,37.11
		c-22.883,4.183-45.209,2.376-65.822-9.348c-24.185-13.755-36.022-35.649-39.398-62.556c-2.593-20.667,0.172-40.612,10.671-58.865
		c15.688-27.276,39.95-40.475,71.01-41.75c18.069-0.742,35.16,2.58,50.129,13.432c12.712,9.215,20.677,21.896,26.008,36.423
		c0.545,1.486,0.633,3.209,2.118,4.403c1.389-1.661,0.745-3.522,0.747-5.204c0.044-35.829,0.129-71.658-0.085-107.485
		c-0.027-4.519,1.227-5.485,5.509-5.36c10.989,0.321,21.999,0.289,32.99,0.01c3.938-0.1,4.945,0.989,4.934,4.926
		c-0.139,50.493-0.092,100.986-0.092,151.48C211.793,163.722,211.793,164.721,211.793,165.719z M107.732,164.09
		c18.161,0,36.327-0.218,54.481,0.139c5.127,0.101,6.15-1.502,5.625-6.149c-0.84-7.446-1.628-14.888-3.205-22.219
		c-7.749-36.018-27.529-55.799-61.52-59.962c-34.25-4.195-67.612,11.048-82.655,43.948c-9.918,21.692-10.537,44.114-3.687,66.712
		c7.024,23.17,22.026,39.336,44.887,47.414c21.98,7.767,44.224,7.286,65.974-1.068c16.71-6.419,28.889-18.032,36.33-34.491
		c1.414-3.127,1.411-4.32-2.574-4.196c-8.156,0.253-16.333,0.272-24.487-0.015c-3.579-0.126-5.824,0.741-7.486,4.081
		c-1.482,2.978-4.08,5.257-6.858,7.151c-15.769,10.75-32.559,12.282-49.623,4.024c-17.208-8.328-23.86-23.593-25.247-41.843
		c-0.272-3.58,1.46-3.571,4.06-3.562C70.409,164.121,89.071,164.09,107.732,164.09z M325.603,216.549
		c0.001,5.709,0.811,11.222,1.846,16.723c0.474,2.523,1.51,3.246,3.94,3.189c5.993-0.141,11.991-0.046,17.988-0.045
		c7.303,0,7.296,0.001,6.531-7.446c-0.102-0.992-0.141-1.995-0.143-2.993c-0.063-34.143-0.086-68.287-0.186-102.43
		c-0.077-26.2-12.336-42.222-37.7-47.823c-20.741-4.58-41.711-4.11-62.338,1.025c-18.475,4.599-29.417,16.575-32.468,35.574
		c-0.47,2.925-0.178,4.166,3.277,4.022c6.817-0.285,13.66-0.246,20.481-0.007c2.839,0.1,3.99-0.706,4.647-3.517
		c2.422-10.373,9.306-16.617,19.291-19.557c9.922-2.921,20.033-2.805,30.166-1.285c4.648,0.698,9.081,2.173,13.076,4.648
		c8.829,5.469,12.493,13.695,11.456,23.781c-0.994,9.669-7.914,14.155-16.413,16.598c-3.814,1.096-7.78,1.748-11.719,2.305
		c-16.12,2.278-32.522,2.645-48.333,7.014c-10.246,2.831-19.812,7.015-26.784,15.452c-18.207,22.031-11.421,55,14.193,69.38
		c25.151,14.12,64.465,8.723,84.959-11.62C322.477,218.436,323.258,216.788,325.603,216.549z M173.793,124.314
		c0,35.814,0.067,71.629-0.097,107.442c-0.017,3.806,0.987,4.737,4.675,4.596c7.818-0.3,15.667-0.356,23.479,0.016
		c4.151,0.198,4.826-1.299,4.817-5.034c-0.118-47.641-0.078-95.282-0.078-142.923c0-23.987-0.09-47.975,0.092-71.961
		c0.029-3.829-1.104-4.822-4.786-4.692c-7.653,0.269-15.333,0.327-22.98-0.018c-4.11-0.185-5.252,0.886-5.229,5.132
		C173.875,52.685,173.793,88.499,173.793,124.314z M111.298,169.294c-17.984,0-35.97,0.086-53.953-0.076
		c-3.406-0.031-4.084,0.867-3.661,4.185c2.775,21.75,20.582,37.009,42.643,35.628c13.146-0.823,24.857-5.009,30.898-18.202
		c0.99-2.162,2.557-1.721,4.118-1.725c10.657-0.029,21.319-0.187,31.97,0.074c3.954,0.097,5.847-0.665,5.354-5.082
		c-0.386-3.454-0.319-7.007-0.01-10.476c0.315-3.54-0.918-4.444-4.405-4.409C146.602,169.39,128.949,169.294,111.298,169.294z"/>
	<path fill="#C01F1F" d="M411.989,85.972c2.684-2.511,4.925-4.895,7.454-6.92c8.478-6.789,18.45-9.901,29.07-10.708
		c44.012-3.345,76.108,20.786,85.12,64.135c5.647,27.165,3.32,53.344-11.485,77.507c-18.766,30.626-56.391,43.646-87.499,30.467
		c-6.339-2.686-12.026-6.366-17.198-10.91c-1-0.878-1.816-2.899-3.585-1.94c-1.563,0.847-0.851,2.711-0.854,4.116
		c-0.043,21.162-0.111,42.324,0.046,63.484c0.027,3.686-0.606,5.163-4.783,5.049c-11.822-0.324-23.659-0.203-35.488-0.051
		c-3.047,0.039-4.296-0.495-4.297-3.984c-0.012-72.641-0.135-145.281-0.345-217.921c-0.01-3.34,0.998-4.163,4.223-4.109
		c11.494,0.191,22.996,0.207,34.489-0.009c3.31-0.062,4.38,0.941,4.18,4.141C410.89,80.698,410.546,83.222,411.989,85.972z
		 M407.759,209.35c2.421,3.275,3.965,5.375,5.521,7.466c7.265,9.765,16.61,16.662,28.209,20.453
		c28.609,9.35,61.083-4.016,77.217-31.96c12.78-22.136,14.973-45.95,9.888-70.519c-7.152-34.56-29.474-57.695-61.218-60.814
		c-22.266-2.188-43.324-0.047-55.308,23.045c-0.862,1.661-2.098,1.269-3.378,1.149c-1.825-0.17-2.484-1.205-2.506-3.023
		c-0.051-4.158-0.478-8.32-0.352-12.468c0.085-2.774-1.012-3.28-3.468-3.244c-8.327,0.122-16.661,0.202-24.983-0.032
		c-3.237-0.091-3.801,1.106-3.796,4.008c0.121,69.124,0.186,138.248,0.123,207.372c-0.003,3.537,1.291,4.046,4.306,3.987
		c8.325-0.163,16.665-0.291,24.98,0.045c4.05,0.163,4.873-1.192,4.85-4.99C407.683,263.527,407.759,237.226,407.759,209.35z"/>
	<path fill="#C01F1F" d="M91.419,143.838c-13.638,0-27.278-0.085-40.914,0.066c-3.047,0.034-3.929-0.739-3.821-3.896
		c0.713-20.815,17.348-38.627,38.2-40.742c5.987-0.607,11.956-0.637,17.873,0.363c14.188,2.398,23.538,10.781,28.954,23.87
		c2.23,5.389,3.522,11.048,4.845,16.708c0.702,3.005-0.367,3.705-3.225,3.682C119.361,143.777,105.39,143.838,91.419,143.838z
		 M90.766,138.414c11.99,0,23.981-0.06,35.97,0.046c2.71,0.024,4.019-0.361,3.119-3.525c-1.876-6.595-4.069-13.025-8.333-18.509
		c-8.652-11.13-20.759-12.858-33.673-12.107c-17.396,1.012-31.268,12.966-34.894,29.809c-0.635,2.95-0.494,4.466,3.342,4.379
		C67.781,138.249,79.275,138.415,90.766,138.414z"/>
	<path fill="#C01F1F" d="M327.026,144.55c-0.405,12.611,0.775,24.258-1.011,35.835c-3.336,21.617-16.405,33.971-38.321,35.764
		c-9.098,0.744-18.264,0.981-27.221-1.732c-11.071-3.353-18.116-10.249-19.442-22.042c-1.291-11.475,4.193-19.437,13.732-25.042
		c6.816-4.005,14.282-6.285,21.996-7.682c8.502-1.54,16.97-3.187,25.352-5.303C310.487,152.233,318.499,149.202,327.026,144.55z
		 M321.735,153.41c-14.182,5.89-28.491,8.731-42.886,11.294c-8.047,1.433-15.855,3.679-22.822,8.217
		c-7.212,4.697-10.736,11.015-9.453,19.84c1.221,8.402,6.194,13.363,13.88,15.964c9.522,3.222,19.284,3.196,29.094,1.721
		c18.922-2.843,28.972-13.215,31.406-31.932C322.011,170.375,321.648,162.244,321.735,153.41z"/>
	<path fill="#C01F1F" d="M497.954,156.618c0.344,10.097-1.105,19.941-4.534,29.437c-6.507,18.022-21.209,28.843-39.495,29.238
		c-22.402,0.484-37.474-8.159-44.973-27.085c-8.638-21.802-8.465-44.069,0.259-65.763c7.298-18.146,21.685-26.743,41.159-26.71
		c19.737,0.034,33.504,9.344,41.48,27.281C496.603,133.702,498.302,144.986,497.954,156.618z M492.792,159.796
		c0.076-15.871-1.859-28.298-8.372-39.555c-7.808-13.496-19.819-19.49-35.309-19.135c-14.92,0.341-26.868,6.331-33.192,19.905
		c-10.668,22.902-10.97,46.481,0.112,69.345c7.054,14.553,20.233,20.02,35.915,19.679c15.36-0.333,27.207-6.67,34.213-20.863
		C491.211,178.939,492.698,167.998,492.792,159.796z"/>
</g>
</svg>
