<?xml version="1.0" encoding="utf-8"?>
<!-- Generator: Adobe Illustrator 17.0.0, SVG Export Plug-In . SVG Version: 6.00 Build 0)  -->
<!DOCTYPE svg PUBLIC "-//W3C//DTD SVG 1.1//EN" "http://www.w3.org/Graphics/SVG/1.1/DTD/svg11.dtd">
<svg version="1.1" id="Layer_1" xmlns="http://www.w3.org/2000/svg" xmlns:xlink="http://www.w3.org/1999/xlink" x="0px" y="0px"
	 width="545.333px" height="307.333px" viewBox="0 0 545.333 307.333" enable-background="new 0 0 545.333 307.333"
	 xml:space="preserve">
<g>
	<path fill="#C01F1F" d="M212.715,166.551c13.14-21.059,34.429-25.413,56.339-28.418c11.046-1.515,22.146-2.633,33.205-4.058
		c2.453-0.316,4.863-1.078,7.247-1.79c5.729-1.71,10.501-4.598,11.369-11.143c0.936-7.056-0.816-13.345-6.832-17.679
		c-9.722-7.004-20.928-6.798-32.145-6.014c-2.628,0.184-5.238,0.915-7.807,1.583c-10.12,2.629-16.008,9.17-17.238,19.539
		c-0.321,2.705-0.973,3.663-3.805,3.619c-10.496-0.16-20.999-0.208-31.493,0.02c-3.359,0.073-3.708-1.113-3.463-4.019
		c2.226-26.383,16.149-42.229,42.21-47.048c20.636-3.816,41.409-4.497,61.912,0.754c26.068,6.676,39.431,24.195,39.486,51.083
		c0.066,32.329-0.023,64.658,0.044,96.987c0.016,7.627,0.05,15.324,5.424,22.705c-11.324,0-21.739,0-32.153,0
		c-10.511,0-10.507-0.001-12.377-10.227c-0.206-1.124-0.129-2.356-1.333-3.485c-17.029,12.429-36.589,17.045-57.308,16.114
		c-21.395-0.962-38.542-10.437-51.281-29.732c0,8.071-0.191,15.076,0.078,22.063c0.142,3.686-0.599,5.14-4.749,5.023
		c-11.489-0.323-22.996-0.233-34.491-0.034c-3.241,0.056-4.226-0.761-4.143-4.091c0.237-9.493,0.113-18.996,0.053-28.494
		c-0.01-1.549,0.552-3.242-0.55-4.624c-0.988-0.104-1.212,0.621-1.507,1.157c-11.668,21.204-30.119,32.852-53.41,37.11
		c-22.883,4.183-45.209,2.376-65.822-9.348c-24.185-13.755-36.022-35.649-39.398-62.556c-2.593-20.667,0.172-40.612,10.671-58.865
		c15.688-27.276,39.95-40.475,71.01-41.75c18.069-0.742,35.16,2.58,50.129,13.432c12.712,9.215,20.677,21.896,26.008,36.423
		c0.545,1.486,0.633,3.209,2.118,4.403c1.389-1.661,0.745-3.522,0.747-5.204c0.044-35.829,0.129-71.658-0.085-107.485
		c-0.027-4.519,1.227-5.485,5.509-5.36c10.989,0.321,21.999,0.289,32.99,0.01c3.938-0.1,4.945,0.989,4.934,4.926
		c-0.139,50.493-0.092,100.986-0.092,151.48C212.715,164.555,212.715,165.553,212.715,166.551z M108.653,164.922
		c18.161,0,36.327-0.218,54.481,0.139c5.127,0.101,6.15-1.502,5.625-6.149c-0.84-7.446-1.628-14.888-3.205-22.219
		c-7.749-36.018-27.529-55.799-61.52-59.962c-34.25-4.195-67.612,11.048-82.655,43.948c-9.918,21.692-10.537,44.114-3.687,66.712
		c7.024,23.17,22.026,39.336,44.887,47.414c21.98,7.767,44.224,7.286,65.974-1.068c16.71-6.419,28.889-18.032,36.33-34.491
		c1.414-3.127,1.411-4.32-2.574-4.196c-8.156,0.253-16.333,0.272-24.487-0.015c-3.579-0.126-5.824,0.741-7.486,4.081
		c-1.482,2.978-4.08,5.257-6.858,7.151c-15.769,10.75-32.559,12.282-49.623,4.024c-17.208-8.328-23.86-23.593-25.247-41.843
		c-0.272-3.58,1.46-3.571,4.06-3.562C71.33,164.953,89.992,164.922,108.653,164.922z M326.524,217.381
		c0.001,5.709,0.811,11.222,1.846,16.723c0.474,2.523,1.51,3.246,3.94,3.189c5.993-0.141,11.991-0.046,17.988-0.045
		c7.303,0,7.296,0.001,6.531-7.446c-0.102-0.992-0.141-1.995-0.143-2.993c-0.063-34.143-0.086-68.287-0.186-102.43
		c-0.077-26.2-12.336-42.222-37.7-47.823c-20.741-4.58-41.711-4.11-62.338,1.025c-18.475,4.599-29.417,16.575-32.468,35.574
		c-0.47,2.925-0.178,4.166,3.277,4.022c6.817-0.285,13.66-0.246,20.481-0.007c2.839,0.1,3.99-0.706,4.647-3.517
		c2.422-10.373,9.306-16.617,19.291-19.557c9.922-2.921,20.033-2.805,30.166-1.285c4.648,0.698,9.081,2.173,13.076,4.648
		c8.829,5.469,12.493,13.695,11.456,23.781c-0.994,9.669-7.914,14.155-16.413,16.598c-3.814,1.096-7.78,1.748-11.719,2.305
		c-16.12,2.278-32.522,2.645-48.333,7.014c-10.246,2.831-19.812,7.015-26.784,15.452c-18.207,22.031-11.421,55,14.193,69.38
		c25.151,14.12,64.465,8.723,84.959-11.62C323.398,219.268,324.179,217.62,326.524,217.381z M174.715,125.146
		c0,35.814,0.067,71.629-0.097,107.442c-0.017,3.806,0.987,4.737,4.675,4.596c7.818-0.3,15.667-0.356,23.479,0.016
		c4.151,0.198,4.826-1.299,4.817-5.034c-0.118-47.641-0.078-95.282-0.078-142.923c0-23.987-0.09-47.975,0.092-71.961
		c0.029-3.829-1.104-4.822-4.786-4.692c-7.653,0.269-15.333,0.327-22.98-0.018c-4.11-0.185-5.252,0.886-5.229,5.132
		C174.796,53.517,174.715,89.332,174.715,125.146z M112.219,170.126c-17.984,0-35.97,0.086-53.953-0.076
		c-3.406-0.031-4.084,0.867-3.661,4.185c2.775,21.75,20.582,37.009,42.643,35.628c13.146-0.823,24.857-5.009,30.898-18.202
		c0.99-2.162,2.557-1.721,4.118-1.725c10.657-0.029,21.319-0.187,31.97,0.074c3.954,0.097,5.847-0.665,5.354-5.082
		c-0.386-3.454-0.319-7.007-0.01-10.476c0.315-3.54-0.918-4.444-4.405-4.409C147.523,170.222,129.87,170.126,112.219,170.126z"/>
	<path fill="#C01F1F" d="M412.91,86.804c2.684-2.511,4.925-4.895,7.454-6.92c8.478-6.789,18.45-9.901,29.07-10.708
		c44.012-3.345,76.108,20.786,85.12,64.135c5.647,27.165,3.32,53.344-11.485,77.507c-18.766,30.626-56.391,43.646-87.499,30.467
		c-6.339-2.686-12.026-6.366-17.198-10.91c-1-0.878-1.816-2.899-3.585-1.94c-1.563,0.847-0.851,2.711-0.854,4.116
		c-0.043,21.162-0.111,42.324,0.046,63.484c0.027,3.686-0.606,5.163-4.783,5.049c-11.822-0.324-23.659-0.203-35.488-0.051
		c-3.047,0.039-4.296-0.495-4.297-3.984c-0.012-72.641-0.135-145.281-0.345-217.921c-0.01-3.34,0.998-4.163,4.223-4.109
		c11.494,0.191,22.996,0.207,34.489-0.009c3.31-0.062,4.38,0.941,4.18,4.141C411.811,81.53,411.467,84.054,412.91,86.804z
		 M408.68,210.182c2.421,3.275,3.965,5.375,5.521,7.466c7.265,9.765,16.61,16.662,28.209,20.453
		c28.609,9.35,61.083-4.016,77.217-31.96c12.78-22.136,14.973-45.95,9.888-70.519c-7.152-34.56-29.474-57.695-61.218-60.814
		c-22.266-2.188-43.324-0.047-55.308,23.045c-0.862,1.661-2.098,1.269-3.378,1.149c-1.825-0.17-2.484-1.205-2.506-3.023
		c-0.051-4.158-0.478-8.32-0.352-12.468c0.085-2.774-1.012-3.28-3.468-3.244c-8.327,0.122-16.661,0.202-24.983-0.032
		c-3.237-0.091-3.801,1.106-3.796,4.008c0.121,69.124,0.186,138.248,0.123,207.372c-0.003,3.537,1.291,4.046,4.306,3.987
		c8.325-0.163,16.665-0.291,24.98,0.045c4.05,0.163,4.873-1.192,4.85-4.99C408.604,264.359,408.68,238.058,408.68,210.182z"/>
	<path fill="#FEFEFE" d="M108.653,164.922c-18.661,0-37.323,0.031-55.984-0.035c-2.599-0.009-4.332-0.018-4.06,3.562
		c1.386,18.25,8.039,33.515,25.247,41.843c17.064,8.258,33.854,6.725,49.623-4.024c2.777-1.893,5.376-4.173,6.858-7.151
		c1.662-3.34,3.907-4.207,7.486-4.081c8.154,0.286,16.331,0.267,24.487,0.015c3.985-0.123,3.988,1.07,2.574,4.196
		c-7.441,16.459-19.62,28.072-36.33,34.491c-21.75,8.355-43.995,8.835-65.974,1.068c-22.861-8.078-37.864-24.245-44.887-47.414
		c-6.85-22.598-6.231-45.02,3.687-66.712c15.043-32.901,48.405-48.144,82.655-43.948c33.99,4.164,53.771,23.944,61.52,59.962
		c1.577,7.33,2.365,14.773,3.205,22.219c0.524,4.647-0.498,6.25-5.625,6.149C144.98,164.704,126.814,164.922,108.653,164.922z
		 M92.34,144.67c13.971,0,27.942-0.061,41.912,0.05c2.858,0.023,3.927-0.677,3.225-3.682c-1.323-5.66-2.615-11.318-4.845-16.708
		c-5.416-13.089-14.766-21.472-28.954-23.87c-5.917-1-11.886-0.97-17.873-0.363c-20.852,2.115-37.487,19.927-38.2,40.742
		c-0.108,3.157,0.774,3.93,3.821,3.896C65.063,144.585,78.702,144.67,92.34,144.67z"/>
	<path fill="#FEFEFE" d="M326.524,217.381c-2.345,0.239-3.126,1.887-4.235,2.987c-20.494,20.342-59.808,25.74-84.959,11.62
		c-25.614-14.38-32.4-47.349-14.193-69.38c6.972-8.437,16.538-12.621,26.784-15.452c15.811-4.368,32.212-4.735,48.333-7.014
		c3.939-0.557,7.906-1.209,11.719-2.305c8.498-2.443,15.418-6.929,16.413-16.598c1.037-10.085-2.627-18.312-11.456-23.781
		c-3.996-2.475-8.428-3.95-13.076-4.648c-10.133-1.521-20.244-1.637-30.166,1.285c-9.986,2.94-16.869,9.184-19.291,19.557
		c-0.656,2.812-1.807,3.617-4.647,3.517c-6.821-0.239-13.664-0.279-20.481,0.007c-3.454,0.145-3.746-1.096-3.277-4.022
		c3.051-18.999,13.993-30.975,32.468-35.574c20.627-5.135,41.596-5.605,62.338-1.025c25.365,5.601,37.624,21.623,37.7,47.823
		c0.1,34.143,0.122,68.287,0.186,102.43c0.002,0.998,0.041,2,0.143,2.993c0.765,7.447,0.771,7.447-6.531,7.446
		c-5.996,0-11.995-0.095-17.988,0.045c-2.43,0.057-3.465-0.666-3.94-3.189C327.336,228.603,326.525,223.09,326.524,217.381z
		 M327.947,145.382c-8.527,4.652-16.539,7.683-24.916,9.798c-8.382,2.116-16.85,3.763-25.352,5.303
		c-7.714,1.398-15.18,3.677-21.996,7.682c-9.538,5.604-15.022,13.567-13.732,25.042c1.326,11.793,8.371,18.688,19.442,22.042
		c8.957,2.713,18.123,2.477,27.221,1.732c21.915-1.793,34.985-14.147,38.321-35.764C328.722,169.64,327.542,157.993,327.947,145.382
		z"/>
	<path fill="#FEFEFE" d="M174.715,125.146c0-35.814,0.081-71.629-0.108-107.442c-0.022-4.247,1.119-5.318,5.229-5.132
		c7.647,0.345,15.327,0.287,22.98,0.018c3.682-0.13,4.815,0.863,4.786,4.692c-0.182,23.986-0.092,47.974-0.092,71.961
		c0,47.641-0.04,95.282,0.078,142.923c0.009,3.735-0.665,5.232-4.817,5.034c-7.811-0.372-15.661-0.316-23.479-0.016
		c-3.689,0.142-4.693-0.79-4.675-4.596C174.781,196.774,174.715,160.96,174.715,125.146z"/>
	<path fill="#FEFEFE" d="M408.68,210.182c0,27.876-0.076,54.177,0.085,80.477c0.023,3.798-0.8,5.153-4.85,4.99
		c-8.315-0.336-16.655-0.207-24.98-0.045c-3.015,0.059-4.309-0.45-4.306-3.987c0.064-69.124-0.002-138.248-0.123-207.372
		c-0.005-2.902,0.559-4.099,3.796-4.008c8.322,0.235,16.656,0.154,24.983,0.032c2.456-0.036,3.553,0.47,3.468,3.244
		c-0.127,4.148,0.301,8.31,0.352,12.468c0.022,1.818,0.681,2.853,2.506,3.023c1.28,0.119,2.516,0.512,3.378-1.149
		c11.984-23.092,33.042-25.233,55.308-23.045c31.744,3.119,54.066,26.253,61.218,60.814c5.085,24.569,2.892,48.383-9.888,70.519
		c-16.134,27.944-48.608,41.31-77.217,31.96c-11.599-3.791-20.944-10.688-28.209-20.453
		C412.646,215.557,411.102,213.458,408.68,210.182z M498.878,157.455c0.345-11.637-1.354-22.921-6.106-33.607
		c-7.976-17.937-21.743-27.248-41.48-27.281c-19.474-0.033-33.862,8.564-41.159,26.71c-8.724,21.694-8.898,43.961-0.259,65.763
		c7.499,18.927,22.571,27.569,44.973,27.085c18.286-0.395,32.988-11.216,39.495-29.238
		C497.77,177.391,499.219,167.547,498.878,157.455z"/>
	<path fill="#C01F1F" d="M92.34,144.67c-13.638,0-27.278-0.085-40.914,0.066c-3.047,0.034-3.929-0.739-3.821-3.896
		c0.713-20.815,17.348-38.627,38.2-40.742c5.987-0.607,11.956-0.637,17.873,0.363c14.188,2.398,23.538,10.781,28.954,23.87
		c2.23,5.389,3.522,11.048,4.845,16.708c0.702,3.005-0.367,3.705-3.225,3.682C120.282,144.609,106.311,144.67,92.34,144.67z
		 M91.687,139.247c11.99,0,23.981-0.06,35.97,0.046c2.71,0.024,4.019-0.361,3.119-3.525c-1.876-6.595-4.069-13.025-8.333-18.509
		c-8.652-11.13-20.759-12.858-33.673-12.107c-17.396,1.012-31.268,12.966-34.894,29.809c-0.635,2.95-0.494,4.466,3.342,4.379
		C68.702,139.081,80.197,139.247,91.687,139.247z"/>
	<path fill="#C01F1F" d="M327.947,145.382c-0.405,12.611,0.775,24.258-1.011,35.835c-3.336,21.617-16.405,33.971-38.321,35.764
		c-9.098,0.744-18.264,0.981-27.221-1.732c-11.071-3.353-18.116-10.249-19.442-22.042c-1.291-11.475,4.193-19.437,13.732-25.042
		c6.816-4.005,14.283-6.285,21.996-7.682c8.502-1.54,16.97-3.187,25.352-5.303C311.408,153.065,319.42,150.034,327.947,145.382z
		 M322.656,154.242c-14.182,5.89-28.491,8.731-42.886,11.294c-8.047,1.433-15.855,3.679-22.822,8.217
		c-7.212,4.697-10.736,11.015-9.453,19.84c1.221,8.402,6.194,13.363,13.88,15.964c9.522,3.222,19.284,3.196,29.094,1.721
		c18.922-2.843,28.972-13.215,31.406-31.932C322.932,171.207,322.569,163.076,322.656,154.242z"/>
	<path fill="#C01F1F" d="M498.875,157.45c0.344,10.097-1.105,19.941-4.534,29.437c-6.507,18.022-21.209,28.843-39.495,29.238
		c-22.402,0.484-37.474-8.159-44.973-27.085c-8.638-21.802-8.465-44.069,0.259-65.763c7.298-18.146,21.685-26.743,41.159-26.71
		c19.737,0.034,33.504,9.344,41.48,27.281C497.524,134.534,499.223,145.818,498.875,157.45z M493.713,160.628
		c0.076-15.871-1.859-28.298-8.372-39.555c-7.808-13.496-19.819-19.49-35.309-19.135c-14.92,0.341-26.868,6.331-33.192,19.905
		c-10.668,22.902-10.97,46.481,0.112,69.345c7.054,14.553,20.233,20.02,35.915,19.679c15.36-0.333,27.207-6.67,34.213-20.863
		C492.132,179.771,493.619,168.83,493.713,160.628z"/>
</g>
</svg>
