<?xml version="1.0" encoding="utf-8"?>
<!-- Generator: Adobe Illustrator 17.0.0, SVG Export Plug-In . SVG Version: 6.00 Build 0)  -->
<!DOCTYPE svg PUBLIC "-//W3C//DTD SVG 1.1//EN" "http://www.w3.org/Graphics/SVG/1.1/DTD/svg11.dtd">
<svg version="1.1" id="Layer_1" xmlns="http://www.w3.org/2000/svg" xmlns:xlink="http://www.w3.org/1999/xlink" x="0px" y="0px"
	 width="199px" height="112.333px" viewBox="0 0 199 112.333" enable-background="new 0 0 199 112.333" xml:space="preserve">
<path fill="#1FA7E0" d="M38.489,91.87c9.06,0,18.121,0.061,27.178-0.019c6.475-0.057,10.792-3.325,11.942-8.789
	c1.572-7.473-0.705-13.205-6.277-15.752c-2.844-1.301-5.885-0.768-8.84-0.794c-8.77-0.077-17.541,0.003-26.311-0.016
	c-6.746-0.013-13.17-1.307-19.1-4.725c-6.357-3.663-10.849-8.917-13.049-15.864C1.02,36.392,1.116,26.875,5.952,17.92
	C9.95,10.517,16.418,6.108,24.49,3.813c4.635-1.317,9.322-1.227,14.027-1.237c11.372-0.022,22.747,0.077,34.118-0.038
	c2.589-0.026,3.379,0.832,3.28,3.335c-0.163,4.138-0.057,8.286-0.038,12.43c0.019,3.886,0.003,3.918-3.784,3.921
	c-12.723,0.01-25.444-0.013-38.167,0.035c-7.326,0.029-12.357,5.174-12.268,12.417c0.089,7.151,4.938,11.997,12.28,12.073
	c11.082,0.115,22.17,0.016,33.251,0.204c9.003,0.153,16.986,3.048,23.289,9.752c3.944,4.195,6.153,9.201,6.867,14.923
	c0.858,6.854,0.883,13.638-1.25,20.295c-3.029,9.468-9.966,14.71-19.09,17.525c-5.687,1.757-11.573,1.824-17.451,1.827
	c-14.649,0.01-29.301,0.003-43.95-0.003c-1.253,0-2.515,0.035-3.756-0.105c-3.631-0.411-4.38-1.301-4.368-4.932
	c0.013-3.567-0.003-7.132,0.013-10.699c0.016-3.545,0.147-3.682,3.81-3.685c9.06-0.013,18.121-0.003,27.181-0.003
	C38.489,91.854,38.489,91.863,38.489,91.87z"/>
<path fill="#1FA7E0" d="M132.511,66.825c0,13.587-0.061,27.178,0.051,40.765c0.022,2.735-0.778,3.842-3.596,3.736
	c-4.234-0.159-8.483-0.124-12.717,0.003c-2.573,0.077-3.287-1.011-3.28-3.469c0.054-27.369-0.013-54.739,0.07-82.108
	c0.01-2.895-1.068-3.615-3.749-3.571c-7.996,0.128-15.998-0.038-23.996,0.086c-2.595,0.038-3.66-0.743-3.551-3.456
	c0.169-4.234,0.143-8.483-0.006-12.717c-0.089-2.547,0.65-3.567,3.405-3.558c25.345,0.083,50.693,0.061,76.038-0.003
	c2.343-0.006,3.306,0.727,3.233,3.153c-0.14,4.524-0.153,9.06-0.026,13.584c0.064,2.286-0.768,3.051-3.016,3.025
	c-8.385-0.096-16.769,0.032-25.15-0.115c-2.923-0.051-3.775,0.969-3.743,3.877c0.143,13.587,0.064,27.178,0.064,40.765
	C132.527,66.825,132.517,66.825,132.511,66.825z"/>
<path fill="#1FA7E0" d="M170.276,56.68c0-16.871,0.051-33.742-0.054-50.613c-0.016-2.611,0.673-3.625,3.392-3.51
	c4.329,0.179,8.684,0.198,13.01-0.041c3.076-0.172,3.405,1.323,3.398,3.829c-0.057,31.813-0.045,63.63-0.045,95.443
	c0,2.315-0.038,4.629,0.022,6.94c0.051,1.862-0.822,2.598-2.624,2.582c-4.725-0.045-9.449-0.124-14.171-0.006
	c-2.605,0.064-2.955-1.259-2.949-3.43c0.057-17.062,0.032-34.128,0.032-51.193C170.286,56.68,170.282,56.68,170.276,56.68z"/>
</svg>
