<?xml version="1.0" encoding="utf-8"?>
<!-- Generator: Adobe Illustrator 17.0.0, SVG Export Plug-In . SVG Version: 6.00 Build 0)  -->
<!DOCTYPE svg PUBLIC "-//W3C//DTD SVG 1.1//EN" "http://www.w3.org/Graphics/SVG/1.1/DTD/svg11.dtd">
<svg version="1.1" id="Layer_1" xmlns="http://www.w3.org/2000/svg" xmlns:xlink="http://www.w3.org/1999/xlink" x="0px" y="0px"
	 width="500px" height="500px" viewBox="0 0 500 500" enable-background="new 0 0 500 500" xml:space="preserve">
<path fill="#020F39" d="M183.578,466.055c-6.351,0.953-11.188-1.736-16.114-3.542c-35.514-13.02-64.279-34.405-83.36-67.706
	c-2.16-3.77-3.812-7.456-3.906-12.032c-1.363-66.328-2.958-132.651-4.316-198.98c-0.351-17.14,4.509-24.156,20.453-29.989
	c25.902-9.476,52.019-18.374,77.802-28.159c7.051-2.676,10.392-1.038,13.501,5.217c4.304,8.659,8.827,17.28,14.103,25.364
	c4.874,7.468,4.49,11.091-4.773,14.37c-21.605,7.647-42.722,16.663-64.201,24.686c-5.996,2.24-8.162,5.465-8.138,11.838
	c0.205,54.559,0.159,109.12,0.055,163.679c-0.011,5.575,1.527,10.624,3.636,15.576c12.35,28.99,27.577,55.982,52.966,75.895
	C182.252,463.03,182.661,464.497,183.578,466.055z"/>
<path fill="#020F39" d="M317.489,465.539c12.493-11.715,23.642-24.04,32.87-38.141c9.067-13.855,16.422-28.52,22.647-43.816
	c1.923-4.725,2.756-9.505,2.747-14.629c-0.094-53.073-0.267-106.148,0.149-159.218c0.069-8.779-3.131-12.667-11.007-15.534
	c-21.518-7.833-42.685-16.627-64.14-24.643c-6.018-2.248-7.906-4.213-3.952-10.395c5.969-9.334,11.324-19.121,16.177-29.086
	c3.119-6.405,6.73-6.753,12.843-4.489c25.505,9.447,51.224,18.315,76.771,27.653c17.407,6.362,22.345,13.374,21.972,32.388
	c-1.16,59.104-4.206,118.223-3.441,177.296c0.515,39.834-24.568,60.613-51.529,81.025
	C354.479,455.394,336.777,462.402,317.489,465.539z"/>
<path fill="#020F39" d="M250.749,82.912c11.813,0,23.643,0.375,35.433-0.148c6.556-0.291,9.752,2.5,13.731,7.483
	c10.569,13.238,10.98,25.185,0.742,38.946c-6.983,9.386-11.997,20.296-17.387,30.784c-2.737,5.325-5.82,8.032-12.308,7.777
	c-13.939-0.549-27.921-0.408-41.873-0.052c-5.706,0.146-9.029-1.565-11.77-6.822c-7.6-14.575-15.612-28.954-24.01-43.085
	c-3.369-5.669-2.347-9.81,0.053-15.635c6.463-15.683,16.824-22.193,33.799-19.458C234.832,83.939,242.873,82.912,250.749,82.912z
	 M279.13,115.789c-5.678,0.791-9.92,3.84-10.217,9.988c-0.297,6.15,3.512,10.337,9.546,10.646
	c6.056,0.311,10.183-3.551,10.544-9.655C289.373,120.536,285.275,117.242,279.13,115.789z M220.88,115.765
	c-5.36,1.027-9.468,3.75-9.499,10.279c-0.031,6.335,3.439,10.414,9.596,10.41c5.878-0.003,10.027-3.462,10.21-9.954
	C231.371,119.922,227.166,117.172,220.88,115.765z"/>
<path fill="#020F39" d="M250.835,70.637c-7.495,0.01-14.99,0.013-22.486,0.009c-7.234-0.003-10.26-3.649-7.189-10.207
	c3.77-8.05,8.421-15.704,12.946-23.379c3.049-5.172,8.411-3.084,12.69-2.883c6.195,0.292,14.11-3.384,18.283,2.121
	c6.173,8.145,10.851,17.614,14.95,27.048c1.711,3.937-1.821,7.257-6.709,7.274C265.825,70.646,258.33,70.627,250.835,70.637z"/>
<path fill="#E7C222" d="M153.326,309.116c13.281,8.26,25.931,16.14,38.593,23.999c6.719,4.17,13.225,8.78,20.283,12.268
	c4.096,2.025,9.083,2.992,13.694,3.076c9.024,0.164,18.064-0.659,27.1-1.007c11.067-0.426,19.426,6.837,19.788,17.116
	c0.36,10.218-7.204,17.949-18.224,18.486c-12.293,0.599-24.587,1.222-36.888,1.594c-10.253,0.31-18.417-3.464-24.108-12.47
	c-12.547-19.853-25.35-39.544-38.04-59.307C154.864,311.845,154.287,310.765,153.326,309.116z"/>
<path fill="#E7C222" d="M281.682,412.824c0.328-11.17,0.64-21.904,0.96-32.638c0.348-11.661,0.688-23.322,1.061-34.982
	c0.175-5.458-1.353-10.393-4.289-14.963c-4.885-7.604-9.749-15.223-14.564-22.872c-4.567-7.254-4.306-15.194,0.61-21.449
	c4.642-5.906,12.253-8.361,19.996-5.368c3.386,1.309,6.78,4.064,8.841,7.073c7.372,10.766,14.38,21.798,21.121,32.973
	c4.644,7.699,5.971,15.941,1.439,24.365c-0.892,1.658-1.643,3.392-2.512,5.063C303.57,370.756,292.785,391.481,281.682,412.824z"/>
<path fill="#E7C222" d="M305.229,250.403c-13.244,7.137-26.486,14.277-39.732,21.41c-6.081,3.275-12.138,6.598-18.265,9.784
	c-5.191,2.7-9.038,6.635-11.714,11.811c-4.328,8.371-8.625,16.761-13.105,25.051c-4.059,7.512-13.191,11.021-20.942,8.288
	c-8.596-3.031-13.658-11.484-11.915-20.201c0.386-1.93,1.253-3.812,2.163-5.58c5.75-11.173,11.548-22.322,17.381-33.451
	c4.83-9.215,12.273-14.076,22.889-14.481c23.704-0.904,47.396-2.137,71.094-3.234c0.616-0.029,1.234-0.03,1.85-0.044
	C305.032,249.972,305.131,250.188,305.229,250.403z"/>
</svg>
