<?xml version="1.0" encoding="utf-8"?>
<!-- Generator: Adobe Illustrator 17.0.0, SVG Export Plug-In . SVG Version: 6.00 Build 0)  -->
<!DOCTYPE svg PUBLIC "-//W3C//DTD SVG 1.1//EN" "http://www.w3.org/Graphics/SVG/1.1/DTD/svg11.dtd">
<svg version="1.1"
	 id="svg2" xmlns:sodipodi="http://sodipodi.sourceforge.net/DTD/sodipodi-0.dtd" xmlns:inkscape="http://www.inkscape.org/namespaces/inkscape" xmlns:dc="http://purl.org/dc/elements/1.1/" xmlns:svg="http://www.w3.org/2000/svg" xmlns:cc="http://creativecommons.org/ns#" xmlns:rdf="http://www.w3.org/1999/02/22-rdf-syntax-ns#" sodipodi:docname="04_fondo_cierre_blanco.svg" inkscape:export-xdpi="90" inkscape:export-filename="/home/david/Desktop/PARA/Para Ignacio/Modelos_v2/SVG/04_fondo_cierre_blanco.png" inkscape:export-ydpi="90" inkscape:version="0.47 r22583"
	 xmlns="http://www.w3.org/2000/svg" xmlns:xlink="http://www.w3.org/1999/xlink" x="0px" y="0px" width="1024px" height="254px"
	 viewBox="0 489.5 1024 254" enable-background="new 0 489.5 1024 254" xml:space="preserve">
<defs>
	
	
		<inkscape:perspective  inkscape:vp_z="744.09448 : 526.18109 : 1" inkscape:vp_x="0 : 526.18109 : 1" inkscape:vp_y="0 : 1000 : 0" id="perspective10" sodipodi:type="inkscape:persp3d" inkscape:persp3d-origin="372.04724 : 350.78739 : 1">
		</inkscape:perspective>
	
		<inkscape:perspective  inkscape:vp_z="1 : 0.5 : 1" inkscape:vp_x="0 : 0.5 : 1" inkscape:vp_y="0 : 1000 : 0" id="perspective2824" sodipodi:type="inkscape:persp3d" inkscape:persp3d-origin="0.5 : 0.33333333 : 1">
		</inkscape:perspective>
	
		<inkscape:perspective  inkscape:vp_z="1 : 0.5 : 1" inkscape:vp_x="0 : 0.5 : 1" inkscape:vp_y="0 : 1000 : 0" id="perspective2859" sodipodi:type="inkscape:persp3d" inkscape:persp3d-origin="0.5 : 0.33333333 : 1">
		</inkscape:perspective>
	
		<inkscape:perspective  inkscape:vp_z="1 : 0.5 : 1" inkscape:vp_x="0 : 0.5 : 1" inkscape:vp_y="0 : 1000 : 0" id="perspective3371" sodipodi:type="inkscape:persp3d" inkscape:persp3d-origin="0.5 : 0.33333333 : 1">
		</inkscape:perspective>
	
		<inkscape:perspective  inkscape:vp_z="1 : 0.5 : 1" inkscape:vp_x="0 : 0.5 : 1" inkscape:vp_y="0 : 1000 : 0" id="perspective2880" sodipodi:type="inkscape:persp3d" inkscape:persp3d-origin="0.5 : 0.33333333 : 1">
		</inkscape:perspective>
	
		<inkscape:perspective  inkscape:vp_z="1 : 0.5 : 1" inkscape:vp_x="0 : 0.5 : 1" inkscape:vp_y="0 : 1000 : 0" id="perspective2903" sodipodi:type="inkscape:persp3d" inkscape:persp3d-origin="0.5 : 0.33333333 : 1">
		</inkscape:perspective>
	
		<inkscape:perspective  inkscape:vp_z="1 : 0.5 : 1" inkscape:vp_x="0 : 0.5 : 1" inkscape:vp_y="0 : 1000 : 0" id="perspective3735" sodipodi:type="inkscape:persp3d" inkscape:persp3d-origin="0.5 : 0.33333333 : 1">
		</inkscape:perspective>
	
		<inkscape:perspective  inkscape:vp_z="1 : 0.5 : 1" inkscape:vp_x="0 : 0.5 : 1" inkscape:vp_y="0 : 1000 : 0" id="perspective3776" sodipodi:type="inkscape:persp3d" inkscape:persp3d-origin="0.5 : 0.33333333 : 1">
		</inkscape:perspective>
	
		<inkscape:perspective  inkscape:vp_z="1 : 0.5 : 1" inkscape:vp_x="0 : 0.5 : 1" inkscape:vp_y="0 : 1000 : 0" id="perspective3806" sodipodi:type="inkscape:persp3d" inkscape:persp3d-origin="0.5 : 0.33333333 : 1">
		</inkscape:perspective>
	
		<inkscape:perspective  inkscape:vp_z="1 : 0.5 : 1" inkscape:vp_x="0 : 0.5 : 1" inkscape:vp_y="0 : 1000 : 0" id="perspective2950" sodipodi:type="inkscape:persp3d" inkscape:persp3d-origin="0.5 : 0.33333333 : 1">
		</inkscape:perspective>
</defs>
<sodipodi:namedview  width="1024px" bordercolor="#666666" showgrid="false" inkscape:zoom="0.55670825" id="base" pagecolor="#ffffff" inkscape:cy="364.26833" borderopacity="1.0" inkscape:cx="588.49889" inkscape:pageshadow="2" inkscape:pageopacity="0.0" inkscape:window-width="1366" inkscape:window-maximized="1" inkscape:current-layer="layer1" inkscape:window-y="25" inkscape:document-units="px" inkscape:window-height="696" inkscape:window-x="0">
	</sodipodi:namedview>
<g id="layer1" transform="translate(0,-284.36204)" inkscape:label="Layer 1" inkscape:groupmode="layer">
	<g id="g3660" transform="matrix(1.805135,0,0,1.805135,-824.45824,-855.2935)">
		<g id="g2826" transform="matrix(1.1461073,0,0,-1.1461073,756.59488,1059.0536)" inkscape:label="logo_dc_color">
			<path id="path2828" fill="#BAE3D9" d="M63.688,91.523c0.856,0,1.712-0.428,2.183-1.241c0.214-0.385,0.3-0.77,0.342-1.198v-0.086
				c-0.043-0.813-0.471-1.626-1.241-2.054c-0.385-0.257-0.856-0.342-1.284-0.342L63.688,91.523z M63.688,95.973v4.921
				c0.856,0,1.669-0.428,2.14-1.241c0.685-1.155,0.3-2.653-0.898-3.338C64.544,96.059,64.116,95.973,63.688,95.973z M63.688,105.302
				v4.921c0.856,0,1.669-0.471,2.14-1.241c0.685-1.155,0.257-2.696-0.898-3.381C64.544,105.388,64.116,105.302,63.688,105.302z
				 M62.918,91.395c0.257,0.086,0.514,0.128,0.77,0.128v-4.921c-0.813,0-1.626,0.428-2.097,1.198
				c-0.129,0.257-0.214,0.556-0.3,0.813c-0.3,0.899-0.941,1.712-1.669,2.225v1.327c0.128-0.086,0.214-0.171,0.342-0.257
				C60.821,91.352,61.848,91.095,62.918,91.395z M63.688,110.223v-4.921c-0.856,0-1.669,0.428-2.14,1.198
				c-0.685,1.198-0.257,2.696,0.899,3.381C62.832,110.095,63.26,110.223,63.688,110.223z M63.688,100.894v-4.921
				c-0.856,0-1.669,0.428-2.097,1.241c-0.171,0.257-0.257,0.514-0.3,0.77c-0.342,0.899-0.984,1.669-1.669,2.225v1.327
				c0.086-0.086,0.214-0.171,0.3-0.214c0.899-0.599,1.883-0.813,2.953-0.556C63.132,100.852,63.431,100.894,63.688,100.894
				L63.688,100.894z M59.623,90.838c-0.086,0.086-0.171,0.129-0.257,0.171c-0.727,0.513-1.754,0.685-2.696,0.513
				c-0.3-0.128-0.599-0.214-0.898-0.257l0,0h-0.043l0,0c-0.898-0.043-1.797,0.385-2.311,1.241c-0.171,0.3-0.257,0.599-0.3,0.899
				c-0.3,0.813-0.899,1.498-1.498,2.011v1.327c0.043-0.043,0.129-0.086,0.214-0.128c0.856-0.556,1.84-0.813,2.91-0.556
				c0.214,0.043,0.385,0.086,0.599,0.129l0.043,0l0,0c0.899,0.086,1.84-0.385,2.354-1.198c0.043-0.128,0.128-0.257,0.171-0.385
				c0.043-0.086,0.043-0.171,0.086-0.257c0.342-0.941,0.898-1.626,1.626-2.182L59.623,90.838L59.623,90.838z M59.623,101.536v-1.327
				c-0.086,0.086-0.171,0.128-0.3,0.171c-0.727,0.514-1.797,0.685-2.739,0.514c-1.155-0.556-2.525-0.128-3.167,0.984
				c-0.685,1.156-0.3,2.696,0.899,3.338c1.155,0.685,2.653,0.3,3.338-0.856c0.043-0.086,0.086-0.171,0.128-0.214
				c0.086-0.129,0.129-0.257,0.171-0.428C58.339,102.777,58.896,102.093,59.623,101.536z M51.621,86.26v1.327
				c0.086-0.086,0.214-0.171,0.3-0.257c0.856-0.556,1.883-0.813,2.952-0.514c1.113,0.385,2.354-0.086,2.953-1.113
				c0.685-1.155,0.257-2.696-0.899-3.338c-1.155-0.685-2.696-0.3-3.381,0.856c-0.129,0.257-0.214,0.556-0.3,0.813
				C52.947,84.933,52.306,85.703,51.621,86.26z M51.621,95.417c-0.128,0.128-0.257,0.214-0.385,0.3
				c-0.77,0.471-1.797,0.642-2.739,0.471c-0.3-0.129-0.599-0.214-0.899-0.214v4.878c0.77-0.043,1.541-0.471,1.968-1.198
				c0.043-0.086,0.043-0.171,0.086-0.214c0.086-0.129,0.171-0.257,0.214-0.428c0.385-0.984,0.941-1.669,1.754-2.268L51.621,95.417
				L51.621,95.417z M51.621,87.586V86.26c-0.128,0.043-0.214,0.128-0.3,0.171c-0.77,0.513-1.797,0.685-2.739,0.513
				c-0.3-0.171-0.642-0.257-0.984-0.257v4.921c0.813-0.043,1.626-0.471,2.054-1.241c0.043-0.043,0.086-0.129,0.086-0.214
				c0.086-0.086,0.171-0.214,0.214-0.385C50.337,88.827,50.851,88.142,51.621,87.586z M47.598,77.273v4.921
				c0.856,0,1.669-0.471,2.14-1.241c0.685-1.156,0.257-2.696-0.898-3.381C48.454,77.359,48.026,77.273,47.598,77.273z
				 M47.598,95.973c-0.898-0.086-1.797,0.342-2.311,1.198c-0.214,0.385-0.3,0.813-0.342,1.198v0.043
				c0.043,0.856,0.471,1.669,1.241,2.14c0.428,0.257,0.941,0.342,1.412,0.3L47.598,95.973z M47.598,91.609v-4.921
				c-0.856-0.043-1.754,0.428-2.225,1.241c-0.642,1.155-0.257,2.653,0.899,3.338C46.7,91.523,47.171,91.609,47.598,91.609z
				 M47.598,82.194v-4.921c-0.856,0-1.669,0.428-2.14,1.198c-0.642,1.198-0.257,2.696,0.899,3.381
				C46.743,82.066,47.171,82.194,47.598,82.194"/>
			<path id="path2830" fill="#3699AB" d="M89.877,94.133v-0.086c-0.043-0.856-0.471-1.626-1.241-2.097
				c-0.385-0.214-0.856-0.342-1.284-0.342v4.921c0.856,0.043,1.712-0.428,2.182-1.198C89.748,94.946,89.834,94.518,89.877,94.133
				L89.877,94.133z M87.352,101.023v4.921c0.856,0,1.669-0.471,2.14-1.241c0.685-1.155,0.3-2.696-0.899-3.381
				C88.208,101.108,87.78,100.98,87.352,101.023L87.352,101.023z M87.352,110.309v4.921c0.856,0,1.669-0.428,2.14-1.198
				c0.685-1.198,0.257-2.696-0.899-3.381C88.208,110.437,87.78,110.309,87.352,110.309L87.352,110.309z M78.537,91.823
				c1.113,0.385,2.354-0.043,2.952-1.07c0.685-1.198,0.257-2.696-0.898-3.381c-1.156-0.685-2.696-0.257-3.381,0.899
				c-0.128,0.257-0.214,0.514-0.3,0.813c-0.342,0.984-1.113,1.84-1.926,2.396c-0.77,0.514-1.797,0.685-2.739,0.471
				c-0.3-0.128-0.642-0.214-0.984-0.214v4.921c0.813-0.043,1.626-0.471,2.054-1.241c0.043-0.086,0.086-0.129,0.128-0.214
				c0.043-0.128,0.129-0.257,0.171-0.428c0.428-1.07,1.07-1.797,1.968-2.396C76.44,91.822,77.467,91.566,78.537,91.823
				L78.537,91.823z M87.352,115.23v-4.921c-0.856,0-1.669,0.471-2.14,1.241c-0.685,1.155-0.257,2.696,0.898,3.338
				C86.496,115.144,86.924,115.23,87.352,115.23z M87.352,105.944c-0.257,0-0.514-0.086-0.813-0.171
				c-1.07-0.257-2.054,0-2.952,0.556c-0.899,0.599-1.541,1.369-1.926,2.439c-0.086,0.129-0.128,0.257-0.214,0.385
				c-0.043,0.086-0.086,0.171-0.129,0.214c-0.685,1.198-2.182,1.583-3.338,0.899c-1.198-0.685-1.583-2.182-0.898-3.381
				c0.642-1.113,2.011-1.498,3.167-0.984c0.941,0.214,2.011,0.043,2.739-0.471c0.813-0.514,1.583-1.412,1.968-2.396
				c0.043-0.257,0.128-0.556,0.3-0.813c0.428-0.77,1.241-1.198,2.097-1.198L87.352,105.944L87.352,105.944z M87.352,96.53
				c-0.257,0-0.514-0.043-0.77-0.128c-1.07-0.257-2.054,0-2.953,0.556c-0.898,0.599-1.541,1.327-1.968,2.396
				c0,0.129-0.043,0.214-0.086,0.3c-0.043,0.086-0.128,0.214-0.171,0.342c-0.513,0.856-1.455,1.284-2.354,1.198l0,0c0,0,0,0-0.043,0
				c-0.214,0-0.385-0.043-0.599-0.129c-1.07-0.257-2.054,0-2.91,0.556c-0.898,0.599-1.541,1.369-1.968,2.439
				c-0.043,0.129-0.128,0.3-0.214,0.385c0,0.086-0.043,0.171-0.086,0.214c-0.428,0.727-1.156,1.155-1.968,1.241v-4.921
				c0.3,0.043,0.599,0.086,0.898,0.214c0.941,0.214,1.968,0.043,2.739-0.471s1.541-1.327,1.883-2.268
				c0.043-0.342,0.171-0.642,0.342-0.941c0.471-0.813,1.369-1.284,2.268-1.198l0,0c0.043,0,0.043,0,0.043,0l0,0
				c0.3,0,0.599,0.086,0.899,0.214c0.941,0.171,1.968,0,2.696-0.471c0.813-0.556,1.583-1.412,1.968-2.396
				c0.043-0.3,0.129-0.556,0.257-0.813c0.471-0.77,1.284-1.198,2.097-1.241L87.352,96.53L87.352,96.53z M71.262,63.623v4.878
				c0.77-0.086,1.455-0.471,1.883-1.198c0.642-1.155,0.257-2.653-0.899-3.338C71.947,63.794,71.605,63.666,71.262,63.623z
				 M71.262,72.994v4.921c0.727-0.128,1.412-0.556,1.84-1.241c0.685-1.156,0.257-2.653-0.898-3.338
				C71.904,73.165,71.605,73.037,71.262,72.994z M71.262,82.28c0.428,0,0.856,0.129,1.241,0.342
				c1.198,0.685,1.583,2.183,0.899,3.381c-0.471,0.77-1.284,1.198-2.14,1.198L71.262,82.28z M71.262,91.737
				c-0.856-0.043-1.754,0.385-2.225,1.198c-0.642,1.198-0.257,2.696,0.898,3.381c0.428,0.214,0.899,0.342,1.327,0.342V91.737z
				 M71.262,105.901v-4.921c-0.899-0.043-1.797,0.385-2.311,1.241c-0.685,1.155-0.257,2.653,0.898,3.338
				C70.321,105.815,70.792,105.944,71.262,105.901z M71.262,87.201V82.28c-0.856,0-1.669,0.428-2.097,1.241
				c-0.685,1.156-0.3,2.653,0.856,3.338C70.406,87.115,70.834,87.201,71.262,87.201z M71.262,77.915
				c-0.342,0.043-0.727,0-1.113-0.128c-1.07-0.257-2.097-0.043-2.953,0.556c-0.898,0.599-1.54,1.327-1.968,2.396
				c-0.043,0.171-0.128,0.3-0.214,0.428c0,0.043-0.043,0.128-0.086,0.214c-0.685,1.156-2.183,1.541-3.381,0.899
				c-1.155-0.685-1.583-2.225-0.898-3.381c0.642-1.113,2.054-1.54,3.209-0.984c0.941,0.171,1.968,0,2.739-0.514
				c0.813-0.513,1.583-1.369,1.926-2.396c0.043-0.257,0.171-0.514,0.3-0.77c0.513-0.899,1.498-1.327,2.439-1.241L71.262,77.915z
				 M71.262,68.501v-4.878c-0.941-0.086-1.883,0.342-2.396,1.198c-0.129,0.257-0.257,0.556-0.3,0.813
				c-0.342,0.984-1.113,1.883-1.925,2.396c-0.77,0.513-1.797,0.685-2.739,0.513c-0.257-0.129-0.556-0.214-0.856-0.257l0,0l-0.043,0
				l0,0c-0.898-0.043-1.84,0.385-2.311,1.241c-0.171,0.3-0.257,0.599-0.3,0.898c-0.385,0.941-1.113,1.797-1.883,2.311
				c-0.77,0.471-1.797,0.642-2.781,0.471c-0.257-0.129-0.556-0.214-0.856-0.214v4.878c0.77-0.043,1.541-0.471,1.926-1.198
				c0.043-0.086,0.086-0.171,0.128-0.214c0.086-0.128,0.129-0.257,0.214-0.428c0.385-1.07,1.027-1.797,1.968-2.396
				c0.856-0.556,1.84-0.813,2.867-0.556c0.214,0.043,0.428,0.086,0.642,0.128l0,0l0.043,0c0.899,0.086,1.84-0.385,2.311-1.198
				c0.086-0.128,0.129-0.257,0.171-0.385c0.043-0.086,0.086-0.171,0.129-0.257c0.385-1.07,1.07-1.84,1.968-2.439
				c0.856-0.556,1.883-0.77,2.952-0.513C70.535,68.544,70.92,68.544,71.262,68.501L71.262,68.501z M54.873,54.294v4.921
				c0.856,0,1.669-0.471,2.14-1.241c0.685-1.155,0.257-2.696-0.898-3.381C55.729,54.38,55.301,54.294,54.873,54.294z M54.873,63.708
				c0.342,0,0.642,0.086,0.941,0.257c0.984,0.171,2.011,0,2.781-0.514c0.813-0.514,1.583-1.412,1.925-2.396
				c0.043-0.257,0.171-0.556,0.3-0.813c0.685-1.155,2.182-1.541,3.381-0.856c1.156,0.685,1.54,2.182,0.856,3.338
				c-0.599,1.027-1.84,1.498-2.91,1.113c-1.07-0.3-2.097-0.043-2.952,0.514c-0.899,0.599-1.583,1.369-1.968,2.439
				c-0.043,0.171-0.129,0.3-0.214,0.428c-0.043,0.043-0.043,0.128-0.086,0.171c-0.471,0.77-1.241,1.198-2.054,1.241L54.873,63.708
				L54.873,63.708z M54.873,77.872v-4.878c-0.898-0.086-1.84,0.342-2.311,1.198c-0.214,0.385-0.342,0.813-0.342,1.198v0.043
				c0,0.856,0.471,1.669,1.241,2.14C53.889,77.83,54.402,77.915,54.873,77.872z M54.873,68.629v-4.921
				c-0.898-0.043-1.754,0.428-2.225,1.241c-0.685,1.156-0.257,2.653,0.899,3.338C53.974,68.544,54.402,68.629,54.873,68.629z
				 M54.873,59.215v-4.921c-0.856,0-1.669,0.428-2.14,1.198c-0.685,1.198-0.257,2.696,0.899,3.381
				C54.017,59.087,54.445,59.215,54.873,59.215"/>
			<path id="path2832" fill="#BAE3D9" d="M94.199,73.336c0.813-0.043,1.583-0.471,2.011-1.198c0.685-1.198,0.3-2.696-0.898-3.381
				c-0.342-0.214-0.727-0.3-1.113-0.342L94.199,73.336L94.199,73.336z M96.852,89.597v-0.086c-0.043-0.813-0.471-1.626-1.241-2.097
				c-0.428-0.214-0.941-0.342-1.412-0.3v4.921c0.941,0.043,1.84-0.385,2.311-1.241C96.723,90.41,96.809,90.025,96.852,89.597z
				 M94.199,77.83v4.878c0.813-0.043,1.583-0.471,2.011-1.198c0.642-1.155,0.257-2.696-0.898-3.381
				C94.969,77.958,94.584,77.83,94.199,77.83L94.199,77.83z M93.3,73.208c0.3,0.129,0.599,0.171,0.899,0.129v-4.921
				c-0.856,0-1.754,0.428-2.225,1.241c-0.171,0.257-0.257,0.513-0.3,0.813c-0.3,0.899-0.984,1.669-1.712,2.225v1.327
				c0.129-0.086,0.257-0.171,0.385-0.257C91.203,73.208,92.23,72.951,93.3,73.208L93.3,73.208z M94.199,92.037v-4.921
				c-0.77,0.043-1.54,0.471-1.968,1.198c-0.685,1.198-0.257,2.696,0.898,3.381C93.471,91.908,93.856,91.994,94.199,92.037
				L94.199,92.037z M94.199,82.708V77.83c-0.899-0.086-1.797,0.385-2.268,1.198c-0.128,0.257-0.257,0.556-0.3,0.813
				c-0.3,0.898-0.941,1.669-1.669,2.182l0,1.326c0.129-0.043,0.214-0.128,0.342-0.214c0.856-0.556,1.883-0.813,2.953-0.556
				C93.557,82.708,93.899,82.751,94.199,82.708z M89.962,72.695c-0.043,0.043-0.128,0.129-0.214,0.171
				c-0.77,0.471-1.797,0.642-2.739,0.471c-0.257-0.129-0.556-0.214-0.856-0.214l0,0c-0.043,0-0.043,0-0.043,0s0,0-0.043,0
				c-0.899-0.086-1.797,0.385-2.268,1.198c-0.171,0.3-0.257,0.599-0.3,0.941c-0.342,0.77-0.899,1.498-1.541,2.011V78.6
				c0.086-0.043,0.171-0.086,0.214-0.171c0.856-0.556,1.883-0.77,2.91-0.556c0.214,0.086,0.428,0.128,0.642,0.128l0,0l0,0
				c0.941,0.086,1.883-0.342,2.354-1.198c0.086-0.128,0.128-0.257,0.171-0.342c0.043-0.086,0.086-0.171,0.128-0.3
				c0.342-0.899,0.856-1.583,1.583-2.14C89.963,74.022,89.962,72.695,89.962,72.695z M89.962,83.35v-1.327
				c-0.086,0.086-0.171,0.171-0.257,0.214c-0.77,0.513-1.797,0.685-2.739,0.471c-1.155-0.514-2.567-0.129-3.209,0.984
				c-0.685,1.198-0.257,2.696,0.898,3.381c1.156,0.685,2.696,0.3,3.381-0.898c0.043-0.043,0.086-0.129,0.086-0.214
				c0.086-0.128,0.171-0.257,0.214-0.385C88.679,84.633,89.235,83.949,89.962,83.35L89.962,83.35z M81.96,68.073V69.4
				c0.128-0.086,0.214-0.129,0.342-0.214c0.856-0.556,1.883-0.813,2.952-0.556c1.07,0.385,2.311-0.043,2.91-1.07
				c0.685-1.198,0.3-2.696-0.898-3.381c-1.156-0.685-2.653-0.257-3.338,0.898c-0.171,0.257-0.257,0.513-0.3,0.813
				C83.329,66.747,82.688,67.56,81.96,68.073z M81.96,77.273c-0.129,0.086-0.257,0.171-0.342,0.257
				c-0.77,0.513-1.84,0.685-2.781,0.471c-0.257-0.128-0.556-0.171-0.856-0.214v4.921c0.77-0.086,1.498-0.513,1.926-1.241
				c0.043-0.043,0.086-0.129,0.128-0.214c0.086-0.086,0.129-0.257,0.214-0.385c0.342-0.984,0.941-1.712,1.712-2.268
				C81.96,78.601,81.96,77.273,81.96,77.273z M81.96,69.4v-1.327c-0.086,0.086-0.171,0.128-0.257,0.214
				c-0.77,0.514-1.797,0.685-2.781,0.471c-0.3-0.129-0.642-0.214-0.941-0.214v4.921c0.813-0.043,1.583-0.471,2.011-1.241
				c0.043-0.086,0.086-0.129,0.128-0.214c0.086-0.128,0.129-0.257,0.214-0.428C80.676,70.683,81.233,69.956,81.96,69.4z
				 M77.981,59.087v4.921c0.856,0,1.669-0.428,2.14-1.198c0.642-1.198,0.257-2.696-0.898-3.381
				C78.836,59.215,78.409,59.087,77.981,59.087z M77.981,77.787c-0.941-0.043-1.84,0.385-2.311,1.241
				c-0.214,0.342-0.342,0.77-0.342,1.198v0.043c0,0.813,0.428,1.669,1.241,2.097c0.428,0.257,0.941,0.385,1.412,0.342L77.981,77.787
				z M77.981,73.465v-4.921c-0.898-0.043-1.754,0.385-2.225,1.198c-0.685,1.198-0.3,2.696,0.899,3.381
				C77.082,73.379,77.51,73.465,77.981,73.465z M77.981,64.008v-4.921c-0.856,0-1.669,0.471-2.14,1.241
				c-0.685,1.156-0.3,2.696,0.899,3.338C77.125,63.922,77.553,64.008,77.981,64.008"/>
			<path id="path2834" fill="#0B0C0B" d="M189.025,93.149v1.027c0.77,0,1.327,0.342,1.626,1.07c0.257,0.727,0.428,1.797,0.428,3.252
				c0,1.412-0.171,2.525-0.428,3.209c-0.3,0.727-0.856,1.113-1.626,1.113v0.984c1.155,0,1.968-0.471,2.525-1.412
				c0.556-0.941,0.856-2.268,0.856-3.894c0-1.669-0.3-2.995-0.813-3.937C191.036,93.62,190.18,93.149,189.025,93.149z
				 M189.025,103.804v-0.984c-0.77,0-1.284-0.385-1.583-1.113c-0.3-0.727-0.428-1.797-0.428-3.21c0-1.455,0.129-2.568,0.385-3.252
				c0.3-0.727,0.813-1.07,1.626-1.07v-1.027c-1.156,0-2.011,0.471-2.568,1.412c-0.514,0.941-0.813,2.268-0.813,3.937
				c0,1.669,0.3,2.953,0.813,3.894C187.014,103.334,187.87,103.804,189.025,103.804L189.025,103.804z M150.855,96.401v1.07h1.241
				l-0.898,3.295c-0.086,0.3-0.129,0.599-0.214,0.856c-0.043,0.257-0.086,0.428-0.128,0.556c0,0,0,0,0-0.043v1.455l0.471,0
				c0.129,0,0.171-0.043,0.214-0.171l2.995-9.714l0.086-0.257c0-0.043-0.043-0.086-0.214-0.086h-0.899
				c-0.171,0-0.257,0.043-0.257,0.171l-0.856,2.867H150.855L150.855,96.401z M163.436,93.534c0-0.128-0.043-0.171-0.171-0.171
				h-0.856c-0.129,0-0.214,0.043-0.214,0.171l-0.214,7.703c0,0.128,0,0.3,0,0.471c0,0.129,0,0.3,0,0.428l0,0.043
				c0-0.342-0.086-0.685-0.214-1.07l-1.797-5.178c-0.043-0.129-0.128-0.171-0.214-0.171l-0.471,0c-0.086,0-0.171,0.043-0.214,0.171
				l-1.712,5.178c-0.129,0.385-0.214,0.727-0.214,1.07l0,0c0-0.128,0-0.3,0-0.471c0-0.129,0-0.3,0-0.471l-0.214-7.703
				c0-0.128-0.043-0.171-0.171-0.171l-0.899,0c-0.086,0-0.171,0.043-0.171,0.171l0.599,9.885c0,0.129,0.043,0.171,0.171,0.171h0.941
				c0.086,0,0.129-0.043,0.171-0.171l1.797-5.135c0-0.043,0-0.128,0.043-0.214c0.043-0.129,0.086-0.342,0.128-0.685
				c0.043,0.128,0.086,0.3,0.171,0.514c0.043,0.214,0.043,0.342,0.086,0.385l1.754,5.135c0.043,0.129,0.086,0.171,0.171,0.171h0.941
				c0.128,0,0.171-0.043,0.171-0.171L163.436,93.534L163.436,93.534z M170.496,93.577c0-0.128-0.043-0.214-0.171-0.214l-4.622,0
				c-0.128,0-0.171,0.043-0.171,0.171v9.885c0,0.129,0.043,0.171,0.171,0.171h4.664c0.043,0,0.128,0,0.128-0.043
				c0.043,0,0.043-0.043,0.043-0.043l-0.043-0.171l-0.214-0.642c0-0.086-0.086-0.129-0.214-0.129h-3.338v-3.338h2.953
				c0.128,0,0.171-0.043,0.171-0.171V98.37c0-0.128-0.043-0.171-0.171-0.171h-2.953v-3.766h3.595c0.129,0,0.171-0.086,0.171-0.171
				L170.496,93.577L170.496,93.577z M177.942,93.534c0-0.128-0.086-0.171-0.214-0.171h-0.813c-0.086,0-0.171,0.043-0.257,0.171
				l-3.423,7.36c-0.214,0.428-0.342,0.856-0.428,1.284l0,0c0.043-0.257,0.086-0.514,0.129-0.727c0-0.214,0-0.385,0-0.599v-7.317
				c0-0.128-0.043-0.171-0.171-0.171h-0.77c-0.129,0-0.171,0.043-0.171,0.171v9.885c0,0.129,0.043,0.171,0.171,0.171h1.027
				c0.086,0,0.171-0.043,0.214-0.128l3.295-6.975c0.043-0.129,0.128-0.342,0.171-0.514c0.086-0.214,0.128-0.428,0.171-0.599l0.043,0
				c0,0.086-0.043,0.214-0.086,0.428c-0.043,0.214-0.043,0.385-0.043,0.471l0,7.146c0,0.129,0.043,0.171,0.171,0.171h0.77
				c0.128,0,0.214-0.043,0.214-0.171L177.942,93.534L177.942,93.534z M182.649,102.563v-9.029c0-0.128-0.043-0.171-0.171-0.171
				h-0.856c-0.128,0-0.171,0.043-0.171,0.171v9.029h-2.225c-0.128,0-0.171,0.043-0.171,0.171v0.685c0,0.129,0.043,0.171,0.171,0.171
				h5.862c0.128,0,0.214-0.043,0.214-0.128l-0.086-0.171l-0.214-0.556c-0.043-0.128-0.129-0.171-0.214-0.171H182.649z
				 M150.855,103.59v-1.455c-0.043-0.171-0.043-0.3-0.086-0.385c0-0.086-0.086-0.385-0.257-0.984l-0.899-3.295h1.241v-1.07h-1.54
				l-0.727-2.867c-0.043-0.128-0.128-0.171-0.3-0.171h-0.899c-0.171,0-0.214,0.043-0.214,0.086l0.043,0.257l2.995,9.714
				c0.043,0.129,0.129,0.171,0.214,0.171H150.855z M137.333,97.129v1.883c0.385,0.086,0.727,0.171,0.984,0.342
				c0.342,0.257,0.556,0.77,0.556,1.498c0,0.728-0.171,1.198-0.514,1.412c-0.3,0.128-0.642,0.257-1.027,0.257v1.07
				c0.77-0.043,1.369-0.171,1.883-0.471c0.599-0.342,0.856-1.07,0.856-2.225c0-0.77-0.171-1.369-0.599-1.797
				c-0.385-0.471-0.856-0.813-1.369-0.984l2.482-4.493l0.086-0.171c-0.086-0.086-0.129-0.128-0.171-0.128l-0.941-0.171
				c-0.129,0-0.171,0.043-0.214,0.128L137.333,97.129L137.333,97.129z M144.522,102.563v-9.029c0-0.128-0.043-0.171-0.171-0.171
				h-0.856c-0.129,0-0.171,0.043-0.171,0.171v9.029h-2.225c-0.129,0-0.171,0.043-0.171,0.171v0.685c0,0.129,0.043,0.171,0.171,0.171
				h5.863c0.129,0,0.171-0.043,0.171-0.128l-0.043-0.171l-0.214-0.556c-0.043-0.128-0.128-0.171-0.214-0.171H144.522
				L144.522,102.563z M137.333,103.59v-1.07c-0.129,0.043-0.257,0.043-0.385,0.043h-1.155v-3.552h0.984c0.171,0,0.385,0,0.556,0
				v-1.883l-0.471,0.899l-1.07,0v-4.493c0-0.129-0.086-0.171-0.171-0.171l-0.899,0c-0.086,0-0.171,0.043-0.171,0.171v9.885
				c0,0.129,0.086,0.171,0.171,0.171h2.353C137.161,103.59,137.247,103.59,137.333,103.59L137.333,103.59z M129.545,96.401v1.07
				h1.241l-0.898,3.295c-0.086,0.3-0.171,0.599-0.214,0.856c-0.086,0.257-0.128,0.428-0.128,0.556c0,0,0,0,0-0.043v1.455l0.471,0
				c0.086,0,0.171-0.043,0.214-0.171l2.995-9.714l0.086-0.257c0-0.043-0.086-0.086-0.214-0.086h-0.941
				c-0.128,0-0.214,0.043-0.257,0.171l-0.856,2.867H129.545L129.545,96.401z M129.545,103.59v-1.455
				c-0.043-0.171-0.086-0.3-0.086-0.385c-0.043-0.086-0.129-0.385-0.257-0.984l-0.899-3.295l1.241,0v-1.07h-1.54l-0.727-2.867
				c-0.043-0.128-0.128-0.171-0.257-0.171h-0.941c-0.128,0-0.214,0.043-0.214,0.086l0.086,0.257l2.952,9.714
				c0,0.129,0.086,0.171,0.214,0.171H129.545z M122.612,97.685v1.07c0.428,0.086,0.77,0.214,1.027,0.385
				c0.342,0.3,0.514,0.856,0.514,1.712c0,0.727-0.171,1.198-0.514,1.412c-0.257,0.129-0.599,0.257-1.027,0.257v1.07
				c0.77-0.043,1.412-0.171,1.925-0.471c0.556-0.342,0.856-1.07,0.856-2.225c0-1.155-0.3-2.011-0.941-2.482
				C123.939,98.027,123.34,97.771,122.612,97.685z M108.534,94.518c0.556,0.129,0.984,0.471,1.241,0.941
				c0.342,0.727,0.514,1.754,0.514,3.167c0,1.54-0.214,2.61-0.642,3.124c-0.257,0.342-0.642,0.556-1.113,0.685v1.113
				c0.856-0.128,1.54-0.428,2.054-0.899c0.727-0.642,1.07-2.011,1.07-4.065c0-1.84-0.342-3.167-0.984-3.98
				c-0.471-0.599-1.198-0.984-2.14-1.155L108.534,94.518L108.534,94.518z M122.612,103.59v-1.07
				c-0.086,0.043-0.214,0.043-0.385,0.043h-1.113v-3.851h0.941c0.214,0,0.385,0.043,0.556,0.043v-1.07c-0.129,0-0.3,0-0.428,0h-1.07
				v-4.151c0-0.129-0.086-0.171-0.214-0.171l-0.856,0c-0.129,0-0.171,0.043-0.171,0.171v9.885c0,0.129,0.043,0.171,0.171,0.171
				h2.311C122.441,103.59,122.527,103.59,122.612,103.59L122.612,103.59z M118.376,93.577c0-0.128-0.086-0.214-0.214-0.214l-4.579,0
				c-0.128,0-0.214,0.043-0.214,0.171l0,9.885c0,0.129,0.086,0.171,0.214,0.171h4.622c0.086,0,0.129,0,0.171-0.043l0.043-0.043
				l-0.043-0.171l-0.214-0.642c-0.043-0.086-0.129-0.129-0.214-0.129h-3.338v-3.338h2.953c0.128,0,0.171-0.043,0.171-0.171V98.37
				c0-0.128-0.043-0.171-0.171-0.171h-2.953v-3.766h3.595c0.129,0,0.171-0.086,0.171-0.171L118.376,93.577L118.376,93.577z
				 M107.721,94.433c0.3,0,0.599,0,0.813,0.086v-1.07c-0.3-0.043-0.685-0.086-1.07-0.086l-1.712,0c-0.129,0-0.171,0.043-0.171,0.171
				v9.885c0,0.129,0.043,0.171,0.171,0.171h1.883c0.3,0,0.642,0,0.898-0.043v-1.113c-0.257,0.086-0.556,0.128-0.941,0.128l-0.813,0
				v-8.13L107.721,94.433L107.721,94.433z"/>
			<path id="path2836" fill="#0B0C0B" d="M207.682,69.015V69.4h0.599l-0.599,2.011v0.428h0.342l1.198-3.723h-0.514l-0.3,0.899
				L207.682,69.015z M207.682,71.839v-0.428l-0.599-2.011h0.599v-0.385h-0.685l-0.3-0.898l-0.471,0l1.198,3.723
				C207.425,71.839,207.682,71.839,207.682,71.839z M204.473,68.116v0.428c0.214,0,0.385,0.043,0.513,0.171
				c0.129,0.128,0.171,0.3,0.171,0.471c0,0.257-0.086,0.428-0.214,0.513c-0.129,0.086-0.257,0.129-0.471,0.171v0.385h0.043
				c0.171,0,0.3,0.086,0.385,0.171c0.086,0.128,0.129,0.257,0.129,0.428s-0.043,0.3-0.129,0.428
				c-0.086,0.086-0.214,0.128-0.428,0.128v0.428h0.086c0.214,0,0.385-0.043,0.513-0.086c0.129-0.086,0.214-0.171,0.3-0.257
				c0.043-0.128,0.086-0.214,0.128-0.3c0-0.086,0-0.171,0-0.214c0-0.257-0.043-0.471-0.128-0.599
				c-0.086-0.171-0.257-0.257-0.471-0.3v-0.043c0.257,0,0.428-0.128,0.556-0.257c0.128-0.171,0.171-0.342,0.171-0.599
				c0-0.428-0.086-0.727-0.3-0.856c-0.214-0.128-0.514-0.214-0.813-0.214L204.473,68.116L204.473,68.116z M204.473,71.839v-0.428
				l0,0h-0.685v-1.155h0.685V69.87c-0.043,0-0.086,0-0.171,0h-0.513v-1.327h0.685l0,0v-0.428h-1.155v3.723H204.473z M191.593,68.073
				v0.342l0,0c0.128,0,0.257,0.043,0.342,0.129c0.086,0.128,0.128,0.214,0.128,0.342l0.471,0c0-0.257-0.086-0.471-0.257-0.599
				C192.106,68.116,191.892,68.073,191.593,68.073C191.593,68.073,191.593,68.073,191.593,68.073z M191.593,69.271v0.342h0.513
				c0,0.342-0.043,0.556-0.129,0.685c-0.086,0.086-0.214,0.171-0.385,0.171v0.3l0,0c0.385,0,0.642-0.086,0.77-0.3
				c0.128-0.171,0.171-0.513,0.171-0.984v-0.214C192.534,69.271,191.593,69.271,191.593,69.271z M194.16,68.073
				c-0.3,0-0.514,0.043-0.685,0.214c-0.129,0.128-0.214,0.342-0.214,0.642h0.471c0-0.171,0.043-0.257,0.086-0.385
				c0.043-0.086,0.171-0.129,0.342-0.129c0.128,0,0.257,0.043,0.342,0.086c0.086,0.086,0.128,0.171,0.128,0.3
				c0,0.128-0.171,0.257-0.471,0.428c-0.3,0.171-0.514,0.257-0.642,0.385c-0.128,0.086-0.214,0.214-0.214,0.428
				c0,0.214,0.086,0.385,0.214,0.514c0.129,0.129,0.342,0.214,0.685,0.214c0.257,0,0.471-0.043,0.599-0.171
				c0.171-0.128,0.214-0.3,0.214-0.556h-0.47c0,0.257-0.128,0.428-0.385,0.428c-0.129,0-0.214-0.043-0.3-0.128
				c-0.086-0.043-0.086-0.128-0.086-0.257c0-0.086,0.129-0.257,0.428-0.385c0.3-0.171,0.513-0.3,0.642-0.385
				c0.128-0.086,0.214-0.214,0.214-0.471c0-0.257-0.086-0.471-0.257-0.599C194.631,68.116,194.417,68.073,194.16,68.073z
				 M196.856,69.742h1.155v-0.428h-1.155V69.742z M199.98,71.839h0.471v-2.396c0-0.385,0.043-0.642,0.171-0.77
				c0.129-0.171,0.3-0.214,0.513-0.214c0.257,0,0.428,0.043,0.556,0.214c0.086,0.129,0.171,0.385,0.171,0.77v2.396h0.471v-2.354
				c0-0.514-0.128-0.899-0.3-1.113c-0.171-0.214-0.471-0.342-0.899-0.342c-0.385,0-0.685,0.128-0.856,0.342
				c-0.214,0.214-0.3,0.599-0.3,1.113V71.839L199.98,71.839z M191.593,70.769v-0.3l0,0c-0.171,0-0.3-0.086-0.385-0.214
				c-0.086-0.086-0.128-0.342-0.128-0.642l0.514,0v-0.342h-0.514c0-0.342,0.043-0.556,0.128-0.685
				c0.086-0.128,0.214-0.171,0.385-0.171v-0.342c-0.3,0-0.556,0.086-0.727,0.257c-0.171,0.171-0.257,0.513-0.257,1.07
				c0,0.428,0.086,0.77,0.214,1.027C190.908,70.641,191.207,70.769,191.593,70.769z M187.527,68.073v0.342
				c0.129,0,0.214,0.086,0.3,0.214c0.128,0.128,0.171,0.385,0.171,0.77c-0.171,0-0.342,0-0.471,0v0.3
				c0.129,0.043,0.3,0.043,0.471,0.043c0,0.214-0.043,0.428-0.086,0.513c-0.043,0.128-0.171,0.214-0.342,0.214
				c-0.043,0-0.043,0-0.043,0v0.3h0.042c0.3,0,0.556-0.086,0.642-0.214c0.129-0.128,0.214-0.3,0.214-0.556v-1.241
				c0-0.214,0-0.428,0.043-0.642l-0.471,0v0.385c-0.086-0.171-0.171-0.257-0.257-0.342
				C187.656,68.116,187.613,68.116,187.527,68.073L187.527,68.073z M189.795,68.116h-0.428v3.723h0.428V68.116z M187.527,70.769
				v-0.3c-0.128-0.043-0.214-0.043-0.257-0.129c-0.086-0.043-0.128-0.171-0.128-0.3v-0.043l-0.471,0
				c0,0.257,0.086,0.471,0.257,0.599C187.057,70.726,187.271,70.769,187.527,70.769z M187.527,69.699v-0.3
				c-0.086-0.043-0.171-0.043-0.214-0.086c-0.171-0.043-0.257-0.171-0.257-0.428c0-0.128,0.043-0.257,0.086-0.342
				c0.086-0.086,0.171-0.128,0.3-0.128c0.043,0,0.043,0,0.086,0v-0.342c-0.043,0-0.128,0-0.171,0c-0.3,0-0.471,0.086-0.556,0.214
				c-0.129,0.129-0.171,0.342-0.171,0.642c0,0.342,0.128,0.556,0.385,0.642C187.142,69.656,187.313,69.699,187.527,69.699
				L187.527,69.699z M178.669,68.073v0.342c0.128,0,0.257,0.086,0.342,0.214s0.128,0.385,0.128,0.77c-0.171,0-0.342,0-0.471,0v0.3
				c0.128,0.043,0.3,0.043,0.471,0.043c0,0.214,0,0.428-0.086,0.513c-0.043,0.128-0.128,0.214-0.342,0.214l-0.043,0v0.3l0.043,0
				c0.3,0,0.556-0.086,0.685-0.214c0.086-0.128,0.171-0.3,0.171-0.556v-1.241c0-0.214,0-0.428,0.043-0.642l-0.471,0v0.385
				c-0.086-0.171-0.171-0.257-0.257-0.342C178.841,68.116,178.755,68.116,178.669,68.073L178.669,68.073z M180.595,70.726v0.514
				l0.385,0.171v-0.685h0.599v-0.342h-0.599v-1.583c0-0.129,0.043-0.214,0.086-0.257c0.043-0.086,0.128-0.129,0.3-0.129l0.214,0.043
				v-0.342c-0.043,0-0.129,0-0.214,0c-0.086-0.043-0.171-0.043-0.214-0.043c-0.385,0-0.556,0.171-0.556,0.471v1.84l-0.428,0v0.342
				H180.595L180.595,70.726z M183.505,70.726h0.428v-2.054c0-0.171,0-0.342,0-0.556l-0.428,0v0.3
				c-0.171-0.214-0.385-0.342-0.685-0.342c-0.471,0-0.727,0.214-0.727,0.685l0,1.968h0.428v-1.797c0-0.171,0.043-0.3,0.128-0.385
				c0.086-0.086,0.171-0.171,0.342-0.171c0.129,0,0.257,0.086,0.342,0.171c0.086,0.086,0.171,0.257,0.171,0.471
				C183.505,69.015,183.505,70.726,183.505,70.726z M185.259,70.341c0.086,0.171,0.171,0.3,0.3,0.342
				c0.129,0.043,0.3,0.086,0.514,0.086v-0.428h-0.128h-0.086c-0.214,0-0.385-0.043-0.471-0.171c-0.086-0.128-0.128-0.3-0.128-0.514
				v-1.54h-0.428v2.61h0.428C185.259,70.726,185.259,70.341,185.259,70.341z M178.669,70.769v-0.3
				c-0.129-0.043-0.214-0.043-0.257-0.129c-0.086-0.043-0.129-0.171-0.129-0.3v-0.043l-0.428,0c0,0.257,0.043,0.471,0.214,0.599
				C178.199,70.726,178.413,70.769,178.669,70.769L178.669,70.769z M178.669,69.699v-0.3c-0.086-0.043-0.171-0.043-0.214-0.086
				c-0.171-0.043-0.257-0.171-0.257-0.428c0-0.128,0.043-0.257,0.086-0.342c0.086-0.086,0.171-0.128,0.342-0.128l0.043,0v-0.342
				c-0.043,0-0.129,0-0.171,0c-0.257,0-0.471,0.086-0.556,0.214c-0.128,0.128-0.171,0.342-0.171,0.642
				c0,0.342,0.129,0.556,0.385,0.642C178.284,69.656,178.456,69.699,178.669,69.699L178.669,69.699z M165.233,68.073v0.342
				c0.128,0,0.257,0.086,0.342,0.214s0.128,0.385,0.128,0.77c-0.171,0-0.342,0-0.471,0v0.3c0.128,0.043,0.3,0.043,0.471,0.043
				c0,0.214,0,0.428-0.043,0.513c-0.043,0.128-0.171,0.214-0.385,0.214l-0.043,0v0.3l0.043,0c0.342,0,0.556-0.086,0.685-0.214
				c0.129-0.128,0.171-0.3,0.171-0.556v-1.241c0-0.214,0-0.428,0.043-0.642l-0.471,0v0.385c-0.043-0.171-0.171-0.257-0.257-0.342
				C165.404,68.116,165.318,68.116,165.233,68.073L165.233,68.073z M167.843,68.073c-0.257,0-0.513,0.043-0.642,0.214
				c-0.171,0.128-0.257,0.342-0.257,0.642h0.514c0-0.171,0-0.257,0.043-0.385c0.086-0.086,0.171-0.129,0.385-0.129
				c0.128,0,0.214,0.043,0.3,0.086c0.086,0.086,0.129,0.171,0.129,0.3c0,0.128-0.129,0.257-0.428,0.428
				c-0.3,0.171-0.556,0.257-0.685,0.385c-0.129,0.086-0.171,0.214-0.171,0.428c0,0.214,0.043,0.385,0.214,0.514
				c0.129,0.129,0.342,0.214,0.685,0.214c0.257,0,0.428-0.043,0.599-0.171c0.129-0.128,0.214-0.3,0.214-0.556h-0.47
				c0,0.257-0.128,0.428-0.385,0.428c-0.129,0-0.214-0.043-0.3-0.128c-0.086-0.043-0.128-0.128-0.128-0.257
				c0-0.086,0.171-0.257,0.471-0.385c0.3-0.171,0.514-0.3,0.642-0.385c0.128-0.086,0.214-0.214,0.214-0.471
				c0-0.257-0.086-0.471-0.257-0.599C168.357,68.116,168.143,68.073,167.843,68.073z M171.438,68.629l0.642,2.097l0.471,0
				l-1.198-3.594h-0.428l0.3,0.984l-0.899,2.61h0.513L171.438,68.629L171.438,68.629z M176.872,71.839v-3.723h-0.642l-1.498,3.209
				v-3.209h-0.428v3.723h0.685l1.455-3.167v3.167H176.872L176.872,71.839z M165.233,70.769v-0.3
				c-0.129-0.043-0.214-0.043-0.257-0.129c-0.086-0.043-0.129-0.171-0.129-0.3v-0.043l-0.428,0c0,0.257,0.043,0.471,0.214,0.599
				C164.762,70.726,164.976,70.769,165.233,70.769L165.233,70.769z M165.233,69.699v-0.3c-0.086-0.043-0.171-0.043-0.214-0.086
				c-0.171-0.043-0.257-0.171-0.257-0.428c0-0.128,0.043-0.257,0.086-0.342c0.086-0.086,0.171-0.128,0.342-0.128l0.043,0v-0.342
				c-0.043,0-0.129,0-0.171,0c-0.257,0-0.471,0.086-0.556,0.214c-0.128,0.128-0.171,0.342-0.171,0.642
				c0,0.342,0.129,0.556,0.385,0.642C164.848,69.656,165.019,69.699,165.233,69.699L165.233,69.699z M158.258,68.073v0.342
				c0.129,0,0.214,0.086,0.3,0.214s0.171,0.385,0.171,0.77c-0.214,0-0.342,0-0.471,0v0.3c0.129,0.043,0.3,0.043,0.471,0.043
				c0,0.214-0.043,0.428-0.086,0.513c-0.043,0.128-0.171,0.214-0.385,0.214l0,0v0.3c0,0,0,0,0.043,0c0.3,0,0.514-0.086,0.642-0.214
				c0.129-0.128,0.171-0.3,0.171-0.556v-1.241c0-0.214,0.043-0.428,0.086-0.642l-0.471,0v0.385c-0.086-0.171-0.171-0.257-0.3-0.342
				C158.386,68.116,158.301,68.116,158.258,68.073z M161.467,69.87c0,0.214-0.043,0.342-0.129,0.428
				c-0.086,0.086-0.128,0.129-0.257,0.129c-0.171,0-0.3-0.043-0.385-0.171c-0.085-0.129-0.171-0.342-0.171-0.685
				c0-0.428,0.043-0.727,0.128-0.899c0.086-0.171,0.214-0.257,0.428-0.257c0.129,0,0.214,0.043,0.3,0.171
				c0.043,0.086,0.086,0.257,0.086,0.385l0.428,0c0-0.3-0.086-0.556-0.257-0.685s-0.342-0.214-0.556-0.214
				c-0.3,0-0.556,0.086-0.727,0.257c-0.171,0.171-0.257,0.514-0.257,1.07c0,0.428,0.086,0.77,0.171,1.027
				c0.128,0.214,0.428,0.342,0.813,0.342c0.556,0,0.813-0.3,0.813-0.899H161.467L161.467,69.87z M162.837,70.726v0.513l0.428,0.171
				v-0.685h0.599v-0.342h-0.599v-1.583c0-0.129,0.043-0.214,0.086-0.257c0.043-0.086,0.128-0.129,0.3-0.129l0.214,0.043v-0.342
				c-0.043,0-0.129,0-0.214,0c-0.086-0.043-0.171-0.043-0.214-0.043c-0.385,0-0.599,0.171-0.599,0.471v1.84l-0.428,0v0.342H162.837
				L162.837,70.726z M158.258,70.769v-0.3c-0.128-0.043-0.214-0.043-0.3-0.129c-0.043-0.043-0.086-0.171-0.086-0.3v-0.043l-0.471,0
				c0,0.257,0.086,0.471,0.214,0.599C157.787,70.726,157.958,70.769,158.258,70.769z M158.258,69.699v-0.3
				c-0.128-0.043-0.171-0.043-0.257-0.086c-0.171-0.043-0.257-0.171-0.257-0.428c0-0.128,0.043-0.257,0.129-0.342
				c0.043-0.086,0.171-0.128,0.3-0.128c0.043,0,0.043,0,0.086,0v-0.342c-0.086,0-0.128,0-0.214,0c-0.257,0-0.428,0.086-0.556,0.214
				c-0.086,0.129-0.128,0.342-0.128,0.642c0,0.342,0.086,0.556,0.342,0.642C157.873,69.656,158.044,69.699,158.258,69.699z
				 M146.79,68.073v0.342c0.129,0,0.257,0.086,0.342,0.214c0.086,0.128,0.129,0.385,0.129,0.77c-0.171,0-0.3,0-0.471,0v0.3
				c0.171,0.043,0.3,0.043,0.471,0.043c0,0.214,0,0.428-0.043,0.513c-0.043,0.128-0.171,0.214-0.385,0.214c0,0,0,0-0.043,0v0.3
				c0.043,0,0.043,0,0.086,0c0.3,0,0.514-0.086,0.642-0.214c0.129-0.128,0.171-0.3,0.171-0.556v-1.241
				c0-0.214,0.043-0.428,0.086-0.642l-0.514,0v0.385c-0.043-0.171-0.129-0.257-0.257-0.342
				C146.961,68.116,146.875,68.116,146.79,68.073L146.79,68.073z M149.443,68.073c-0.3,0-0.514,0.043-0.685,0.214
				c-0.128,0.128-0.214,0.342-0.214,0.642h0.471c0-0.171,0.043-0.257,0.086-0.385c0.043-0.086,0.171-0.129,0.342-0.129
				c0.129,0,0.257,0.043,0.342,0.086c0.086,0.086,0.129,0.171,0.129,0.3c0,0.128-0.171,0.257-0.471,0.428
				c-0.3,0.171-0.514,0.257-0.642,0.385c-0.129,0.086-0.214,0.214-0.214,0.428c0,0.214,0.086,0.385,0.214,0.513
				c0.128,0.129,0.385,0.214,0.685,0.214c0.257,0,0.471-0.043,0.599-0.171c0.171-0.128,0.257-0.3,0.257-0.556h-0.471
				c0,0.257-0.171,0.428-0.428,0.428c-0.128,0-0.214-0.043-0.3-0.128c-0.043-0.043-0.086-0.128-0.086-0.257
				c0-0.086,0.128-0.257,0.428-0.385c0.342-0.171,0.556-0.3,0.685-0.385c0.128-0.086,0.171-0.214,0.171-0.471
				c0-0.257-0.086-0.471-0.257-0.599C149.913,68.116,149.7,68.073,149.443,68.073z M152.267,68.116v3.723h1.926v-0.428h-1.455
				v-1.198h1.369v-0.385l-1.369,0v-1.284h1.498v-0.428H152.267L152.267,68.116z M156.846,68.116h-0.556l-0.599,1.07l-0.599-1.07
				h-0.471l0.813,1.369l-0.77,1.241l0.556,0l0.513-0.941l0.514,0.941h0.513l-0.77-1.241L156.846,68.116L156.846,68.116z
				 M146.79,70.769v-0.3c-0.086-0.043-0.171-0.043-0.257-0.129c-0.043-0.043-0.086-0.171-0.086-0.3v-0.043l-0.471,0
				c0,0.257,0.086,0.471,0.214,0.599C146.362,70.726,146.533,70.769,146.79,70.769z M146.79,69.699v-0.3
				c-0.086-0.043-0.128-0.043-0.214-0.086c-0.171-0.043-0.257-0.171-0.257-0.428c0-0.128,0.043-0.257,0.128-0.342
				c0.043-0.086,0.171-0.128,0.3-0.128l0.042,0v-0.342c-0.043,0-0.086,0-0.171,0c-0.257,0-0.428,0.086-0.556,0.214
				c-0.086,0.128-0.129,0.342-0.129,0.642c0,0.342,0.086,0.556,0.342,0.642C146.447,69.656,146.619,69.699,146.79,69.699
				L146.79,69.699z M137.461,68.073v0.342l0,0c0.129,0,0.257,0.043,0.342,0.129c0.086,0.128,0.129,0.214,0.129,0.342l0.428,0
				c0-0.257-0.043-0.471-0.214-0.599C137.975,68.116,137.761,68.073,137.461,68.073L137.461,68.073L137.461,68.073z M137.461,69.271
				v0.342h0.471c0,0.342-0.043,0.556-0.129,0.685c-0.086,0.086-0.171,0.171-0.342,0.171v0.3l0,0c0.385,0,0.599-0.086,0.727-0.3
				c0.128-0.171,0.214-0.513,0.214-0.984v-0.214H137.461L137.461,69.271z M140.67,68.116v1.797c0,0.171-0.043,0.3-0.129,0.385
				c-0.043,0.086-0.171,0.128-0.342,0.128c-0.214,0-0.342-0.086-0.428-0.214c-0.086-0.128-0.128-0.342-0.128-0.556v-1.54l-0.385,0
				v2.054c0,0.171-0.043,0.342-0.043,0.556l0.428,0v-0.342h0.043c0.086,0.129,0.171,0.257,0.257,0.3
				c0.129,0.043,0.257,0.086,0.428,0.086c0.257,0,0.471-0.086,0.556-0.214c0.086-0.128,0.128-0.342,0.128-0.642v-1.797
				C141.056,68.116,140.67,68.116,140.67,68.116z M143.323,69.87c0,0.214-0.043,0.342-0.129,0.428
				c-0.043,0.086-0.128,0.129-0.257,0.129c-0.171,0-0.3-0.043-0.385-0.171c-0.085-0.129-0.129-0.342-0.129-0.685
				c0-0.428,0-0.727,0.086-0.899c0.086-0.171,0.214-0.257,0.428-0.257c0.129,0,0.214,0.043,0.3,0.171
				c0.043,0.086,0.086,0.257,0.086,0.385l0.471,0c0-0.3-0.128-0.556-0.3-0.685c-0.171-0.128-0.342-0.214-0.556-0.214
				c-0.3,0-0.556,0.086-0.727,0.257c-0.171,0.171-0.257,0.514-0.257,1.07c0,0.428,0.086,0.77,0.214,1.027
				c0.086,0.214,0.385,0.342,0.77,0.342c0.556,0,0.813-0.3,0.813-0.899C143.752,69.87,143.323,69.87,143.323,69.87z M145.078,68.116
				h-0.428v2.61h0.428V68.116z M144.65,71.839h0.471v-0.471h-0.471V71.839z M137.461,70.769v-0.3c-0.043,0-0.043,0-0.043,0
				c-0.129,0-0.257-0.086-0.342-0.214c-0.086-0.086-0.129-0.342-0.129-0.642l0.513,0v-0.342h-0.513c0-0.342,0.043-0.556,0.129-0.685
				c0.086-0.128,0.214-0.171,0.385-0.171v-0.342c-0.342,0-0.556,0.086-0.727,0.257c-0.171,0.171-0.257,0.513-0.257,1.07
				c0,0.428,0.086,0.77,0.171,1.027C136.776,70.641,137.033,70.769,137.461,70.769L137.461,70.769z M129.288,68.073v0.342h0.043
				c0.129,0,0.214,0.043,0.3,0.129c0.086,0.128,0.128,0.214,0.128,0.342l0.47,0c0-0.257-0.086-0.471-0.257-0.599
				c-0.129-0.171-0.385-0.214-0.642-0.214L129.288,68.073L129.288,68.073z M129.288,69.271v0.342h0.513
				c0,0.342-0.043,0.556-0.129,0.685c-0.086,0.086-0.214,0.171-0.385,0.171v0.3l0.043,0c0.342,0,0.599-0.086,0.727-0.3
				c0.128-0.171,0.214-0.513,0.214-0.984v-0.214C130.272,69.271,129.288,69.271,129.288,69.271z M133.909,70.812
				c0,0.129,0,0.257,0,0.342c0,0.086-0.043,0.129-0.086,0.214c-0.043,0.043-0.129,0.086-0.214,0.128c-0.086,0-0.128,0-0.214,0
				c-0.171,0-0.3,0-0.385-0.086c-0.086-0.086-0.171-0.128-0.214-0.214c0-0.086-0.043-0.171-0.043-0.3
				c0-0.086-0.043-0.214-0.043-0.428v-1.027c0-0.385,0.086-0.685,0.171-0.813c0.129-0.128,0.3-0.171,0.514-0.171
				c0.171,0,0.342,0.043,0.428,0.171c0.086,0.128,0.171,0.342,0.171,0.599h0.47c0-0.385-0.086-0.685-0.257-0.899
				c-0.171-0.171-0.428-0.3-0.77-0.3c-0.342,0-0.642,0.086-0.856,0.257c-0.214,0.214-0.342,0.599-0.342,1.241v1.027
				c0,0.514,0.086,0.856,0.3,1.07c0.214,0.214,0.514,0.3,0.898,0.3c0.342,0,0.599-0.086,0.77-0.257
				c0.129-0.214,0.214-0.471,0.214-0.856C134.423,70.812,133.909,70.812,133.909,70.812z M135.664,68.116h-0.428v2.61h0.428V68.116z
				 M135.193,71.839h0.471v-0.471h-0.471V71.839z M129.288,70.769v-0.3l0,0c-0.171,0-0.3-0.086-0.385-0.214
				c-0.086-0.086-0.128-0.342-0.128-0.642l0.514,0v-0.342h-0.514c0-0.342,0.043-0.556,0.128-0.685
				c0.086-0.128,0.214-0.171,0.385-0.171v-0.342c-0.3,0-0.514,0.086-0.685,0.257c-0.171,0.171-0.257,0.513-0.257,1.07
				c0,0.428,0.043,0.77,0.171,1.027C128.646,70.641,128.903,70.769,129.288,70.769L129.288,70.769z M126.592,68.073v0.342l0,0
				c0.214,0,0.342,0.086,0.428,0.3c0.043,0.171,0.043,0.471,0.043,0.813c0,0.257,0,0.471-0.086,0.642
				c-0.043,0.171-0.171,0.257-0.385,0.257l0,0v0.342c0.171-0.043,0.342-0.129,0.471-0.3v1.369l0.385,0v-3.723h-0.385v0.3
				c-0.043-0.128-0.129-0.214-0.257-0.257C126.763,68.116,126.678,68.073,126.592,68.073L126.592,68.073z M126.592,70.769v-0.342
				c-0.214,0-0.342-0.086-0.428-0.257c-0.043-0.128-0.086-0.428-0.086-0.813c0-0.3,0.043-0.513,0.086-0.685
				c0.043-0.171,0.214-0.257,0.428-0.257v-0.342c-0.043,0-0.086,0-0.128,0c-0.257,0-0.471,0.086-0.599,0.257
				c-0.171,0.171-0.214,0.514-0.214,1.027c0,0.471,0.043,0.813,0.129,1.07c0.086,0.214,0.342,0.342,0.727,0.342
				C126.506,70.769,126.549,70.769,126.592,70.769L126.592,70.769z M122.741,68.073v0.342l0,0c0.214,0,0.342,0.086,0.385,0.3
				c0.086,0.171,0.086,0.471,0.086,0.813c0,0.257,0,0.471-0.086,0.642c-0.043,0.171-0.171,0.257-0.385,0.257l0,0v0.342
				c0.171-0.043,0.342-0.129,0.471-0.3v1.369l0.428,0v-3.723h-0.428v0.3c-0.086-0.128-0.171-0.214-0.257-0.257
				C122.912,68.116,122.826,68.073,122.741,68.073L122.741,68.073z M122.741,70.769v-0.342c-0.214,0-0.342-0.086-0.428-0.257
				c-0.043-0.128-0.086-0.428-0.086-0.813c0-0.3,0-0.513,0.086-0.685c0.043-0.171,0.171-0.257,0.428-0.257v-0.342
				c-0.043,0-0.086,0-0.128,0c-0.257,0-0.471,0.086-0.599,0.257c-0.171,0.171-0.257,0.514-0.257,1.027
				c0,0.471,0.086,0.813,0.171,1.07c0.086,0.214,0.342,0.342,0.727,0.342C122.655,70.769,122.698,70.769,122.741,70.769
				L122.741,70.769z M120.002,68.073v0.342c0.129,0,0.214,0.086,0.3,0.214c0.128,0.128,0.171,0.385,0.171,0.77
				c-0.214,0-0.342,0-0.471,0v0.3c0.129,0.043,0.3,0.043,0.471,0.043c0,0.214-0.043,0.428-0.086,0.513
				c-0.043,0.128-0.171,0.214-0.385,0.214l0,0v0.3c0,0,0,0,0.043,0c0.3,0,0.514-0.086,0.642-0.214
				c0.129-0.128,0.214-0.3,0.214-0.556v-1.241c0-0.214,0-0.428,0.043-0.642l-0.471,0v0.385c-0.086-0.171-0.171-0.257-0.257-0.342
				C120.13,68.116,120.088,68.116,120.002,68.073z M120.002,70.769v-0.3c-0.128-0.043-0.214-0.043-0.3-0.129
				c-0.043-0.043-0.086-0.171-0.086-0.3v-0.043l-0.471,0c0,0.257,0.086,0.471,0.214,0.599
				C119.531,70.726,119.745,70.769,120.002,70.769L120.002,70.769z M120.002,69.699v-0.3c-0.086-0.043-0.171-0.043-0.257-0.086
				c-0.128-0.043-0.214-0.171-0.214-0.428c0-0.128,0-0.257,0.086-0.342c0.086-0.086,0.171-0.128,0.3-0.128c0.043,0,0.043,0,0.086,0
				v-0.342c-0.086,0-0.128,0-0.214,0c-0.257,0-0.428,0.086-0.513,0.214c-0.129,0.129-0.171,0.342-0.171,0.642
				c0,0.342,0.128,0.556,0.342,0.642C119.617,69.656,119.788,69.699,120.002,69.699z M109.005,68.073v0.342
				c0.128,0,0.214,0.086,0.3,0.214c0.129,0.128,0.171,0.385,0.171,0.77c-0.214,0-0.342,0-0.471,0v0.3
				c0.128,0.043,0.3,0.043,0.471,0.043c0,0.214-0.043,0.428-0.086,0.513c-0.043,0.128-0.171,0.214-0.385,0.214l0,0v0.3
				c0,0,0,0,0.043,0c0.3,0,0.514-0.086,0.642-0.214c0.128-0.128,0.214-0.3,0.214-0.556v-1.241c0-0.214,0-0.428,0.043-0.642l-0.471,0
				v0.385c-0.086-0.171-0.171-0.257-0.257-0.342C109.133,68.116,109.09,68.116,109.005,68.073z M112.214,69.87
				c0,0.214-0.043,0.342-0.128,0.428c-0.043,0.086-0.129,0.129-0.257,0.129c-0.171,0-0.3-0.043-0.385-0.171
				c-0.085-0.129-0.128-0.342-0.128-0.685c0-0.428,0.043-0.727,0.086-0.899c0.086-0.171,0.214-0.257,0.428-0.257
				c0.128,0,0.214,0.043,0.3,0.171c0.043,0.086,0.086,0.257,0.086,0.385l0.471,0c0-0.3-0.086-0.556-0.3-0.685
				c-0.171-0.128-0.342-0.214-0.556-0.214c-0.3,0-0.556,0.086-0.727,0.257c-0.171,0.171-0.257,0.514-0.257,1.07
				c0,0.428,0.086,0.77,0.214,1.027c0.128,0.214,0.385,0.342,0.77,0.342c0.556,0,0.813-0.3,0.813-0.899L112.214,69.87L112.214,69.87
				z M114.953,70.726h0.428v-2.054c0-0.171,0-0.342,0.043-0.556l-0.471,0v0.3c-0.171-0.214-0.385-0.342-0.685-0.342
				c-0.471,0-0.685,0.214-0.685,0.685v1.968h0.428v-1.797c0-0.171,0.043-0.3,0.086-0.385c0.086-0.086,0.214-0.171,0.342-0.171
				c0.129,0,0.257,0.086,0.342,0.171c0.129,0.086,0.171,0.257,0.171,0.471L114.953,70.726L114.953,70.726z M116.707,68.116h-0.428
				v3.723h0.428V68.116z M117.606,70.726v0.513l0.428,0.171v-0.685h0.556v-0.342h-0.556v-1.583c0-0.129,0-0.214,0.043-0.257
				c0.043-0.086,0.171-0.129,0.342-0.129l0.171,0.043v-0.342c-0.043,0-0.086,0-0.171,0c-0.129-0.043-0.171-0.043-0.214-0.043
				c-0.385,0-0.599,0.171-0.599,0.471v1.84l-0.428,0v0.342H117.606L117.606,70.726z M105.71,68.116v3.723h1.84v-0.428h-1.369v-1.198
				h1.327v-0.385l-1.327,0v-1.712C106.18,68.116,105.71,68.116,105.71,68.116z M109.005,70.769v-0.3
				c-0.129-0.043-0.214-0.043-0.3-0.129c-0.043-0.043-0.086-0.171-0.086-0.3v-0.043l-0.471,0c0,0.257,0.086,0.471,0.214,0.599
				C108.534,70.726,108.748,70.769,109.005,70.769z M109.005,69.699v-0.3c-0.086-0.043-0.171-0.043-0.257-0.086
				c-0.129-0.043-0.214-0.171-0.214-0.428c0-0.128,0-0.257,0.086-0.342c0.086-0.086,0.171-0.128,0.3-0.128c0.043,0,0.043,0,0.086,0
				v-0.342c-0.086,0-0.129,0-0.214,0c-0.257,0-0.428,0.086-0.514,0.214c-0.128,0.129-0.171,0.342-0.171,0.642
				c0,0.342,0.129,0.556,0.342,0.642C108.619,69.656,108.791,69.699,109.005,69.699"/>
			<path id="path2838" fill="#0B0C0B" d="M105.667,75.69H209.38v1.027H105.667V75.69L105.667,75.69z"/>
			<path id="path2840" fill="#0B0C0B" d="M189.838,80.269v1.027l0,0c0.77,0,1.284,0.342,1.583,1.07
				c0.299,0.727,0.428,1.797,0.428,3.252s-0.129,2.525-0.428,3.252c-0.3,0.727-0.813,1.07-1.583,1.07l0,0v0.984l0,0
				c1.113,0,1.968-0.471,2.525-1.412c0.556-0.941,0.813-2.225,0.813-3.894c0-1.669-0.257-2.953-0.813-3.894
				C191.807,80.782,190.951,80.269,189.838,80.269L189.838,80.269z M200.75,80.697c0-0.128-0.086-0.214-0.214-0.214h-0.813
				c-0.086,0-0.171,0.086-0.214,0.171l-3.466,7.36c-0.171,0.428-0.342,0.856-0.385,1.327l-0.043,0
				c0.043-0.3,0.086-0.514,0.128-0.727c0-0.214,0-0.428,0-0.642v-7.275c0-0.128-0.043-0.214-0.171-0.214h-0.77
				c-0.128,0-0.171,0.086-0.171,0.214v9.842c0,0.128,0.043,0.171,0.171,0.171h1.027c0.086,0,0.171-0.043,0.214-0.128l3.295-6.932
				c0.086-0.171,0.129-0.342,0.171-0.556c0.086-0.214,0.129-0.428,0.171-0.599h0.043c0,0.086-0.043,0.257-0.086,0.428
				c-0.043,0.214-0.043,0.385-0.043,0.514v7.103c0,0.128,0.043,0.171,0.171,0.171h0.77c0.129,0,0.214-0.043,0.214-0.171
				L200.75,80.697L200.75,80.697z M189.838,90.924V89.94c-0.77,0-1.327-0.385-1.626-1.113c-0.3-0.727-0.428-1.797-0.428-3.209
				c0-1.455,0.129-2.568,0.428-3.252c0.257-0.727,0.813-1.07,1.626-1.07v-1.027c-1.155,0-2.011,0.471-2.568,1.412
				c-0.556,0.941-0.813,2.268-0.813,3.937c0,1.669,0.257,2.952,0.813,3.894C187.827,90.453,188.683,90.924,189.838,90.924z
				 M170.796,83.564v1.027h1.241l-0.898,3.295c-0.086,0.342-0.129,0.599-0.214,0.856c-0.043,0.257-0.086,0.428-0.128,0.556l0,0
				v1.412l0.471,0c0.129,0,0.171-0.043,0.214-0.128l2.995-9.757l0.086-0.257c0-0.043-0.043-0.086-0.214-0.086l-0.899,0
				c-0.171,0-0.257,0.086-0.257,0.171l-0.856,2.91H170.796z M180.895,81.638c0.086-0.086,0.128-0.128,0.128-0.214
				c0-0.128-0.257-0.385-0.77-0.685c-0.514-0.3-1.07-0.471-1.626-0.471c-1.198,0-2.097,0.513-2.653,1.498
				c-0.514,0.941-0.813,2.268-0.813,3.937c0,1.583,0.257,2.867,0.77,3.808c0.514,0.941,1.369,1.412,2.568,1.412
				c0.599,0,1.155-0.129,1.626-0.428c0.513-0.3,0.77-0.556,0.77-0.727c0-0.043-0.043-0.128-0.086-0.171l-0.3-0.428
				c-0.086-0.086-0.128-0.128-0.171-0.128c-0.257,0.257-0.556,0.428-0.898,0.642c-0.3,0.171-0.599,0.257-0.899,0.257
				c-0.77,0-1.284-0.342-1.583-0.984c-0.3-0.685-0.428-1.712-0.428-3.081c0-1.455,0.171-2.61,0.513-3.381
				c0.342-0.813,0.856-1.198,1.583-1.198c0.385,0,0.77,0.129,1.198,0.428c0.214,0.129,0.428,0.3,0.642,0.428
				c0,0,0.043,0,0.086-0.043l0.043-0.043L180.895,81.638L180.895,81.638z M185.944,80.697c0-0.128-0.043-0.214-0.171-0.214h-3.937
				c-0.129,0-0.214,0.086-0.214,0.214v0.599c0,0.128,0.086,0.171,0.214,0.171h1.327v8.302h-1.327c-0.129,0-0.214,0.043-0.214,0.171
				v0.599c0,0.128,0.086,0.171,0.214,0.171h3.937c0.128,0,0.171-0.043,0.171-0.171V89.94c0-0.128-0.043-0.171-0.171-0.171h-1.369
				v-8.302h1.369c0.128,0,0.171-0.043,0.171-0.171C185.944,81.296,185.944,80.697,185.944,80.697z M170.796,90.71v-1.412
				c-0.043-0.214-0.043-0.342-0.086-0.428c0-0.043-0.086-0.385-0.257-0.984l-0.899-3.295h1.241v-1.027h-1.54l-0.727-2.91
				c-0.043-0.086-0.128-0.171-0.3-0.171h-0.899c-0.086,0-0.128,0.043-0.171,0.043v0.257v0.043l2.995,9.757
				c0.043,0.086,0.129,0.128,0.257,0.128H170.796L170.796,90.71z M167.159,90.41L167.159,90.41l0.086,0.214
				c0,0.043-0.043,0.086-0.086,0.086C167.159,90.71,167.159,90.41,167.159,90.41z M167.159,90.71v-0.3l-0.214-0.556
				c-0.043-0.128-0.086-0.171-0.214-0.171h-2.097v-8.986c0-0.128-0.086-0.214-0.214-0.214h-0.856c-0.128,0-0.171,0.086-0.171,0.214
				v8.986h-2.225c-0.128,0-0.171,0.043-0.171,0.171v0.685c0,0.128,0.043,0.171,0.214,0.171h5.82
				C167.116,90.71,167.159,90.71,167.159,90.71L167.159,90.71z M167.159,80.782l-0.043-0.214c0,0,0-0.043,0.043-0.043V80.782z
				 M149.7,84.848v1.07c0.385,0.043,0.727,0.171,0.984,0.385c0.342,0.257,0.556,0.813,0.556,1.669c0,0.727-0.171,1.198-0.513,1.412
				c-0.3,0.171-0.642,0.257-1.027,0.3v1.027c0.727,0,1.369-0.171,1.883-0.471c0.599-0.3,0.856-1.07,0.856-2.225
				c0-1.156-0.3-1.968-0.898-2.482C151.026,85.147,150.427,84.89,149.7,84.848z M160.012,83.264c0-0.941-0.3-1.669-0.813-2.182
				c-0.556-0.513-1.369-0.813-2.482-0.813c-1.113,0-1.883,0.257-2.354,0.77c-0.514,0.513-0.77,1.241-0.77,2.225v7.275
				c0,0.129,0.086,0.171,0.214,0.171l0.856,0c0.129,0,0.171-0.043,0.171-0.171v-7.275c0-0.642,0.129-1.113,0.428-1.455
				c0.3-0.342,0.77-0.514,1.455-0.514c1.369,0,2.054,0.642,2.054,1.968v7.275c0,0.128,0.043,0.171,0.171,0.171h0.856
				c0.129,0,0.214-0.043,0.214-0.171C160.012,90.539,160.012,83.264,160.012,83.264z M149.7,90.71v-1.027c-0.128,0-0.257,0-0.385,0
				h-1.156v-3.808h0.984c0.171,0,0.385,0,0.556,0.043v-1.07c-0.171-0.043-0.3-0.043-0.471-0.043l-1.069,0v-4.108
				c0-0.128-0.086-0.214-0.171-0.214h-0.899c-0.086,0-0.171,0.086-0.171,0.214v9.842c0,0.128,0.086,0.171,0.171,0.171h2.354
				C149.528,90.71,149.614,90.71,149.7,90.71z M132.54,80.269v1.027l0,0c0.813,0,1.327,0.342,1.626,1.07
				c0.299,0.727,0.428,1.797,0.428,3.252s-0.129,2.525-0.428,3.252c-0.3,0.727-0.813,1.07-1.626,1.07l0,0v0.984l0,0
				c1.155,0,2.011-0.471,2.568-1.412c0.556-0.941,0.813-2.225,0.813-3.894c0-1.669-0.257-2.953-0.813-3.894
				C134.551,80.782,133.695,80.269,132.54,80.269L132.54,80.269L132.54,80.269z M144.95,80.697c0-0.128-0.043-0.214-0.171-0.214
				h-0.856c-0.129,0-0.171,0.086-0.171,0.214l-0.257,7.66c0,0.171,0,0.3,0,0.471c0,0.171,0,0.3,0,0.471l0,0
				c0-0.342-0.086-0.685-0.171-1.027l-1.84-5.221c-0.043-0.128-0.128-0.171-0.214-0.171l-0.428,0c-0.129,0-0.214,0.043-0.257,0.171
				l-1.712,5.221c-0.129,0.342-0.171,0.685-0.171,1.027h-0.043c0-0.128,0-0.3,0-0.428c0-0.171,0-0.342,0-0.471l-0.214-7.703
				c0-0.128-0.043-0.214-0.171-0.214h-0.856c-0.129,0-0.171,0.086-0.171,0.214l0.556,9.842c0,0.128,0.043,0.171,0.171,0.171h0.984
				c0.043,0,0.128-0.043,0.128-0.171l1.797-5.092c0-0.043,0.043-0.129,0.043-0.257c0.043-0.129,0.086-0.342,0.128-0.685
				c0.043,0.128,0.129,0.3,0.171,0.513c0.043,0.257,0.086,0.385,0.086,0.428l1.754,5.092c0.043,0.128,0.086,0.171,0.171,0.171h0.984
				c0.086,0,0.171-0.043,0.171-0.171L144.95,80.697L144.95,80.697z M108.534,81.638c0.556,0.171,0.984,0.471,1.241,0.941
				c0.342,0.727,0.514,1.797,0.514,3.209c0,1.541-0.214,2.568-0.642,3.081c-0.257,0.342-0.642,0.599-1.113,0.727v1.07
				c0.856-0.129,1.541-0.428,2.054-0.899c0.727-0.642,1.07-2.011,1.07-4.065c0-1.797-0.342-3.124-0.984-3.98
				c-0.471-0.599-1.198-0.984-2.14-1.155L108.534,81.638L108.534,81.638z M132.54,90.924V89.94c-0.77,0-1.284-0.385-1.583-1.113
				c-0.3-0.727-0.428-1.797-0.428-3.209c0-1.455,0.129-2.568,0.428-3.252c0.257-0.727,0.813-1.07,1.583-1.07v-1.027
				c-1.156,0-1.968,0.471-2.525,1.412c-0.556,0.941-0.813,2.268-0.813,3.937c0,1.669,0.257,2.952,0.813,3.894
				C130.572,90.453,131.385,90.924,132.54,90.924z M118.248,80.697c0-0.128-0.086-0.214-0.214-0.214h-4.622
				c-0.086,0-0.171,0.086-0.171,0.214v9.842c0,0.128,0.086,0.171,0.171,0.171h4.664c0.086,0,0.128,0,0.128,0
				c0.043-0.043,0.043-0.043,0.086-0.086l-0.086-0.171l-0.171-0.642c-0.043-0.086-0.128-0.129-0.257-0.129l-3.295,0v-3.295h2.91
				c0.128,0,0.214-0.086,0.214-0.214v-0.642c0-0.128-0.086-0.214-0.214-0.214l-2.91,0v-3.766h3.595c0.086,0,0.171-0.043,0.171-0.171
				V80.697L118.248,80.697z M128.603,81.638c0.043-0.086,0.086-0.128,0.086-0.214c0-0.128-0.257-0.385-0.77-0.685
				c-0.514-0.3-1.028-0.471-1.583-0.471c-1.198,0-2.097,0.513-2.61,1.498c-0.556,0.941-0.813,2.268-0.813,3.937
				c0,1.583,0.257,2.867,0.727,3.808c0.514,0.941,1.369,1.412,2.61,1.412c0.556,0,1.07-0.129,1.583-0.428
				c0.471-0.3,0.727-0.556,0.727-0.727c0-0.043,0-0.128-0.086-0.171l-0.3-0.428c-0.043-0.086-0.128-0.128-0.171-0.128
				c-0.257,0.257-0.556,0.428-0.813,0.642c-0.342,0.171-0.642,0.257-0.941,0.257c-0.77,0-1.284-0.342-1.583-0.984
				c-0.3-0.685-0.428-1.712-0.428-3.081c0-1.455,0.171-2.61,0.514-3.381c0.342-0.813,0.856-1.198,1.626-1.198
				c0.342,0,0.727,0.129,1.156,0.428c0.171,0.129,0.385,0.3,0.599,0.428c0.043,0,0.043,0,0.086-0.043l0.043-0.043L128.603,81.638
				L128.603,81.638z M107.721,81.552c0.3,0,0.599,0.043,0.813,0.086v-1.07c-0.3-0.043-0.685-0.086-1.07-0.086h-1.712
				c-0.129,0-0.171,0.086-0.171,0.214v9.842c0,0.128,0.043,0.171,0.171,0.171h1.883c0.3,0,0.642,0,0.898-0.043v-1.07
				c-0.257,0.043-0.556,0.086-0.941,0.086l-0.813,0v-8.13H107.721L107.721,81.552z"/>
		</g>
	</g>
	<g id="g3328" transform="matrix(2.524437,0,0,2.524437,1578.7065,-1394.1391)">
		<path id="path2893" sodipodi:nodetypes="cccc" fill="#00878A" d="M-625.367,959.422h405.63v-16.147h-405.63"/>
		<path id="path2891" fill="#94DEDB" d="M-625.367,943.276v8.434h405.635v-8.434"/>
	</g>
</g>
<rect x="40.5" y="489.5" fill="none" width="453" height="165"/>
</svg>
