<?xml version="1.0" encoding="utf-8"?>
<!-- Generator: Adobe Illustrator 17.0.0, SVG Export Plug-In . SVG Version: 6.00 Build 0)  -->
<!DOCTYPE svg PUBLIC "-//W3C//DTD SVG 1.1//EN" "http://www.w3.org/Graphics/SVG/1.1/DTD/svg11.dtd">
<svg version="1.1" id="Layer_1" xmlns="http://www.w3.org/2000/svg" xmlns:xlink="http://www.w3.org/1999/xlink" x="0px" y="0px"
	 width="2187.219px" height="804.08px" viewBox="166.211 811.275 2187.219 804.08"
	 enable-background="new 166.211 811.275 2187.219 804.08" xml:space="preserve">
<g>
	<path fill="#BD2B30" d="M451.538,1134.829c-63.682,0-113.563,11.673-150.722,37.145c-36.082,24.409-54.123,58.377-54.123,99.776
		c0,15.914,2.127,30.777,8.482,42.45c5.318,11.673,13.8,22.295,25.473,31.841c11.673,8.482,25.473,15.914,41.387,23.359
		c15.927,6.355,33.968,11.673,54.136,18.041c19.104,5.292,33.968,9.546,45.641,13.8c11.673,3.165,20.168,7.419,27.587,11.673
		c6.368,4.228,10.609,8.482,12.736,12.71c2.127,4.254,4.254,8.508,4.254,14.863c0,14.863-7.432,27.587-22.282,35.031
		c-13.8,8.482-36.095,12.71-66.872,12.71c-29.727,0-57.313-7.419-83.85-14.85c-27.6-7.419-82.786-27.613-82.786-27.613l-16.99,87.04
		c20.168,9.546,43.514,17.003,72.164,23.359c27.6,5.318,59.44,8.482,94.472,8.482c31.841,0,60.504-2.127,85.964-8.482
		c25.473-5.292,47.768-13.8,67.936-26.523c18.514-10.215,33.918-25.252,44.577-43.514c10.609-19.13,15.927-39.286,15.927-63.682
		c0-28.676-9.546-50.971-29.727-67.936c-20.168-16.977-53.072-31.841-99.763-43.514c-16.99-5.292-31.841-9.546-44.577-13.8
		c-13.8-4.228-22.295-8.482-28.663-12.71c-6.368-3.191-11.673-7.445-13.787-11.673c-2.127-4.254-3.191-10.609-3.191-17.003
		c0-13.774,7.432-24.396,22.295-32.891c14.863-7.432,37.145-11.673,63.682-11.673c28.65,0,53.059,7.432,78.545,13.787
		c23.346,5.318,70.05,22.295,70.05,22.295l19.104-84.9c-19.104-8.495-42.45-14.863-70.05-20.168
		C512.042,1136.956,482.328,1134.829,451.538,1134.829L451.538,1134.829z M904.753,1405.469
		c-6.368,27.613-16.977,47.781-31.841,60.517c-13.8,12.71-32.904,19.104-57.313,19.104s-41.387-4.254-52.009-12.736
		c-10.609-9.546-15.927-22.295-15.927-40.323c0-4.254,1.064-9.546,1.064-14.863c1.064-6.355,2.127-12.736,4.254-18.041
		l59.44-256.853H704.163l-59.44,256.853c-2.127,7.419-3.191,14.85-4.241,23.359c-2.127,8.482-2.127,15.914-2.127,24.396
		c0,40.349,13.787,70.063,41.386,89.167c28.65,20.168,70.05,29.714,124.186,29.714c61.554,0,108.259-12.736,141.163-39.26
		c31.841-25.485,55.186-67.936,68.986-125.236l60.504-258.98H966.321L904.753,1405.469L904.753,1405.469z M1452.427,1142.26
		l-55.186,239.85l-104.018-239.85h-119.932l-95.535,414.994h98.713l65.808-287.63l122.058,287.63h91.294l95.522-414.994H1452.427z
		 M2271.831,883.28c-110.399-110.386-353.452-46.704-541.306,141.163c-36.103,36.187-68.791,75.626-97.649,117.817l91.268,182.562
		l-213.353,232.431h127.363l130.554-142.24l72.164,142.24h118.881c56.263-31.841,118.881-80.659,170.89-132.681
		C2318.522,1236.719,2382.204,994.729,2271.831,883.28L2271.831,883.28z M2114.729,1408.659
		c-50.945,49.882-113.563,94.459-169.826,119.944l-98.687-197.439l235.635-257.917h-127.389l-153.886,167.712l-83.849-167.712
		c9.546-10.609,19.104-22.282,29.714-32.904c153.912-152.836,360.871-195.299,462.761-94.459
		C2310.04,1047.789,2267.577,1254.773,2114.729,1408.659L2114.729,1408.659z"/>
</g>
</svg>
