<?xml version="1.0" encoding="utf-8"?>
<!-- Generator: Adobe Illustrator 17.0.0, SVG Export Plug-In . SVG Version: 6.00 Build 0)  -->
<!DOCTYPE svg PUBLIC "-//W3C//DTD SVG 1.1//EN" "http://www.w3.org/Graphics/SVG/1.1/DTD/svg11.dtd">
<svg version="1.1" id="Layer_1" xmlns="http://www.w3.org/2000/svg" xmlns:xlink="http://www.w3.org/1999/xlink" x="0px" y="0px"
	 width="200.5px" height="34.667px" viewBox="0 0 200.5 34.667" enable-background="new 0 0 200.5 34.667" xml:space="preserve">
<g>
	<path fill="#103773" d="M162.374,29.418c0.276,3.074,0.276,3.074-2.671,3.074c-41.781,0-83.562,0-125.343,0
		c-3.058,0-3.058-0.003-2.935-3.052c0.779-0.008,1.559-0.021,2.338-0.021C76.633,29.417,119.504,29.418,162.374,29.418z"/>
	<path fill="#60C7EF" d="M31.486,25.094c-0.036-0.597-0.066-1.194-0.11-1.79c-0.063-0.848,0.33-1.205,1.168-1.164
		c0.598,0.03,1.2,0,1.8,0c41.758,0,83.516,0,125.274,0c2.925,0,2.925,0,2.732,2.939C118.729,25.085,75.108,25.089,31.486,25.094z"/>
	<path fill="#FCFD08" d="M162.239,25.805c0.378,0.939,0.238,1.889,0.064,2.84c-43.552,0.006-87.105,0.012-130.658,0.018
		c-0.134-0.961-0.28-1.923,0.037-2.878c0.359,0.009,0.719,0.024,1.078,0.024C75.919,25.809,119.079,25.807,162.239,25.805z"/>
	<path fill="#103773" d="M2.157,31.968c-0.773-0.348-0.408-1.04-0.41-1.562C1.72,22.564,1.754,14.72,1.701,6.877
		C1.691,5.438,2.07,4.856,3.618,4.88c5.208,0.081,10.417,0.052,15.626,0.016c1.159-0.008,1.784,0.275,1.779,1.591
		c-0.031,8.142-0.014,16.285-0.021,24.428c0,0.392,0.117,0.87-0.437,1.046c0,0-0.017-0.016-0.017-0.016c0-7.15,0-14.3,0-21.823
		c-1.097,0.781-1.949,1.177-2.936,1.122c-0.537-0.03-0.848,0.285-0.639,0.777c0.398,0.936-0.373,2.229,0.892,2.887
		c0.286,0.149,0.31,0.396,0.019,0.492c-1.125,0.372-0.604,1.296-0.665,1.983c-0.216,2.421,0.335,4.874-0.296,7.281
		c-0.249-2.89,0.28-5.804-0.274-8.684c-0.057-0.056-0.109-0.116-0.156-0.181c-0.012-0.134-0.023-0.268-0.035-0.402
		c-0.941-0.801-2.061-0.373-3.069-0.337c-2.288,0.082-4.611-0.458-6.866,0.313c-0.025,0.127-0.049,0.255-0.074,0.382
		c-0.081,0.047-0.122,0.118-0.122,0.212c-0.284,2.947-0.418,5.893,0.062,8.835c0.539,2.646,2.188,4.249,4.61,4.509
		c2.057,0.221,3.449-1.033,4.898-2.17c0.07,0.791,0.583,0.62,1.009,0.406c1.47-0.741,1.547,0.099,1.506,1.231
		c-0.044,1.183,0.006,2.37,0.014,3.555c-5.375,0.031-10.75,0.062-16.126,0.093C2.25,32.27,2.2,32.116,2.151,31.962
		c1.934,0.339,2.548-0.563,2.268-2.367c-0.073-0.468,0.006-0.958-0.01-1.436c-0.027-0.82,0.309-1.096,1.1-0.801
		c0.372,0.139,0.744,0.448,1.228,0.069c-0.518-0.996-0.996-2.014-0.988-3.203c0.022-3.413-0.048-6.827,0.004-10.24
		c0.076-4.923,3.199-7.186,8.009-5.86c0.403,0.111,0.89,0.413,0.91-0.296c0.025-0.885,0.704-1.477,1.046-2.464
		c-3.864,0-7.557,0.085-11.243-0.036C2.625,5.267,2.154,5.919,2.171,7.71C2.244,15.795,2.175,23.882,2.157,31.968z M16.096,31.901
		c-3.212-1.58-6.077-2.209-9.077,0C10.036,31.901,12.883,31.901,16.096,31.901z M15.045,10.273
		c-0.548,0.044-1.273-0.159-1.352,0.716c-0.062,0.681,0.306,1.146,1.006,1.22c0.683,0.072,1.15-0.229,1.234-0.959
		C16.007,10.61,15.789,10.209,15.045,10.273z"/>
	<path fill="#103773" d="M82.308,4.77c0.554,0.102,1.247-0.084,1.468,0.705c-0.17,0.374-0.165,0.748,0.019,1.119
		c-0.25,0.465-0.39,1.188-0.769,1.35c-1.441,0.617-1.39,1.89-1.351,3.009c0.056,1.632-0.135,3.23-0.309,4.833
		c-0.076,0.705,0.104,1.668-0.995,1.85c-1.033,0.172-1.788-0.076-2.346-1.127c-0.953-1.795-2.076-3.502-3.153-5.229
		c-0.241-0.387-0.439-0.864-1.054-1.002c-0.499,0.983-0.437,2.078-0.63,3.11c-0.078,0.421,0.086,0.853,0.59,0.978
		c1.135,0.281,1.053,1.043,0.907,1.962c-0.187,1.175-1.011,1.151-1.862,1.206c-2.566,0.166-3.164-0.208-3.053-1.949
		c0.015-0.235,0.004-0.578,0.145-0.682c1.63-1.204,1.143-2.977,1.261-4.579c0.087-1.18,0.382-2.449-1.447-2.688
		c-0.706-0.092-0.516-0.812-0.437-1.348c0.111-0.755,0.318-1.332,1.24-1.496c3.064-0.543,3.639-0.29,5.072,2.426
		c1.053,1.998,2.124,3.987,3.33,6.249c0.826-1.764,0.514-3.333,0.43-4.869c-0.009-0.173-0.272-0.462-0.436-0.477
		c-1.337-0.117-1.466-0.886-1.263-2.009c0.234-1.294,1.215-1.098,2.074-1.197c0.357-0.041,0.716-0.066,1.071-0.098
		C81.312,4.967,81.812,4.946,82.308,4.77z"/>
	<path fill="#103773" d="M193.607,17.727c-1.369,0.127-2.736,0.279-4.108,0.37c-0.695,0.046-1.676,0.311-1.966-0.415
		c-0.36-0.901-0.648-2.363,0.125-2.87c1.41-0.925,0.958-2.132,1.083-3.285c0.077-0.713,0.081-1.433,0.158-2.146
		c0.077-0.711-0.085-1.199-0.915-1.167c-0.796,0.03-1.3-0.236-1.169-1.134c0.112-0.764,0.129-1.679,1.177-1.742
		c3.044-0.183,6.092-0.303,9.139-0.447c0.522-0.025,0.813,0.249,0.788,0.746c-0.065,1.312-0.157,2.624-0.275,3.932
		c-0.041,0.454-0.31,0.785-0.824,0.776c-0.515-0.01-0.845-0.178-1.033-0.763c-0.392-1.217-2.873-1.877-3.936-1.114
		c-0.471,0.338-0.385,0.845-0.368,1.307c0.022,0.572,0.478,0.618,0.909,0.616c0.478-0.002,0.957-0.028,1.434-0.069
		c0.738-0.063,1.16,0.228,1.131,1.001c-0.025,0.655-0.232,1.19-1.025,1.194c-0.658,0.004-1.316-0.003-1.975-0.009
		c-0.691-0.006-0.929,0.394-0.965,1.021c-0.033,0.581,0.226,0.962,0.785,0.991c1.192,0.063,2.388,0.088,3.58,0.06
		c0.711-0.017,0.789-0.628,0.848-1.172c0.089-0.82,0.589-1.186,1.343-1.091c0.862,0.109,0.713,0.857,0.679,1.42
		C197.975,17.998,198.52,17.804,193.607,17.727z"/>
	<path fill="#103773" d="M110.737,4.992c0.838,0,1.695,0.112,2.512-0.021c2.384-0.387,2.261-0.187,2.212,2.254
		c-0.013,0.657-0.121,1.312-0.151,1.97c-0.025,0.545-0.224,0.926-0.794,1.023c-0.622,0.106-0.808-0.317-1-0.794
		c-0.456-1.137-3.056-1.802-3.974-1.016c-0.399,0.341-0.439,0.851-0.364,1.333c0.088,0.557,0.559,0.535,0.98,0.537
		c0.419,0.002,0.84,0.004,1.257-0.027c0.785-0.057,1.304,0.177,1.248,1.076c-0.048,0.78-0.421,1.217-1.254,1.176
		c-0.478-0.023-0.959,0.002-1.437-0.02c-0.689-0.032-1.205,0.155-1.209,0.953c-0.003,0.69,0.434,0.897,1.06,0.928
		c0.717,0.035,1.429,0.152,2.146,0.197c0.96,0.061,1.82-0.011,1.882-1.311c0.034-0.71,0.504-1.084,1.219-1
		c0.732,0.087,0.722,0.679,0.727,1.23c0.001,0.06-0.005,0.12-0.006,0.18c-0.059,3.608-0.162,3.762-3.706,4.064
		c-1.667,0.142-3.349,0.127-5.024,0.146c-0.648,0.007-1.617,0.509-1.819-0.462c-0.205-0.987-0.592-2.211,0.318-3.04
		c1.831-1.667,0.741-3.812,1.064-5.716c0.085-0.499-0.566-0.534-0.957-0.61c-0.797-0.155-1.117-0.588-0.993-1.398
		c0.115-0.756,0.29-1.451,1.222-1.504c1.612-0.091,3.225-0.15,4.838-0.222C110.735,4.942,110.736,4.967,110.737,4.992z"/>
	<path fill="#103773" d="M162.871,18.2c-0.914-0.171-2.24,0.411-2.525-0.792c-0.256-1.076-0.686-2.542,0.958-3.237
		c0.181-0.076,0.284-0.503,0.3-0.775c0.083-1.436,0.131-2.875,0.18-4.313c0.018-0.522-0.082-0.982-0.769-0.926
		c-0.931,0.076-1.565-0.261-1.521-1.272c0.04-0.925,0.643-1.751,1.476-1.772c2.387-0.058,4.739-0.867,7.152-0.314
		c3.015,0.691,4.654,3.065,4.186,6.122c-0.572,3.739-3.221,6.426-6.955,7.02C164.525,18.072,163.685,18.117,162.871,18.2z
		 M163.884,12.27c-0.087,2.161-0.017,2.245,1.782,2.327c0.475,0.022,0.957,0.031,1.427-0.027c1.807-0.225,3.056-1.69,2.949-3.422
		c-0.103-1.665-1.754-2.764-4.314-2.941c-2.194-0.152-1.326,1.643-1.677,2.63C163.857,11.381,163.91,12.013,163.884,12.27z"/>
	<path fill="#103773" d="M49.811,4.461c1.317,0,2.638,0.064,3.949-0.019c1.157-0.073,1.495,0.418,1.349,1.474
		c-0.131,0.948-0.24,1.9-0.319,2.854c-0.044,0.536-0.195,0.952-0.792,1.007c-0.479,0.044-0.747-0.26-0.97-0.653
		c-0.697-1.225-2.353-1.802-3.668-1.387c-0.68,0.215-0.739,0.675-0.754,1.24c-0.02,0.75,0.451,0.902,1.051,0.884
		c0.418-0.012,0.837-0.114,1.251-0.09c0.586,0.035,1.32,0.02,1.191,0.926c-0.092,0.643-0.24,1.35-1.151,1.325
		c-0.597-0.016-1.196-0.093-1.789-0.06c-0.615,0.034-0.942,0.399-1.001,1.046c-0.071,0.777,0.411,0.896,0.991,0.941
		c0.836,0.065,1.671,0.133,2.507,0.186c0.903,0.058,1.694-0.013,1.729-1.231c0.021-0.721,0.498-1.101,1.201-1.015
		c0.777,0.095,0.568,0.778,0.632,1.279c0.015,0.118,0.006,0.24-0.004,0.359c-0.367,4.132,0.549,3.575-3.733,3.704
		c-1.615,0.049-3.227,0.227-4.842,0.244c-0.687,0.008-1.673,0.608-2.013-0.49c-0.333-1.076-0.497-2.213,0.495-3.142
		c0.705-0.659,1.387-4.94,0.893-5.764c-0.159-0.266-0.569-0.565-0.846-0.549C43.612,7.62,44.065,6.448,44,5.685
		c-0.094-1.12,0.831-0.984,1.502-1.004c1.435-0.043,2.873-0.013,4.309-0.013C49.811,4.599,49.811,4.53,49.811,4.461z"/>
	<path fill="#103773" d="M126.403,18.043c-0.782-0.22-1.968,0.491-2.288-0.779c-0.281-1.114-0.32-2.317,1.135-2.825
		c0.238-0.083,0.414-0.248,0.351-0.533c-0.082-0.366-0.388-0.426-0.69-0.431c-0.898-0.013-1.815-0.117-2.688,0.031
		c-0.663,0.112-1.941,0.051-0.695,1.453c0.971,1.092-0.005,2.772-1.502,2.928c-0.595,0.062-1.198,0.1-1.795,0.077
		c-0.802-0.03-1.805,0.174-1.842-1.111c-0.027-0.954-0.503-2.086,1.061-2.421c0.68-0.145,3.229-4.713,3.228-5.413
		c-0.001-0.493-0.384-0.534-0.661-0.729c-0.758-0.534-0.498-1.275-0.342-1.961c0.159-0.701,0.571-1.16,1.364-1.196
		c1.257-0.056,2.513-0.132,3.768-0.226c1.003-0.075,1.133,0.631,1.325,1.354c0.628,2.367,1.273,4.73,1.942,7.087
		c0.14,0.492,0.128,1.17,0.771,1.318c1.129,0.26,1.173,1.001,1.023,1.923c-0.175,1.078-0.958,1.261-1.837,1.335
		C127.494,17.969,126.956,18.003,126.403,18.043z M122.865,10.526c-0.059,0.769,0.548,0.639,0.97,0.684
		c0.37,0.039,0.965,0.191,0.809-0.513c-0.12-0.541-0.194-1.337-0.888-1.362C123.171,9.313,123.096,10.064,122.865,10.526z"/>
	<path fill="#103773" d="M94.945,17.717c-0.885-0.154-2.236,0.526-2.698-0.61c-0.448-1.102-0.195-2.239,0.636-3.465
		c0.977-1.439,0.812-3.438,0.591-5.234c-0.062-0.501-0.563-0.598-0.997-0.551c-0.97,0.105-1.245-0.559-1.344-1.275
		c-0.115-0.828,0.398-1.415,1.15-1.584c2.59-0.58,5.222-0.951,7.836-0.249c3.983,1.07,5.087,6.186,2.187,9.897
		C100.563,16.877,98.382,17.796,94.945,17.717z M97.438,14.294c0.416-0.038,0.836-0.056,1.249-0.118
		c1.828-0.273,3.07-1.589,2.991-3.153c-0.081-1.613-1.932-2.933-4.312-3.043c-2.131-0.099-1.285,1.723-1.695,2.716
		c-0.176,0.427-0.118,0.945-0.206,1.414C95.162,13.714,95.681,14.553,97.438,14.294z"/>
	<path fill="#103773" d="M148.152,14.651c0.85-0.044,1.569-0.117,2.286-0.107c0.538,0.007,1.293-0.376,1.481,0.519
		c0.155,0.736-0.033,1.425-0.628,1.959c-1.68,1.507-7.197,1.79-9.111,0.464c-2.333-1.616-3.032-4.578-1.829-7.759
		c1.493-3.95,4.423-5.472,8.623-4.472c0.41,0.098,0.775,0.126,1.213-0.007c1.892-0.574,2.28-0.241,2.029,1.675
		c-0.155,1.187-0.365,2.366-0.545,3.549c-0.069,0.451-0.239,0.807-0.755,0.852c-0.536,0.047-0.868-0.163-1.119-0.678
		c-0.83-1.701-2.127-2.191-4.434-1.754c-1.878,0.356-2.93,1.436-3.165,3.193c-0.172,1.286,0.61,1.848,1.633,2.232
		C145.281,14.859,146.793,14.627,148.152,14.651z"/>
	<path fill="#103773" d="M174.353,11.979c-0.035-1.445,0.675-2.966-1.137-4.11c-0.966-0.61-0.051-2.409,1.242-2.545
		c0.893-0.094,1.796-0.099,2.696-0.108c0.634-0.006,1.368-0.184,1.598,0.734c0.217,0.868,0.266,1.974-0.537,2.269
		c-1.563,0.575-1.324,1.75-1.407,2.893c-0.017,0.239-0.056,0.477-0.069,0.716c-0.058,1.067-0.721,2.378,1.025,2.754
		c2.158,0.465,3.547-0.153,4.152-1.798c0.427-1.162,0.232-2.374,0.277-3.565c0.028-0.726-0.513-0.886-1.083-0.916
		c-1.054-0.055-1.083-0.802-1.015-1.539c0.068-0.742,0.28-1.423,1.262-1.432c1.079-0.01,2.158-0.109,3.237-0.11
		c0.617,0,1.454-0.226,1.59,0.72c0.125,0.87,0.367,2.061-0.581,2.429c-1.158,0.451-1.093,1.293-1.206,2.134
		c-0.192,1.426-0.196,2.885-0.486,4.287c-0.677,3.276-5.433,5.109-8.096,3.087c-1.425-1.082-1.387-2.837-1.457-4.462
		C174.335,12.939,174.353,12.459,174.353,11.979z"/>
	<path fill="#103773" d="M61.977,17.959c-3.026,0.151-5.738-2.155-5.781-5.143c-0.047-3.301,1.147-6.076,4.087-7.878
		c1.516-0.929,3.113-0.685,4.675-0.18c0.698,0.225,1.241,0.391,1.992-0.009c1.011-0.538,1.591-0.048,1.474,1.12
		c-0.137,1.367-0.276,2.734-0.44,4.098c-0.073,0.604-0.407,0.99-1.067,0.981c-0.598-0.009-0.906-0.383-0.873-0.919
		c0.063-1.048-0.659-1.233-1.414-1.528c-1.513-0.592-2.942-0.354-4.338,0.302c-1.405,0.66-2.07,1.818-1.883,3.349
		c0.186,1.53,1.452,1.732,2.661,1.922c1.792,0.282,3.578,0.015,5.366-0.073c0.594-0.029,1.438-0.572,1.652,0.389
		c0.191,0.86,0.125,1.82-0.909,2.3C65.527,17.457,63.787,17.851,61.977,17.959z"/>
	<path fill="#9CD065" d="M162.239,25.805c-43.16,0.002-86.319,0.004-129.479,0.005c-0.359,0-0.719-0.016-1.078-0.024
		c-0.238-0.182-0.29-0.416-0.196-0.692c43.622-0.005,87.243-0.009,130.865-0.014C162.313,25.322,162.276,25.563,162.239,25.805z"/>
	<path fill="#103773" d="M172.503,28.303c-1.713,0-2.997,0.053-4.276-0.014c-1.496-0.078-2.896-0.471-3.436-2.091
		c-0.426-1.276,0.661-3.444,2.073-4.277c1.302-0.768,2.704-0.968,4.148-0.486c0.905,0.303,1.746,0.742,2.714,0.11
		c0.339-0.221,0.814-0.108,1.001,0.425c0.279,0.799-1.002,3.992-1.778,4.384c2.308,2.004,1.863,4.528-1.041,5.732
		c-2.394,0.992-4.697,0.538-6.919-0.589c-0.557-0.283-1.025-0.687-0.701-1.427c0.276-0.63,0.616-1.166,1.459-1.034
		c1.241,0.194,2.482,0.415,3.732,0.512C170.446,29.624,171.462,29.621,172.503,28.303z M166.798,25.243
		c1.397,1.089,2.913,0.734,4.269,1.05c0.488,0.114,1.092,0.584,1.356-0.106c0.259-0.677-0.147-1.323-0.82-1.606
		C170.004,23.907,168.478,24.076,166.798,25.243z"/>
	<path fill="#103773" d="M37.885,4.471c1.315,0,2.634,0.063,3.944-0.019c1.153-0.072,1.509,0.435,1.387,1.481
		c-0.11,0.948-0.225,1.896-0.303,2.846c-0.047,0.563-0.251,0.872-0.871,0.878c-0.505,0.004-0.862-0.172-0.856-0.673
		c0.012-0.988-0.509-1.173-1.368-1.161c-0.963,0.014-1.23,0.587-1.317,1.363c-0.14,1.246-0.255,2.495-0.376,3.743
		c-0.048,0.496-0.054,0.957,0.603,1.09c1.241,0.25,0.937,1.127,0.8,1.969c-0.156,0.964-0.73,1.279-1.635,1.241
		c-0.476-0.02-0.957,0.077-1.433,0.054c-0.863-0.041-2.056,0.627-2.331-0.848c-0.205-1.096-0.827-2.458,1.094-2.78
		c0.444-0.074,0.472-0.488,0.479-0.853c0.027-1.315,0.045-2.631,0.07-3.946c0.013-0.676-0.162-1.163-0.978-1.181
		c-0.659-0.014-1.148,0.053-1.281,0.87c-0.118,0.723-0.466,1.552-1.321,1.423c-1.059-0.159-0.803-1.18-0.8-1.915
		c0.016-3.248,0.356-3.56,3.624-3.515c0.956,0.013,1.913,0.002,2.87,0.002C37.885,4.518,37.885,4.495,37.885,4.471z"/>
	<path fill="#103773" d="M156.468,4.984c0.884,0.329,2.159-0.397,2.528,0.847c0.294,0.992-0.041,1.882-1.13,2.545
		c-1.252,0.762-1.236,5.365-0.114,6.401c0.697,0.643,0.276,1.312,0.133,1.988c-0.223,1.05-1.015,1.277-1.903,1.236
		c-0.907-0.041-2.046,0.42-2.622-0.58c-0.488-0.846-0.531-1.952,0.188-2.716c1.58-1.678,0.838-3.734,1.075-5.625
		c0.06-0.477-0.322-0.759-0.785-0.827c-0.705-0.104-1.364-0.26-1.162-1.197c0.166-0.767,0.374-1.548,1.338-1.702
		C154.842,5.222,155.67,5.104,156.468,4.984z"/>
	<path fill="#103773" d="M87.348,4.882c2.988-0.021,3.382,0.31,3.027,2.212c-0.042,0.226-0.079,0.569-0.225,0.642
		c-2.615,1.305-0.946,3.923-1.774,5.771c-0.114,0.255,0.119,0.578,0.419,0.717c1.115,0.518,0.95,1.35,0.6,2.267
		c-0.399,1.044-1.149,1.169-2.159,1.076c-2.143-0.198-3.39-1.574-2.225-2.736c1.779-1.776,0.728-3.813,1.272-5.644
		c0.231-0.777-0.02-1.313-0.935-1.299c-1.259,0.02-0.923-0.896-1.05-1.631c-0.173-1.002,0.564-1.093,1.137-1.216
		C86.188,4.88,86.982,4.907,87.348,4.882z"/>
	<path fill="#294200" d="M162.374,29.418c-42.871,0-85.741-0.001-128.612,0c-0.779,0-1.559,0.014-2.338,0.021
		c-0.124-0.261,0.014-0.399,0.234-0.498c0.415,0.036,0.831,0.104,1.246,0.104c43.145,0,86.291-0.005,129.436-0.009
		C162.353,29.163,162.363,29.291,162.374,29.418z"/>
	<path fill="#9CD065" d="M162.342,29.036c-43.145,0.005-86.291,0.009-129.436,0.009c-0.416,0-0.831-0.068-1.246-0.104
		c-0.077-0.089-0.081-0.182-0.014-0.278c43.552-0.006,87.105-0.012,130.657-0.018C162.315,28.776,162.329,28.906,162.342,29.036z"/>
	<path fill="#103773" d="M181.629,32.359c-0.724-0.286-1.81,0.495-2.184-0.676c-0.294-0.918,0.045-1.64,0.813-2.358
		c0.64-0.598,0.761-1.565-0.509-1.878c-0.759-0.187-0.896-0.688-0.799-1.359c0.095-0.662,0.417-1.079,1.113-1.217
		c1.56-0.309,3.125,0.09,4.708-0.114c1.028-0.133,1.539,0.868,1.33,1.899c-0.215,1.06-0.912,1.773-2.055,1.451
		c-0.759-0.214-1.263-0.301-1.525,0.57c-0.262,0.871,0.308,0.952,0.946,1.116c0.852,0.219,0.701,1.016,0.697,1.639
		c-0.005,0.666-0.5,0.903-1.102,0.922C182.584,32.371,182.105,32.359,181.629,32.359z"/>
	<path fill="#103773" d="M194.012,23.77c-0.12,1.209-0.301,2.632-0.387,4.06c-0.045,0.751-0.453,1.608,0.739,2.08
		c0.562,0.223,0.253,1.073,0.115,1.652c-0.141,0.591-0.583,0.684-1.096,0.686c-0.417,0.001-0.834,0.03-1.252,0.042
		c-0.537,0.015-1.099,0.084-1.418-0.504c-0.318-0.587-0.28-1.298,0.107-1.697c1.615-1.665,0.781-3.677,0.907-5.545
		c0.04-0.592-0.533-0.694-0.954-0.916c-0.591-0.311-0.492-0.891-0.422-1.424c0.072-0.546,0.427-0.775,0.944-0.919
		C193.591,20.641,194.115,21.065,194.012,23.77z"/>
	<path fill="#9CD065" d="M2.299,32.424c5.375-0.031,10.75-0.062,16.126-0.093c0.321-0.099,0.643-0.198,0.964-0.297
		c0.246,0.414,0.688,0.243,1.038,0.349c-0.459,0.421-1.023,0.236-1.539,0.238c-5.01,0.013-10.02,0.013-15.03-0.001
		C3.337,32.618,2.78,32.785,2.299,32.424z"/>
	<path fill="#103773" d="M188.037,29.347c0.794,0.125,1.453,0.4,1.415,1.31c-0.035,0.83-0.683,1.091-1.375,1.074
		c-0.783-0.019-1.372-0.404-1.347-1.295C186.753,29.591,187.342,29.373,188.037,29.347z"/>
	<path fill="#103773" d="M176.782,29.509c0.643,0.08,1.203,0.29,1.21,1.044c0.006,0.695-0.428,1.108-1.097,1.179
		c-0.712,0.075-1.148-0.303-1.165-1.021C175.715,30.026,176.091,29.61,176.782,29.509z"/>
	<path fill="#103773" d="M198.03,30.352c0.019,0.897-0.305,1.197-0.946,1.245c-0.674,0.05-1.177-0.135-1.25-0.871
		c-0.065-0.653,0.31-0.954,0.951-0.985C197.43,29.709,197.945,29.833,198.03,30.352z"/>
	<path fill="#103773" d="M82.308,4.77c-0.495,0.175-0.996,0.197-1.499,0.048C81.302,4.54,81.801,4.523,82.308,4.77z"/>
	<path fill="#103773" d="M83.795,6.594c-0.184-0.371-0.189-0.745-0.019-1.119C84.01,5.846,83.997,6.219,83.795,6.594z"/>
	<path fill="#103773" d="M20.427,32.383c-0.349-0.106-0.792,0.065-1.037-0.35c0.386-0.03,0.772-0.059,1.157-0.089
		c0,0,0.017,0.016,0.017,0.016C20.518,32.101,20.472,32.242,20.427,32.383z"/>
	<path fill="#FCFD08" d="M15.896,27.14c-1.449,1.137-2.841,2.391-4.898,2.17c-2.421-0.26-4.07-1.863-4.61-4.509
		c0.151-2.946,0.271-5.892-0.062-8.835c0-0.094,0.041-0.164,0.122-0.212c3.348,0.015,6.696,0.029,10.044,0.044
		c0.047,0.065,0.098,0.125,0.156,0.178c-0.031,3.037-0.062,6.077-0.093,9.117C16.647,25.876,16.128,26.462,15.896,27.14z"/>
	<path fill="#60C7EF" d="M2.157,31.968C2.175,23.882,2.244,15.795,2.171,7.71C2.154,5.919,2.625,5.267,4.474,5.327
		c3.686,0.121,7.379,0.036,11.243,0.036c-0.342,0.987-1.02,1.579-1.046,2.464c-0.02,0.709-0.508,0.407-0.91,0.296
		c-4.81-1.325-7.933,0.937-8.009,5.86c-0.053,3.412,0.018,6.826-0.004,10.24c-0.008,1.189,0.47,2.207,0.988,3.203
		c-0.484,0.378-0.856,0.069-1.228-0.069c-0.791-0.295-1.127-0.019-1.1,0.801c0.016,0.479-0.063,0.969,0.01,1.436
		c0.28,1.804-0.334,2.707-2.268,2.367C2.151,31.962,2.157,31.968,2.157,31.968z"/>
	<path fill="#60C7EF" d="M15.896,27.14c0.232-0.678,0.75-1.264,0.659-2.046c0.242-0.042,0.37-0.18,0.368-0.431
		c0.631-2.407,0.08-4.86,0.296-7.281c0.061-0.687-0.46-1.611,0.665-1.983c0.292-0.096,0.267-0.344-0.019-0.492
		c-1.265-0.657-0.494-1.951-0.892-2.887c-0.209-0.492,0.101-0.807,0.639-0.777c0.986,0.055,1.839-0.341,2.936-1.122
		c0,7.523,0,14.673,0,21.823c-0.386,0.029-0.771,0.059-1.157,0.089c-0.322,0.1-0.643,0.199-0.965,0.298
		c-0.009-1.185-0.058-2.372-0.014-3.555c0.042-1.132-0.035-1.972-1.506-1.231C16.479,27.76,15.967,27.931,15.896,27.14z"/>
	<path fill="#60C7EF" d="M16.096,31.901c-3.213,0-6.06,0-9.077,0C10.019,29.692,12.884,30.321,16.096,31.901z"/>
	<path fill="#9CD065" d="M15.045,10.273c0.744-0.065,0.961,0.337,0.888,0.978c-0.084,0.729-0.551,1.031-1.234,0.959
		c-0.699-0.074-1.067-0.539-1.006-1.22C13.773,10.115,14.498,10.317,15.045,10.273z"/>
	<path fill="#294200" d="M6.522,15.372c2.255-0.771,4.578-0.231,6.866-0.313c1.007-0.036,2.128-0.464,3.07,0.337
		C13.147,15.388,9.834,15.38,6.522,15.372z"/>
	<path fill="#9CD065" d="M6.522,15.372c3.312,0.008,6.625,0.016,9.936,0.024c0.011,0.134,0.022,0.268,0.034,0.402
		c-3.348-0.015-6.696-0.03-10.044-0.044C6.473,15.627,6.497,15.499,6.522,15.372z"/>
	<path fill="#294200" d="M16.923,24.663c0.003,0.251-0.126,0.389-0.368,0.431c0.031-3.04,0.062-6.08,0.093-9.117
		C17.203,18.859,16.673,21.773,16.923,24.663z"/>
	<path fill="#9CD065" d="M6.326,15.965c0.333,2.943,0.214,5.889,0.062,8.835C5.908,21.859,6.042,18.913,6.326,15.965z"/>
</g>
</svg>
