<?xml version="1.0" encoding="utf-8"?>
<!-- Generator: Adobe Illustrator 17.0.0, SVG Export Plug-In . SVG Version: 6.00 Build 0)  -->
<!DOCTYPE svg PUBLIC "-//W3C//DTD SVG 1.1//EN" "http://www.w3.org/Graphics/SVG/1.1/DTD/svg11.dtd">
<svg version="1.1" id="Layer_1" xmlns="http://www.w3.org/2000/svg" xmlns:xlink="http://www.w3.org/1999/xlink" x="0px" y="0px"
	 width="371.097px" height="208.071px" viewBox="0 0 371.097 208.071" enable-background="new 0 0 371.097 208.071"
	 xml:space="preserve">
<g>
	<path fill="#2F2C30" d="M69.618,97.686c-2.729-3.369-5.239-6.448-7.728-9.545c-1.742-2.168-2.749-4.145-0.998-7.144
		c1.629-2.788,3.444-3.433,6.429-3.246c4.701,0.294,9.233,1.085,13.625,2.765c2.181,0.834,4.11,1.583,5.851-1.231
		c1.452-2.347,2.306-3.911,0.078-6.366c-3.264-3.596-5.129-8.121-7-12.582c-1.076-2.566-1.673-4.652,0.767-7.186
		c2.463-2.558,4.573-2.441,7.52-1.453c4.293,1.439,8.319,3.29,12.132,5.723c1.591,1.015,2.979,3.263,5.468,0.766
		c2.18-2.186,3.488-3.842,1.805-7.11c-2.451-4.762-3.165-10.087-3.916-15.385c-0.443-3.13,1.663-3.91,3.461-5.333
		c1.888-1.494,3.431-1.24,5.383-0.084c4.772,2.825,9.184,6.051,12.678,10.389c1.282,1.592,2.516,2.659,4.425,1
		c1.535-1.335,4.544-1.185,3.615-4.851c-1.354-5.342-1.206-10.851-0.653-16.385c0.295-2.948,1.339-4.33,4.054-5.36
		c2.804-1.064,4.55-0.404,6.553,1.597c3.809,3.806,7.146,7.93,9.472,12.769c1.008,2.097,2.038,2.561,4.226,1.733
		c1.944-0.735,4.259-0.321,4.305-3.617c0.076-5.52,1.496-10.824,3.271-16.063c0.871-2.571,2.119-3.598,4.876-3.901
		c2.873-0.316,4.586,0.241,6.127,2.795c2.687,4.451,5.049,9.027,6.182,14.083c0.621,2.77,2.03,3.273,4.548,3.262
		c2.48-0.011,4.058-0.441,4.615-3.207c1.102-5.467,3.969-10.162,6.849-14.856c1.292-2.105,2.71-3.102,5.259-2.597
		c2.519,0.499,4.569,0.852,5.497,3.996c1.47,4.982,2.908,9.927,2.687,15.138c-0.151,3.551,1.915,4.108,4.705,5.061
		c3.352,1.145,3.614-1.184,4.558-2.902c2.355-4.285,5.53-7.889,8.993-11.284c1.806-1.771,3.337-3.358,6.416-2.113
		c3.008,1.216,4.287,2.757,4.559,6.1c0.411,5.056,0.383,10.06-0.977,14.865c-1.024,3.619,1.548,4.072,3.429,5.52
		c2.376,1.828,3.499,0.209,4.843-1.325c3.561-4.066,8.027-6.946,12.635-9.665c1.851-1.092,3.406-1.739,5.361-0.088
		c1.882,1.59,4.017,2.513,3.518,5.846c-0.797,5.319-1.825,10.566-4.427,15.23c-1.874,3.359,0.312,4.634,2.001,6.661
		c2.047,2.456,3.436,0.679,4.961-0.361c4.171-2.848,8.804-4.577,13.582-6.101c2.626-0.838,4.513-1.004,6.596,1.375
		c2.046,2.338,2.469,4.24,1.206,7.113c-2.023,4.602-4.269,9.016-7.536,12.85c-1.425,1.672-2.18,3.085-0.275,5.101
		c1.593,1.685,2.473,3.821,5.549,2.563c4.815-1.968,9.948-2.512,15.136-2.798c2.849-0.157,4.518,0.634,5.879,3.296
		c1.347,2.633,1.164,4.487-0.628,6.755c-2.581,3.267-5.064,6.592-8.332,9.241c0.953,1.672,2.449,0.919,3.62,0.924
		c14.496,0.06,28.993,0.014,43.49,0.048c11.294,0.027,16.312,6.207,14.54,17.365c-3.628,22.841-7.169,45.697-10.599,68.569
		c-1.694,11.297-8.004,16.924-19.566,16.924c-103.976,0.002-207.952-0.119-311.927,0.173c-11.404,0.032-16.928-7.831-15.167-17.959
		c3.905-22.454,7.205-45.016,10.582-67.559c1.782-11.897,8.023-17.498,20.177-17.519c10.164-0.018,20.328-0.013,30.493-0.035
		C68.763,98.065,69.052,97.88,69.618,97.686z M177.835,198.03c0,0.019,0,0.037,0,0.056c1.333,0,2.665,0,3.998,0
		c51.144,0,102.288,0.011,153.433-0.013c8.259-0.004,14.208-4.515,15.398-12.008c3.783-23.823,7.489-47.659,11.032-71.518
		c1.425-9.596-2.304-13.525-12.158-13.53c-16.326-0.008-32.652,0.023-48.978-0.044c-1.519-0.006-3.755,0.964-4.399-1.099
		c-0.508-1.629,1.539-2.357,2.672-3.215c3.752-2.842,6.993-6.153,9.669-10.02c0.844-1.219,1.713-2.259,0.771-4.034
		c-0.9-1.696-2.088-1.812-3.657-1.784c-4.019,0.071-8.17,0.139-11.754,1.885c-5.652,2.752-8.96,0.934-11.952-4.093
		c-1.478-2.483-1.532-3.958,0.279-6.048c3.39-3.913,6.189-8.222,7.998-13.14c0.547-1.486,0.99-2.646-0.213-4.106
		c-1.372-1.665-2.727-1.308-4.432-0.798c-4.984,1.488-9.667,3.563-13.855,6.666c-1.782,1.32-3.718,3.063-5.411,0.327
		c-1.841-2.976-7.905-3.674-4.997-9.318c2.365-4.59,4.158-9.413,4.697-14.63c0.176-1.704,0.437-3.162-1.339-4.368
		c-1.879-1.277-3.121-0.123-4.506,0.681c-3.611,2.097-7.44,4.183-9.77,7.629c-3.345,4.948-6.492,4.535-10.901,1.454
		c-2.637-1.843-4.077-3.061-3.057-6.616c1.325-4.618,1.796-9.481,1.17-14.348c-0.213-1.657-0.281-3.255-2.274-4.033
		c-2-0.781-3.1,0.298-4.317,1.484c-3.719,3.628-6.985,7.59-9.195,12.336c-0.957,2.054-1.949,4.224-4.743,2.629
		c-2.905-1.658-8.271,0.654-8.486-5.446c-0.187-5.313-0.584-10.629-2.513-15.703c-0.615-1.618-0.978-3.068-3.14-3.283
		c-1.914-0.19-2.653,0.908-3.477,2.217c-2.132,3.385-4.073,6.868-5.33,10.678c-2.499,7.574-2.477,7.464-10.118,7.615
		c-2.614,0.052-3.86-0.609-4.503-3.291c-1.24-5.177-3.059-10.183-6.108-14.645c-0.853-1.249-1.526-2.516-3.472-2.164
		c-1.724,0.312-2.51,1.23-3.038,2.825c-1.312,3.963-3.077,8.061-2.626,12.109c0.726,6.512-2.529,8.039-7.937,9.076
		c-3.18,0.61-4.446-0.006-5.697-2.718c-2.174-4.712-5.176-8.907-8.991-12.48c-1.103-1.033-2.066-1.942-3.896-1.37
		c-1.854,0.579-2.18,1.874-2.355,3.385c-0.481,4.149-1.175,8.474,0.286,12.392c2.266,6.077-0.295,8.877-5.545,11.228
		c-2.855,1.278-4.393,1.128-6.239-1.297c-3.259-4.28-7.321-7.739-12.084-10.279c-2.952-1.574-5.228-0.146-5.041,3.201
		c0.234,4.175,1.291,8.192,2.789,12.102c2.899,7.562,2.798,7.485-2.961,12.765c-1.827,1.675-3.157,1.864-5.129,0.4
		c-4.153-3.084-8.601-5.645-13.64-7.097c-1.792-0.516-3.316-1.281-4.963,0.512c-1.516,1.65-0.699,2.979-0.092,4.536
		c1.456,3.735,2.798,7.749,5.681,10.442c4.798,4.483,3.176,7.977-0.261,12.162c-1.769,2.155-3.019,2.948-5.723,1.802
		c-4.757-2.016-9.733-3.378-14.99-3.374c-1.503,0.001-2.799-0.168-3.84,1.489c-1.202,1.912-0.236,3.122,0.724,4.466
		c2.622,3.669,5.52,7.086,9.02,9.973c1.088,0.898,3.064,1.523,2.494,3.321c-0.604,1.906-2.581,1.008-3.928,1.016
		c-11.994,0.07-23.99-0.009-35.984,0.059c-7.887,0.045-13.742,4.995-14.946,12.646c-3.674,23.334-7.219,46.689-10.942,70.016
		c-1.502,9.413,2.77,14.537,12.363,14.481C74.213,197.869,126.025,198.03,177.835,198.03z"/>
	<path fill="#FCFDFD" d="M177.835,198.03c-51.81,0-103.621-0.161-155.43,0.145c-9.592,0.057-13.865-5.068-12.363-14.481
		c3.723-23.326,7.268-46.681,10.942-70.016c1.205-7.651,7.059-12.601,14.946-12.646c11.994-0.068,23.99,0.011,35.984-0.059
		c1.347-0.008,3.325,0.89,3.928-1.016c0.57-1.798-1.406-2.423-2.494-3.321c-3.5-2.888-6.398-6.304-9.02-9.973
		c-0.96-1.344-1.926-2.554-0.724-4.466c1.041-1.657,2.337-1.487,3.84-1.489c5.257-0.004,10.233,1.358,14.99,3.374
		c2.704,1.146,3.954,0.353,5.723-1.802c3.436-4.185,5.058-7.679,0.261-12.162c-2.882-2.693-4.224-6.707-5.681-10.442
		c-0.607-1.557-1.424-2.886,0.092-4.536c1.648-1.793,3.172-1.028,4.963-0.512c5.038,1.451,9.487,4.013,13.64,7.097
		c1.972,1.464,3.302,1.275,5.129-0.4c5.759-5.28,5.86-5.202,2.961-12.765c-1.499-3.91-2.556-7.927-2.789-12.102
		c-0.187-3.347,2.089-4.775,5.041-3.201c4.763,2.54,8.825,5.999,12.084,10.279c1.846,2.425,3.384,2.575,6.239,1.297
		c5.25-2.35,7.811-5.15,5.545-11.228c-1.461-3.918-0.767-8.243-0.286-12.392c0.175-1.511,0.501-2.805,2.355-3.385
		c1.83-0.572,2.794,0.337,3.896,1.37c3.815,3.573,6.817,7.768,8.991,12.48c1.251,2.712,2.517,3.328,5.697,2.718
		c5.408-1.037,8.663-2.564,7.937-9.076c-0.451-4.047,1.314-8.146,2.626-12.109c0.528-1.595,1.314-2.513,3.038-2.825
		c1.946-0.352,2.619,0.915,3.472,2.164c3.049,4.463,4.868,9.468,6.108,14.645c0.642,2.682,1.888,3.343,4.503,3.291
		c7.64-0.151,7.619-0.041,10.118-7.615c1.257-3.81,3.199-7.293,5.33-10.678c0.824-1.308,1.562-2.407,3.477-2.217
		c2.162,0.215,2.524,1.665,3.14,3.283c1.929,5.074,2.326,10.39,2.513,15.703c0.215,6.1,5.582,3.788,8.486,5.446
		c2.794,1.595,3.787-0.575,4.743-2.629c2.21-4.745,5.476-8.708,9.195-12.336c1.217-1.187,2.317-2.265,4.317-1.484
		c1.993,0.778,2.06,2.376,2.274,4.033c0.627,4.867,0.155,9.73-1.17,14.348c-1.02,3.555,0.42,4.774,3.057,6.616
		c4.409,3.081,7.556,3.494,10.901-1.454c2.33-3.446,6.159-5.532,9.77-7.629c1.385-0.805,2.627-1.958,4.506-0.681
		c1.776,1.206,1.515,2.665,1.339,4.368c-0.539,5.217-2.332,10.04-4.697,14.63c-2.908,5.644,3.156,6.342,4.997,9.318
		c1.693,2.736,3.629,0.993,5.411-0.327c4.188-3.103,8.87-5.177,13.855-6.666c1.705-0.509,3.06-0.867,4.432,0.798
		c1.203,1.46,0.76,2.62,0.213,4.106c-1.809,4.918-4.608,9.227-7.998,13.14c-1.811,2.09-1.757,3.565-0.279,6.048
		c2.992,5.027,6.3,6.845,11.952,4.093c3.585-1.746,7.735-1.814,11.754-1.885c1.57-0.028,2.757,0.087,3.657,1.784
		c0.942,1.775,0.072,2.815-0.771,4.034c-2.676,3.867-5.917,7.178-9.669,10.02c-1.133,0.858-3.18,1.587-2.672,3.215
		c0.644,2.063,2.88,1.093,4.399,1.099c16.326,0.067,32.652,0.036,48.978,0.044c9.854,0.005,13.583,3.934,12.158,13.53
		c-3.543,23.859-7.249,47.695-11.032,71.518c-1.19,7.493-7.139,12.004-15.398,12.008c-51.144,0.025-102.288,0.013-153.433,0.013
		c-1.333,0-2.665,0-3.998,0C177.835,198.067,177.835,198.048,177.835,198.03z M236.562,144.054c0.481,0.084,0.962,0.168,1.442,0.253
		c-0.686,8.764-1.473,17.522-2.032,26.294c-0.741,11.619-0.665,11.507,10.954,11.408c3.034-0.026,3.884-0.847,4.025-3.901
		c0.736-15.961,1.73-31.911,2.665-47.863c0.713-12.162,0.734-12.161-11.181-12.16c-0.333,0-0.679,0.059-0.997-0.009
		c-5.107-1.093-7.216,1.435-8.736,6.087c-2.787,8.535-6.276,16.84-9.473,25.241c-1.388-8.983-2.075-17.902-2.432-26.835
		c-0.133-3.319-1.038-4.832-4.636-4.551c-3.807,0.297-7.664,0.236-11.481,0.012c-2.995-0.175-4.322,0.71-5.066,3.856
		c-3.824,16.17-7.969,32.265-11.969,48.394c-0.915,3.692-3.576,8.97-2.097,10.758c2.157,2.608,7.447,0.438,11.352,0.936
		c3.102,0.396,3.875-1.122,4.424-3.805c2.068-10.092,4.359-20.14,6.621-30.191c0.295-1.311-0.002-3.021,1.846-3.681
		c0.92,11.51,1.893,22.929,2.699,34.36c0.175,2.481,1.039,3.082,3.542,3.401c5.553,0.707,8.182-1.206,9.804-6.71
		C228.951,164.78,232.938,154.471,236.562,144.054z M94.985,162.26c0.374-0.027,0.747-0.055,1.121-0.082
		c0.573,2.179,1.21,4.344,1.71,6.54c3.097,13.621,3.085,13.477,16.861,13.31c3.584-0.044,3.784-1.336,3.012-4.096
		c-1.744-6.234-3.322-12.514-5.139-18.726c-0.516-1.764-1.002-3.042,1.206-3.955c9.379-3.88,10.618-12.113,10.461-20.698
		c-0.17-9.309-4.761-14.333-13.995-15.907c-7.422-1.265-14.945-0.172-22.402-0.621c-3.003-0.181-3.949,0.895-4.363,3.773
		c-2.722,18.904-5.612,37.783-8.494,56.664c-0.372,2.438,0.029,3.723,2.949,3.523c3.476-0.238,6.999-0.27,10.469,0.012
		c2.852,0.232,3.69-1.018,4.036-3.536C93.159,173.045,94.116,167.658,94.985,162.26z M127.725,181.929
		c4.869,0,8.88-0.232,12.849,0.074c3.127,0.241,4.449-1.059,5.206-3.856c0.43-1.587,0.235-3.993,2.762-4.117
		c3.158-0.155,6.329-0.023,9.493-0.062c1.591-0.02,2.165,0.935,1.888,2.23c-1.26,5.884,2.277,6.125,6.519,5.754
		c1.653-0.145,3.356-0.213,4.991,0.015c3.715,0.518,4.832-0.74,4.559-4.609c-1.242-17.607-2.373-35.227-3.091-52.861
		c-0.207-5.093-1.585-7.12-6.86-6.502c-4.436,0.52-9.836-1.213-13.211,0.77c-3.641,2.139-3.933,8.079-5.61,12.38
		C140.712,147.845,134.361,164.605,127.725,181.929z M275.912,181.93c2.663,0,5.326,0,7.989,0c8.153,0,7.858-0.046,9.093-7.96
		c0.725-4.642,0.125-6.469-5.16-6.022c-6.412,0.542-6.445,0.123-5.351-6.332c0.139-0.819,0.346-1.652,0.314-2.471
		c-0.102-2.631,1.192-3.275,3.673-3.339c7.336-0.192,7.334-0.303,8.37-7.722c0.092-0.659,0.034-1.37,0.265-1.973
		c1.379-3.599,0.037-4.677-3.582-4.428c-1.808,0.124-4.581,1.174-5.385-0.953c-1.059-2.803,0.111-5.982,0.9-8.795
		c0.697-2.483,3.518-1.495,5.191-1.231c5.433,0.857,7.552-1.548,7.573-6.636c0.003-0.825,0.046-1.706,0.328-2.466
		c1.173-3.167-0.404-3.595-3.094-3.556c-7.821,0.111-15.651,0.222-23.464-0.05c-3.139-0.109-4.029,1.18-4.388,3.878
		c-0.878,6.59-1.897,13.16-2.875,19.736c-1.785,12.001-3.488,24.016-5.429,35.992c-0.584,3.606,0.51,4.678,4.053,4.393
		C268.57,181.702,272.25,181.929,275.912,181.93z M343.849,133.544c0.758-3.863,1.245-7.674,2.308-11.317
		c0.789-2.702-0.379-3.467-2.519-4.289c-12.105-4.65-24.671-0.037-31.57,11.991c-6.028,10.508-7.692,22.037-5.904,33.82
		c2.114,13.926,14.451,22.135,27.669,19.099c1.863-0.428,3.939-0.602,4.224-3.371c0.44-4.279,1.187-8.527,1.832-12.985
		c-8.969,3.943-14.358,1.166-16.298-8.07c-1.813-8.632,0.855-16.174,6.058-22.858C333.583,130.509,338.1,130,343.849,133.544z
		 M54.576,118.77c-4.332,0-8.694,0.326-12.987-0.084c-5.137-0.49-7.665,0.747-8.327,6.538c-0.951,8.316-1.463,8.36,6.76,7.916
		c2.866-0.155,3.677,0.357,3.187,3.486c-1.828,11.668-3.19,23.409-4.953,35.088c-1.598,10.587-1.728,10.567,8.769,10.567
		c1.333,0,2.677-0.111,3.996,0.022c2.675,0.271,3.69-0.696,4.049-3.525c1.782-14.028,3.911-28.012,5.747-42.034
		c0.343-2.624,0.978-3.799,3.939-3.593c6.987,0.486,6.992,0.338,8.243-6.825c0.258-1.474,0.528-2.949,0.866-4.407
		c0.557-2.403-0.298-3.26-2.797-3.193C65.574,118.875,60.074,118.773,54.576,118.77z M185.986,101.015
		c18.965,0,37.93,0.023,56.895-0.044c1.509-0.005,3.693,1.003,4.403-1.09c0.523-1.543-1.257-2.557-2.213-3.644
		c-30.623-34.834-86.957-34.87-117.488-0.051c-0.998,1.138-3.116,2.12-2.133,4.029c0.797,1.547,2.727,0.767,4.139,0.771
		C148.388,101.029,167.187,101.015,185.986,101.015z"/>
	<path fill="#059FE0" d="M236.562,144.054c-3.624,10.416-7.611,20.726-10.724,31.293c-1.621,5.504-4.251,7.417-9.804,6.71
		c-2.503-0.319-3.367-0.92-3.542-3.401c-0.806-11.43-1.779-22.849-2.699-34.36c-1.848,0.66-1.551,2.369-1.846,3.681
		c-2.262,10.052-4.553,20.099-6.621,30.191c-0.55,2.683-1.323,4.201-4.424,3.805c-3.905-0.498-9.195,1.672-11.352-0.936
		c-1.479-1.788,1.182-7.066,2.097-10.758c3.999-16.129,8.145-32.223,11.969-48.394c0.744-3.146,2.071-4.031,5.066-3.856
		c3.817,0.223,7.675,0.285,11.481-0.012c3.598-0.281,4.504,1.232,4.636,4.551c0.357,8.933,1.044,17.852,2.432,26.835
		c3.196-8.401,6.685-16.707,9.473-25.241c1.519-4.652,3.629-7.18,8.736-6.087c0.318,0.068,0.664,0.009,0.997,0.009
		c11.915,0,11.894-0.001,11.181,12.16c-0.935,15.952-1.928,31.902-2.665,47.863c-0.141,3.054-0.991,3.875-4.025,3.901
		c-11.619,0.098-11.695,0.211-10.954-11.408c0.559-8.772,1.346-17.53,2.032-26.294C237.524,144.223,237.043,144.138,236.562,144.054
		z"/>
	<path fill="#059FE0" d="M94.985,162.26c-0.87,5.398-1.826,10.785-2.57,16.201c-0.346,2.518-1.183,3.768-4.036,3.536
		c-3.47-0.282-6.992-0.249-10.469-0.012c-2.92,0.2-3.321-1.085-2.949-3.523c2.882-18.88,5.772-37.76,8.494-56.664
		c0.414-2.878,1.361-3.954,4.363-3.773c7.457,0.45,14.979-0.644,22.402,0.621c9.234,1.574,13.825,6.598,13.995,15.907
		c0.157,8.585-1.082,16.818-10.461,20.698c-2.207,0.913-1.722,2.191-1.206,3.955c1.817,6.212,3.395,12.492,5.139,18.726
		c0.772,2.761,0.572,4.053-3.012,4.096c-13.776,0.167-13.764,0.31-16.861-13.31c-0.499-2.196-1.136-4.361-1.71-6.54
		C95.733,162.205,95.359,162.232,94.985,162.26z M106.954,136.74c0-0.663,0.038-1.329-0.006-1.99
		c-0.221-3.29-2.29-4.476-5.288-4.782c-3.786-0.387-2.621,2.539-2.954,4.359c-0.417,2.279-0.829,4.603-0.805,6.903
		c0.016,1.553-1.895,3.853,0.729,4.634c2.287,0.681,4.613-0.124,6.245-2.131C106.529,141.696,107.003,139.287,106.954,136.74z"/>
	<path fill="#059FE0" d="M127.725,181.929c6.635-17.324,12.987-34.084,19.496-50.783c1.676-4.301,1.968-10.241,5.61-12.38
		c3.376-1.983,8.775-0.249,13.211-0.77c5.275-0.619,6.652,1.409,6.86,6.502c0.718,17.634,1.85,35.254,3.091,52.861
		c0.273,3.869-0.844,5.127-4.559,4.609c-1.634-0.228-3.337-0.159-4.991-0.015c-4.242,0.371-7.779,0.13-6.519-5.754
		c0.277-1.295-0.297-2.25-1.888-2.23c-3.165,0.039-6.336-0.093-9.493,0.062c-2.528,0.124-2.333,2.529-2.762,4.117
		c-0.757,2.797-2.079,4.097-5.206,3.856C136.605,181.698,132.594,181.929,127.725,181.929z M159.647,140.909
		c-0.37-0.098-0.741-0.196-1.111-0.293c-1.743,5.065-3.522,10.118-5.2,15.205c-0.377,1.144-1.623,2.871-0.25,3.489
		c1.504,0.677,3.544,0.412,5.305,0.194c1.568-0.194,1.234-1.723,1.241-2.814C159.665,151.429,159.647,146.169,159.647,140.909z"/>
	<path fill="#059FE0" d="M275.912,181.93c-3.662,0-7.341-0.228-10.98,0.065c-3.543,0.285-4.638-0.787-4.053-4.393
		c1.941-11.976,3.644-23.991,5.429-35.992c0.978-6.576,1.997-13.147,2.875-19.736c0.359-2.698,1.249-3.987,4.388-3.878
		c7.813,0.272,15.643,0.161,23.464,0.05c2.69-0.038,4.268,0.389,3.094,3.556c-0.281,0.76-0.324,1.64-0.328,2.466
		c-0.021,5.088-2.14,7.494-7.573,6.636c-1.673-0.264-4.494-1.252-5.191,1.231c-0.79,2.813-1.959,5.992-0.9,8.795
		c0.804,2.127,3.577,1.077,5.385,0.953c3.619-0.249,4.961,0.829,3.582,4.428c-0.231,0.603-0.173,1.314-0.265,1.973
		c-1.036,7.418-1.034,7.53-8.37,7.722c-2.481,0.065-3.775,0.708-3.673,3.339c0.032,0.819-0.175,1.652-0.314,2.471
		c-1.093,6.455-1.061,6.874,5.351,6.332c5.285-0.447,5.885,1.38,5.16,6.022c-1.236,7.914-0.941,7.96-9.093,7.96
		C281.238,181.93,278.575,181.93,275.912,181.93z"/>
	<path fill="#059FE0" d="M343.849,133.544c-5.748-3.543-10.266-3.035-14.2,2.021c-5.203,6.684-7.871,14.227-6.058,22.858
		c1.941,9.237,7.329,12.013,16.298,8.07c-0.645,4.457-1.392,8.705-1.832,12.985c-0.285,2.769-2.361,2.943-4.224,3.371
		c-13.219,3.036-25.555-5.174-27.669-19.099c-1.788-11.782-0.124-23.311,5.904-33.82c6.9-12.028,19.466-16.641,31.57-11.991
		c2.14,0.822,3.307,1.587,2.519,4.289C345.093,125.869,344.607,129.68,343.849,133.544z"/>
	<path fill="#059FE0" d="M54.576,118.771c5.498,0.002,10.998,0.103,16.492-0.044c2.499-0.067,3.354,0.79,2.797,3.193
		c-0.338,1.458-0.608,2.932-0.866,4.407c-1.251,7.163-1.256,7.311-8.243,6.825c-2.961-0.206-3.595,0.969-3.939,3.593
		c-1.835,14.022-3.965,28.006-5.747,42.034c-0.359,2.829-1.374,3.796-4.049,3.525c-1.319-0.134-2.663-0.022-3.996-0.022
		c-10.496,0-10.367,0.02-8.769-10.567c1.763-11.679,3.125-23.42,4.953-35.088c0.49-3.129-0.321-3.641-3.187-3.486
		c-8.223,0.444-7.711,0.401-6.76-7.916c0.662-5.791,3.19-7.028,8.327-6.538C45.882,119.095,50.245,118.77,54.576,118.771z"/>
	<path fill="#2F2C30" d="M185.986,101.015c-18.799,0-37.598,0.015-56.396-0.03c-1.412-0.003-3.342,0.777-4.139-0.771
		c-0.983-1.908,1.135-2.89,2.133-4.029c30.531-34.819,86.865-34.783,117.488,0.051c0.955,1.087,2.736,2.101,2.213,3.644
		c-0.71,2.093-2.894,1.085-4.403,1.09C223.916,101.038,204.951,101.015,185.986,101.015z M130.671,97.623
		c37.346,0,74.27,0,111.624,0C210.307,62.757,156.972,66.838,130.671,97.623z"/>
	<path fill="#FCFDFD" d="M106.954,136.74c0.049,2.547-0.425,4.956-2.08,6.992c-1.632,2.008-3.958,2.812-6.245,2.131
		c-2.624-0.781-0.713-3.081-0.729-4.634c-0.024-2.3,0.388-4.624,0.805-6.903c0.333-1.82-0.832-4.746,2.954-4.359
		c2.998,0.306,5.067,1.492,5.288,4.782C106.992,135.411,106.954,136.077,106.954,136.74z"/>
	<path fill="#FCFDFD" d="M159.647,140.909c0,5.26,0.018,10.521-0.015,15.781c-0.007,1.091,0.326,2.62-1.241,2.814
		c-1.761,0.218-3.801,0.482-5.305-0.194c-1.373-0.618-0.127-2.345,0.25-3.489c1.677-5.087,3.457-10.14,5.2-15.205
		C158.906,140.713,159.276,140.811,159.647,140.909z"/>
</g>
</svg>
