<?xml version="1.0" encoding="utf-8"?>
<!-- Generator: Adobe Illustrator 17.0.0, SVG Export Plug-In . SVG Version: 6.00 Build 0)  -->
<!DOCTYPE svg PUBLIC "-//W3C//DTD SVG 1.1//EN" "http://www.w3.org/Graphics/SVG/1.1/DTD/svg11.dtd">
<svg version="1.1" id="Layer_1" xmlns="http://www.w3.org/2000/svg" xmlns:xlink="http://www.w3.org/1999/xlink" x="0px" y="0px"
	 width="2261.933px" height="341px" viewBox="130.5 0 2261.933 341" enable-background="new 130.5 0 2261.933 341"
	 xml:space="preserve">
<g>
	<path fill="#0056B9" d="M1123.03,173.061c33.206,39.592,75.352,112.389,100.895,167.307h98.341
		c-28.097-63.858-84.292-149.427-114.944-183.91c43.423-45.978,80.461-97.064,112.39-153.258h-98.341
		c-28.097,48.532-60.026,93.232-98.341,134.101V5.754h-84.292v335.891h84.292L1123.03,173.061z M350.353,5.754
		c-16.603,45.978-37.037,90.678-61.303,132.824c-24.266-42.146-45.978-86.846-61.303-132.824h-94.509
		c28.097,72.798,66.412,140.487,114.944,201.79v134.101h84.292V207.545c48.532-61.303,86.846-128.993,114.944-201.79L350.353,5.754z
		 M524.045,5.754c-42.146,84.292-91.955,227.333-117.498,335.891h89.401c3.831-17.88,8.94-37.037,14.049-56.195h118.775
		c5.109,19.157,10.217,38.315,14.049,56.195h89.401C706.678,231.81,655.592,88.769,614.723,5.754H524.045 M527.877,219.039
		c12.772-43.423,26.82-88.124,40.869-127.715c14.049,40.869,28.097,84.292,40.869,127.715H527.877z M936.566,162.844l-79.184-33.206
		c-19.157-8.94-28.097-14.049-28.097-28.097c0-16.603,6.386-22.989,19.157-25.543c25.543-3.831,79.183,0,128.992,11.494V13.417
		C940.397,7.031,903.36,3.2,865.045,3.2c-19.157,0-38.315,1.277-56.195,3.831c-44.7,7.663-66.412,34.483-66.412,90.678
		c0,39.592,14.049,70.243,53.641,86.846l79.184,33.206c19.157,8.94,28.097,14.049,28.097,28.097
		c0,16.603-6.386,22.989-19.157,25.543c-21.712,2.554-77.906,0-128.993-11.494v74.075c37.037,6.386,74.075,10.217,112.39,10.217
		c19.157,0,38.315-1.277,56.195-5.109c44.7-7.663,66.412-33.206,66.412-90.678C988.929,203.713,974.88,179.447,936.566,162.844"/>
	<path fill="#0056B9" d="M1416.776,5.754c-42.146,84.292-91.955,227.333-117.498,335.891h89.401
		c3.832-17.88,8.94-37.037,14.049-56.195h118.775c5.109,19.157,10.217,38.315,14.049,56.195h89.401
		C1599.409,231.81,1549.6,88.769,1507.454,5.754L1416.776,5.754 M1421.884,219.039c12.772-43.423,26.82-88.124,40.869-127.715
		c14.049,40.869,28.097,84.292,40.869,127.715H1421.884z M1980,5.754c-12.772,68.966-30.652,153.258-51.086,227.333
		c-20.435-75.352-40.869-159.644-52.363-227.333h-81.738c-12.772,67.689-31.929,151.981-52.363,227.333
		c-19.157-75.352-38.315-158.367-51.086-227.333h-89.401c21.712,100.895,63.858,246.491,94.509,335.891h91.955
		c14.049-49.809,30.652-117.498,45.978-183.91c15.326,66.412,31.929,132.824,45.978,183.91h91.955
		c30.652-89.401,72.798-234.996,94.509-335.891H1980z M2283.963,341.646h89.401c-25.543-109.835-75.352-252.876-117.498-335.891
		h-89.401c-42.146,84.292-93.232,227.333-117.498,335.891h89.401c3.832-17.88,8.94-37.037,14.049-56.195h118.775
		C2275.023,304.608,2280.132,325.043,2283.963,341.646 M2170.297,219.039c12.771-43.423,26.82-88.124,40.869-127.715
		c14.049,40.869,28.097,84.292,40.869,127.715H2170.297z"/>
</g>
</svg>
