<?xml version="1.0" encoding="utf-8"?>
<!-- Generator: Adobe Illustrator 17.0.0, SVG Export Plug-In . SVG Version: 6.00 Build 0)  -->
<!DOCTYPE svg PUBLIC "-//W3C//DTD SVG 1.1//EN" "http://www.w3.org/Graphics/SVG/1.1/DTD/svg11.dtd">
<svg version="1.1" id="Layer_1" xmlns="http://www.w3.org/2000/svg" xmlns:xlink="http://www.w3.org/1999/xlink" x="0px" y="0px"
	 width="491.862px" height="76.753px" viewBox="0 0 491.862 76.753" enable-background="new 0 0 491.862 76.753"
	 xml:space="preserve">
<g>
	<path fill="#FFFFFF" d="M116.691,36.585c0-4.787,3.708-11.95,12.599-11.95c7.127,0,12.563,4.247,12.563,11.482
		c0,6.875-5.075,12.49-12.742,12.49C120.291,48.607,116.691,42.056,116.691,36.585z M138.469,37.016
		c0-7.234-4.463-11.267-9.395-11.267c-5.004,0-9.035,3.096-9.035,9.899c0,7.055,3.924,11.734,9.971,11.734
		C132.422,47.384,138.469,46.16,138.469,37.016z"/>
	<path fill="#FFFFFF" d="M149.092,33.921c0-4.715,0-5.615-0.072-6.587c-0.071-0.972-0.323-1.476-1.403-1.691
		c-0.288-0.036-0.792-0.072-0.864-0.072c-0.323,0-0.468-0.108-0.468-0.252c0-0.18,0.216-0.252,0.54-0.252
		c1.512,0,3.672,0.108,3.743,0.108c0.864,0,2.052-0.108,3.456-0.108c5.399,0,6.479,2.987,6.479,4.535
		c0,2.664-1.512,4.355-3.024,5.544c2.412,0.72,5.508,2.915,5.508,6.442c0,3.348-2.7,6.695-8.171,6.695
		c-0.576,0-1.296-0.071-2.231-0.071c-1.009-0.072-1.872-0.108-2.017-0.108c-1.115,0-2.052,0.108-3.239,0.108
		c-0.324,0-0.504-0.072-0.504-0.217c0-0.107,0.036-0.287,0.504-0.287c0.252,0,0.36,0,0.648-0.072
		c0.611-0.108,0.827-0.864,0.936-1.728c0.18-1.332,0.18-3.78,0.18-6.588V33.921z M151.899,34.569c0,0.252,0.072,0.288,0.181,0.359
		c0.216,0.036,0.611,0.108,1.8,0.108c1.835,0,2.375-0.108,3.06-0.864c0.575-0.684,0.936-1.691,0.936-2.879
		c0-2.484-1.116-5.256-4.176-5.256c-0.288,0-1.044,0.072-1.367,0.18c-0.324,0.072-0.433,0.145-0.433,0.324V34.569z M151.899,37.665
		c0,2.268,0,6.227,0.036,6.515c0.108,1.584,0.072,2.052,1.152,2.52c0.863,0.433,2.304,0.469,2.663,0.469
		c1.548,0,4.248-0.756,4.248-4.067c0-1.836-0.648-4.607-3.096-6.264c-1.08-0.647-1.729-0.72-2.448-0.792
		c-0.611-0.072-1.871-0.072-2.375,0c-0.108,0-0.181,0.036-0.181,0.216V37.665z"/>
	<path fill="#FFFFFF" d="M169.827,33.921c0-4.751,0-5.615-0.072-6.587c-0.071-0.972-0.323-1.512-1.439-1.728
		c-0.216-0.036-0.576-0.072-0.864-0.072c-0.252,0-0.396-0.072-0.396-0.216s0.107-0.252,0.432-0.252c1.548,0,3.744,0.108,3.815,0.108
		c0.324,0,2.771-0.108,3.78-0.108c2.016,0,4.211,0.18,5.902,1.368c0.685,0.504,2.16,1.943,2.16,4.391c0,1.98-0.972,4.5-3.815,6.804
		c2.628,3.239,4.787,5.903,6.623,7.811c1.728,1.765,2.808,2.052,3.815,2.196c0.252,0.036,1.008,0.072,1.116,0.072
		c0.288,0,0.396,0.107,0.396,0.252c0,0.18-0.144,0.252-0.647,0.252h-2.52c-1.692,0-2.484-0.108-3.276-0.433
		c-1.512-0.647-2.591-2.268-4.463-4.679c-1.404-1.729-2.844-3.672-3.456-4.428c-0.144-0.145-0.216-0.216-0.432-0.216l-3.707-0.036
		c-0.145,0-0.181,0.036-0.181,0.18v0.504c0,2.88,0,5.508,0.181,6.804c0.107,0.863,0.216,1.583,1.403,1.728
		c0.36,0.036,0.756,0.072,1.044,0.072c0.324,0,0.468,0.107,0.468,0.216c0,0.18-0.144,0.288-0.504,0.288
		c-1.872,0-3.888-0.108-4.031-0.108c-0.576,0-2.16,0.108-3.132,0.108c-0.36,0-0.504-0.072-0.504-0.288
		c0-0.108,0.216-0.216,0.432-0.216c0.252,0,0.504,0,0.792-0.072c0.612-0.108,0.828-0.504,0.937-1.368
		c0.18-1.296,0.144-4.247,0.144-6.947V33.921z M172.599,36.476c0,0.181,0.036,0.36,0.181,0.433c0.468,0.252,1.907,0.468,3.203,0.468
		c0.756,0,1.656-0.036,2.412-0.54c1.079-0.684,1.8-2.268,1.8-4.571c0-3.924-2.088-6.083-5.292-6.083
		c-0.899,0-1.655,0.071-2.088,0.18c-0.107,0.036-0.216,0.144-0.216,0.324V36.476z"/>
	<path fill="#FFFFFF" d="M196.396,39.428c-0.18,0-0.288,0.107-0.36,0.288l-1.583,4.499c-0.36,1.008-0.612,1.979-0.612,2.556
		c0,0.648,0.396,0.937,1.188,0.937c0.108,0,0.145,0,0.252,0c0.324,0,0.433,0.107,0.433,0.252c0,0.18-0.288,0.252-0.54,0.252
		c-0.792,0-2.448-0.108-2.844-0.108c-0.36,0-1.944,0.108-3.456,0.108c-0.396,0-0.575-0.072-0.575-0.252
		c0-0.145,0.144-0.252,0.432-0.252c0.18,0,0.504,0,0.72-0.036c1.548-0.145,2.16-1.332,2.771-2.844l7.199-18.97
		c0.396-1.044,0.504-1.224,0.756-1.224c0.181,0,0.324,0.144,0.72,1.151c0.504,1.188,5.399,13.75,7.308,18.25
		c1.188,2.844,2.231,3.312,2.735,3.491c0.468,0.181,0.972,0.181,1.224,0.181s0.433,0.071,0.433,0.252c0,0.18-0.145,0.252-0.54,0.252
		c-0.36,0-3.06,0-5.472-0.072c-0.684-0.036-0.899-0.072-0.899-0.252c0-0.108,0.107-0.216,0.252-0.252
		c0.144-0.072,0.359-0.252,0.144-0.792l-2.844-7.235c-0.071-0.107-0.144-0.18-0.288-0.18H196.396z M202.515,38.169
		c0.145,0,0.145-0.108,0.108-0.216l-2.844-7.955c-0.181-0.504-0.216-0.504-0.396,0l-2.699,7.955c-0.072,0.144,0,0.216,0.072,0.216
		H202.515z"/>
	<path fill="#FFFFFF" d="M215.511,47.815c-0.468-0.216-0.468-0.359-0.468-1.224c0-1.656,0.108-2.88,0.144-3.384
		c0.036-0.324,0.108-0.504,0.288-0.504c0.181,0,0.252,0.108,0.252,0.36c0,0.216,0,0.647,0.108,1.079
		c0.468,2.34,2.592,3.24,4.68,3.24c2.987,0,4.427-2.052,4.427-3.852c0-2.052-0.936-3.312-3.563-5.436l-1.439-1.116
		c-3.456-2.771-4.176-4.679-4.176-6.803c0-3.312,2.628-5.543,6.659-5.543c1.26,0,2.124,0.107,2.916,0.288
		c0.684,0.144,0.972,0.18,1.224,0.18s0.324,0.072,0.324,0.216s-0.145,1.404-0.145,3.491c0,0.54-0.071,0.756-0.252,0.756
		c-0.18,0-0.216-0.144-0.252-0.396c-0.036-0.324-0.107-1.08-0.432-1.691c-0.18-0.324-1.008-1.692-4.031-1.692
		c-2.16,0-3.779,1.296-3.779,3.456c0,1.691,0.863,2.735,3.851,5.003l0.828,0.648c3.744,2.879,4.716,4.787,4.716,7.343
		c0,1.296-0.54,3.6-2.735,5.111c-1.404,0.899-3.132,1.26-4.86,1.26C218.282,48.607,216.879,48.428,215.511,47.815z"/>
	<path fill="#FFFFFF" d="M263.641,34.713c0.108,0,0.216,0,0.216-0.18v-0.647c0-4.752,0-5.58-0.072-6.552
		c-0.071-0.972-0.216-1.476-1.403-1.691c-0.252-0.036-0.612-0.072-0.9-0.072c-0.252,0-0.432-0.108-0.432-0.252
		c0-0.216,0.18-0.252,0.504-0.252c1.512,0,3.636,0.108,3.779,0.108c0.145,0,2.16-0.108,3.24-0.108c0.359,0,0.575,0.036,0.575,0.252
		c0,0.108-0.107,0.252-0.396,0.252c-0.216,0-0.504,0.036-0.72,0.072c-0.972,0.144-1.116,0.72-1.188,1.728
		c-0.035,0.972-0.035,1.8-0.035,6.551v5.399c0,2.952,0,5.292,0.144,6.588c0.108,0.863,0.288,1.583,1.224,1.691
		c0.468,0.072,0.937,0.108,1.26,0.108c0.288,0,0.468,0.107,0.468,0.252c0,0.18-0.18,0.252-0.539,0.252
		c-1.8,0-3.888-0.108-4.068-0.108c-0.144,0-2.231,0.108-3.203,0.108c-0.36,0-0.54-0.072-0.54-0.288c0-0.108,0.108-0.216,0.396-0.216
		c0.287,0,0.539,0,0.827-0.072c0.612-0.108,0.792-0.9,0.9-1.728c0.18-1.296,0.18-3.563,0.18-6.479v-3.204
		c0-0.144-0.107-0.216-0.216-0.216h-13.066c-0.108,0-0.18,0.036-0.18,0.216v3.204c0,2.916,0,5.255,0.18,6.551
		c0.108,0.792,0.288,1.512,1.224,1.62c0.468,0.072,1.008,0.108,1.296,0.108c0.252,0,0.432,0.107,0.432,0.252
		c0,0.144-0.144,0.252-0.468,0.252c-1.836,0-3.959-0.108-4.14-0.108c-0.107,0-2.304,0.108-3.239,0.108
		c-0.359,0-0.576-0.072-0.576-0.252c0-0.108,0.072-0.252,0.396-0.252c0.288,0,0.576-0.036,0.863-0.108
		c0.648-0.144,0.792-0.828,0.9-1.62c0.216-1.296,0.18-3.707,0.18-6.659v-5.327c0-4.751,0-5.688-0.072-6.659
		c-0.071-0.936-0.323-1.62-1.367-1.728c-0.324-0.036-0.684-0.072-0.972-0.072c-0.252,0-0.396-0.107-0.396-0.216
		c0-0.216,0.18-0.252,0.54-0.252c1.548,0,3.275,0.108,3.743,0.108c0.145,0,2.232-0.108,3.24-0.108c0.359,0,0.54,0.072,0.54,0.252
		c0,0.144-0.145,0.216-0.36,0.216s-0.324,0-0.72,0.072c-0.9,0.144-1.116,0.756-1.188,1.764c-0.036,0.972-0.036,1.764-0.036,6.516
		v0.647c0,0.18,0.107,0.18,0.216,0.18H263.641z"/>
	<path fill="#FFFFFF" d="M278.728,38.205c0,4.392,0.827,6.263,2.195,7.486c1.548,1.368,3.275,1.656,4.752,1.656
		c1.871,0,3.563-0.504,4.931-2.088c1.44-1.655,1.764-4.392,1.764-7.522v-3.816c0-4.715,0-5.543-0.071-6.515
		c-0.072-1.044-0.181-1.584-1.332-1.764c-0.252-0.036-0.684-0.072-1.008-0.072c-0.216,0-0.36-0.108-0.36-0.216
		c0-0.216,0.181-0.288,0.504-0.288c1.548,0,3.348,0.108,3.492,0.108c0.18,0,1.728-0.108,2.735-0.108c0.36,0,0.504,0.072,0.504,0.252
		c0,0.144-0.144,0.252-0.36,0.252c-0.216,0-0.288,0-0.647,0.036c-1.008,0.107-1.152,0.756-1.224,1.8
		c-0.036,0.972-0.036,1.8-0.036,6.515v3.204c0,3.239-0.36,7.127-2.916,9.322c-2.34,1.98-4.644,2.16-6.587,2.16
		c-1.008,0-4.392,0-6.731-2.16c-1.548-1.439-2.663-3.599-2.663-8.063v-4.464c0-4.751,0-5.579-0.108-6.551
		c-0.036-0.972-0.216-1.584-1.332-1.728c-0.216-0.036-0.647-0.072-0.936-0.072c-0.252,0-0.396-0.108-0.396-0.216
		c0-0.216,0.145-0.288,0.54-0.288c1.548,0,3.492,0.108,3.744,0.108c0.288,0,2.411-0.108,3.384-0.108
		c0.396,0,0.504,0.072,0.504,0.252s-0.252,0.252-0.433,0.252c-0.216,0-0.504,0.036-0.792,0.072c-0.863,0.107-1.008,0.72-1.079,1.728
		c-0.036,0.972-0.036,1.8-0.036,6.551V38.205z"/>
	<path fill="#FFFFFF" d="M305.331,39.428c-0.18,0-0.288,0.107-0.36,0.288l-1.583,4.499c-0.36,1.008-0.612,1.979-0.612,2.556
		c0,0.648,0.396,0.937,1.188,0.937c0.108,0,0.145,0,0.252,0c0.324,0,0.433,0.107,0.433,0.252c0,0.18-0.288,0.252-0.54,0.252
		c-0.792,0-2.448-0.108-2.844-0.108c-0.36,0-1.944,0.108-3.456,0.108c-0.396,0-0.575-0.072-0.575-0.252
		c0-0.145,0.144-0.252,0.432-0.252c0.18,0,0.504,0,0.72-0.036c1.548-0.145,2.16-1.332,2.771-2.844l7.199-18.97
		c0.396-1.044,0.504-1.224,0.756-1.224c0.181,0,0.324,0.144,0.72,1.151c0.504,1.188,5.399,13.75,7.308,18.25
		c1.188,2.844,2.231,3.312,2.735,3.491c0.468,0.181,0.972,0.181,1.224,0.181s0.433,0.071,0.433,0.252c0,0.18-0.145,0.252-0.54,0.252
		c-0.36,0-3.06,0-5.472-0.072c-0.684-0.036-0.899-0.072-0.899-0.252c0-0.108,0.107-0.216,0.252-0.252
		c0.144-0.072,0.359-0.252,0.144-0.792l-2.844-7.235c-0.071-0.107-0.144-0.18-0.288-0.18H305.331z M311.45,38.169
		c0.145,0,0.145-0.108,0.108-0.216l-2.844-7.955c-0.181-0.504-0.216-0.504-0.396,0l-2.699,7.955c-0.072,0.144,0,0.216,0.072,0.216
		H311.45z"/>
	<path fill="#FFFFFF" d="M328.875,39.392c0,4.14,0.144,6.228,0.756,6.803c0.575,0.504,1.296,0.721,3.779,0.721
		c1.584,0,3.023,0,3.815-1.008c0.36-0.54,0.612-1.261,0.684-1.8c0.036-0.288,0.108-0.433,0.288-0.433
		c0.145,0,0.216,0.108,0.216,0.468c0,0.36-0.216,2.412-0.432,3.24c-0.216,0.72-0.18,0.899-1.907,0.899
		c-2.448,0-5.147-0.18-8.747-0.18c-1.188,0-1.908,0.108-3.168,0.108c-0.359,0-0.576-0.072-0.576-0.288
		c0-0.108,0.108-0.216,0.396-0.216s0.576,0,0.863-0.072c0.612-0.108,0.828-0.828,0.937-1.692c0.216-1.367,0.144-3.852,0.144-6.623
		v-5.399c0-4.751,0-5.543-0.072-6.515c-0.071-1.008-0.216-1.656-1.439-1.8c-0.216-0.036-0.611-0.036-0.899-0.036
		c-0.252,0-0.396-0.108-0.396-0.252c0-0.18,0.18-0.252,0.54-0.252c1.512,0,3.672,0.108,3.743,0.108c0.504,0,2.7-0.108,3.708-0.108
		c0.36,0,0.468,0.108,0.468,0.252s-0.18,0.252-0.396,0.252c-0.252,0-0.612,0.036-0.973,0.072c-1.008,0.144-1.224,0.72-1.295,1.764
		c-0.072,0.972-0.036,1.764-0.036,6.515V39.392z"/>
	<path fill="#FFFFFF" d="M348.781,39.428c-0.18,0-0.288,0.107-0.36,0.288l-1.583,4.499c-0.36,1.008-0.612,1.979-0.612,2.556
		c0,0.648,0.396,0.937,1.188,0.937c0.108,0,0.145,0,0.252,0c0.324,0,0.433,0.107,0.433,0.252c0,0.18-0.288,0.252-0.54,0.252
		c-0.792,0-2.448-0.108-2.844-0.108c-0.36,0-1.943,0.108-3.456,0.108c-0.396,0-0.575-0.072-0.575-0.252
		c0-0.145,0.144-0.252,0.432-0.252c0.18,0,0.504,0,0.72-0.036c1.548-0.145,2.16-1.332,2.771-2.844l7.199-18.97
		c0.396-1.044,0.504-1.224,0.756-1.224c0.181,0,0.324,0.144,0.72,1.151c0.504,1.188,5.399,13.75,7.308,18.25
		c1.188,2.844,2.231,3.312,2.735,3.491c0.468,0.181,0.972,0.181,1.224,0.181s0.433,0.071,0.433,0.252c0,0.18-0.145,0.252-0.54,0.252
		c-0.36,0-3.06,0-5.472-0.072c-0.684-0.036-0.899-0.072-0.899-0.252c0-0.108,0.107-0.216,0.252-0.252
		c0.144-0.072,0.359-0.252,0.144-0.792l-2.844-7.235c-0.071-0.107-0.144-0.18-0.288-0.18H348.781z M354.9,38.169
		c0.145,0,0.145-0.108,0.108-0.216l-2.844-7.955c-0.18-0.504-0.216-0.504-0.396,0l-2.699,7.955c-0.072,0.144,0,0.216,0.072,0.216
		H354.9z"/>
	<path fill="#FFFFFF" d="M367.896,47.815c-0.468-0.216-0.468-0.359-0.468-1.224c0-1.656,0.108-2.88,0.145-3.384
		c0.035-0.324,0.107-0.504,0.287-0.504c0.181,0,0.252,0.108,0.252,0.36c0,0.216,0,0.647,0.108,1.079
		c0.468,2.34,2.592,3.24,4.68,3.24c2.987,0,4.427-2.052,4.427-3.852c0-2.052-0.936-3.312-3.563-5.436l-1.439-1.116
		c-3.456-2.771-4.176-4.679-4.176-6.803c0-3.312,2.628-5.543,6.659-5.543c1.26,0,2.124,0.107,2.916,0.288
		c0.684,0.144,0.972,0.18,1.224,0.18s0.324,0.072,0.324,0.216s-0.145,1.404-0.145,3.491c0,0.54-0.071,0.756-0.252,0.756
		c-0.18,0-0.216-0.144-0.252-0.396c-0.036-0.324-0.107-1.08-0.432-1.691c-0.18-0.324-1.008-1.692-4.031-1.692
		c-2.16,0-3.779,1.296-3.779,3.456c0,1.691,0.863,2.735,3.851,5.003l0.828,0.648c3.744,2.879,4.716,4.787,4.716,7.343
		c0,1.296-0.54,3.6-2.735,5.111c-1.404,0.899-3.132,1.26-4.859,1.26C370.668,48.607,369.265,48.428,367.896,47.815z"/>
	<path fill="#FFFFFF" d="M398.028,47.815c-0.468-0.216-0.468-0.359-0.468-1.224c0-1.656,0.108-2.88,0.144-3.384
		c0.036-0.324,0.108-0.504,0.288-0.504c0.181,0,0.252,0.108,0.252,0.36c0,0.216,0,0.647,0.108,1.079
		c0.468,2.34,2.592,3.24,4.68,3.24c2.987,0,4.427-2.052,4.427-3.852c0-2.052-0.936-3.312-3.563-5.436l-1.439-1.116
		c-3.456-2.771-4.176-4.679-4.176-6.803c0-3.312,2.628-5.543,6.659-5.543c1.26,0,2.124,0.107,2.916,0.288
		c0.684,0.144,0.972,0.18,1.224,0.18s0.324,0.072,0.324,0.216s-0.145,1.404-0.145,3.491c0,0.54-0.071,0.756-0.252,0.756
		c-0.18,0-0.216-0.144-0.252-0.396c-0.036-0.324-0.107-1.08-0.432-1.691c-0.18-0.324-1.008-1.692-4.031-1.692
		c-2.16,0-3.779,1.296-3.779,3.456c0,1.691,0.863,2.735,3.851,5.003l0.828,0.648c3.744,2.879,4.716,4.787,4.716,7.343
		c0,1.296-0.54,3.6-2.735,5.111c-1.404,0.899-3.132,1.26-4.86,1.26C400.8,48.607,399.396,48.428,398.028,47.815z"/>
	<path fill="#FFFFFF" d="M419.412,38.205c0,4.392,0.827,6.263,2.195,7.486c1.548,1.368,3.275,1.656,4.752,1.656
		c1.871,0,3.563-0.504,4.931-2.088c1.44-1.655,1.764-4.392,1.764-7.522v-3.816c0-4.715,0-5.543-0.071-6.515
		c-0.072-1.044-0.181-1.584-1.332-1.764c-0.252-0.036-0.684-0.072-1.008-0.072c-0.216,0-0.36-0.108-0.36-0.216
		c0-0.216,0.181-0.288,0.504-0.288c1.548,0,3.348,0.108,3.492,0.108c0.18,0,1.728-0.108,2.735-0.108c0.36,0,0.504,0.072,0.504,0.252
		c0,0.144-0.144,0.252-0.36,0.252c-0.216,0-0.287,0-0.647,0.036c-1.008,0.107-1.152,0.756-1.224,1.8
		c-0.036,0.972-0.036,1.8-0.036,6.515v3.204c0,3.239-0.36,7.127-2.916,9.322c-2.34,1.98-4.644,2.16-6.587,2.16
		c-1.008,0-4.392,0-6.731-2.16c-1.548-1.439-2.663-3.599-2.663-8.063v-4.464c0-4.751,0-5.579-0.108-6.551
		c-0.036-0.972-0.216-1.584-1.332-1.728c-0.216-0.036-0.647-0.072-0.936-0.072c-0.252,0-0.396-0.108-0.396-0.216
		c0-0.216,0.145-0.288,0.54-0.288c1.548,0,3.492,0.108,3.744,0.108c0.288,0,2.411-0.108,3.384-0.108
		c0.396,0,0.504,0.072,0.504,0.252s-0.252,0.252-0.433,0.252c-0.216,0-0.504,0.036-0.792,0.072c-0.863,0.107-1.008,0.72-1.079,1.728
		c-0.036,0.972-0.036,1.8-0.036,6.551V38.205z"/>
	<path fill="#FFFFFF" d="M444.468,33.921c0-4.751,0-5.615-0.072-6.587c-0.071-0.972-0.323-1.512-1.439-1.728
		c-0.216-0.036-0.576-0.072-0.864-0.072c-0.252,0-0.396-0.072-0.396-0.216s0.107-0.252,0.432-0.252c1.548,0,3.744,0.108,3.815,0.108
		c0.324,0,2.771-0.108,3.78-0.108c2.016,0,4.211,0.18,5.902,1.368c0.685,0.504,2.16,1.943,2.16,4.391c0,1.98-0.972,4.5-3.815,6.804
		c2.628,3.239,4.787,5.903,6.623,7.811c1.728,1.765,2.808,2.052,3.815,2.196c0.252,0.036,1.008,0.072,1.116,0.072
		c0.288,0,0.396,0.107,0.396,0.252c0,0.18-0.144,0.252-0.647,0.252h-2.52c-1.692,0-2.484-0.108-3.276-0.433
		c-1.512-0.647-2.591-2.268-4.463-4.679c-1.404-1.729-2.844-3.672-3.456-4.428c-0.144-0.145-0.216-0.216-0.432-0.216l-3.707-0.036
		c-0.145,0-0.181,0.036-0.181,0.18v0.504c0,2.88,0,5.508,0.181,6.804c0.107,0.863,0.216,1.583,1.403,1.728
		c0.36,0.036,0.756,0.072,1.044,0.072c0.324,0,0.468,0.107,0.468,0.216c0,0.18-0.144,0.288-0.504,0.288
		c-1.872,0-3.888-0.108-4.031-0.108c-0.576,0-2.16,0.108-3.132,0.108c-0.36,0-0.504-0.072-0.504-0.288
		c0-0.108,0.216-0.216,0.432-0.216c0.252,0,0.504,0,0.792-0.072c0.612-0.108,0.828-0.504,0.937-1.368
		c0.18-1.296,0.144-4.247,0.144-6.947V33.921z M447.239,36.476c0,0.181,0.036,0.36,0.181,0.433c0.468,0.252,1.907,0.468,3.203,0.468
		c0.756,0,1.656-0.036,2.412-0.54c1.079-0.684,1.8-2.268,1.8-4.571c0-3.924-2.088-6.083-5.292-6.083
		c-0.899,0-1.655,0.071-2.088,0.18c-0.107,0.036-0.216,0.144-0.216,0.324V36.476z"/>
</g>
<g>
	<path fill="#FFFFFF" d="M53.563,74.643c-18.267-0.031-31.946-12.275-35.711-27.429c-0.896-3.607-1.218-7.262-1.025-10.976
		C17.669,19.992,29.233,6.933,44.275,3.206c3.17-0.785,6.387-1.16,9.646-1.087c14.098,0.315,25.287,8.369,31.044,19.063
		c2.032,3.774,3.362,7.784,3.963,12.025c0.458,3.229,0.475,6.463,0.09,9.709C87.264,57.694,76.352,69.97,61.707,73.597
		C58.84,74.307,55.923,74.63,53.563,74.643z M21.521,41.279c0.138,0.086,0.225,0.157,0.324,0.2c2.449,1.051,4.997,1.435,7.646,1.126
		c1.944-0.226,3.795-0.787,5.591-1.549c1.946-0.826,3.792-1.842,5.563-2.989c1.606-1.04,3.184-2.124,4.772-3.192
		c1.68-1.13,3.349-2.277,5.04-3.39c1.276-0.839,2.61-1.578,4.002-2.21c1.114-0.506,2.261-0.912,3.463-1.159
		c2.61-0.538,5.021-0.069,7.202,1.463c0.61,0.428,1.192,0.913,1.72,1.439c0.647,0.644,1.272,1.323,1.821,2.051
		c0.707,0.936,1.592,1.595,2.636,2.101c1.952,0.945,3.96,1.732,6.039,2.346c0.876,0.259,1.742,0.561,2.597,0.882
		c0.385,0.144,0.758,0.35,1.093,0.589c0.445,0.318,0.477,0.839,0.082,1.218c-0.214,0.206-0.488,0.367-0.761,0.491
		c-0.61,0.277-1.263,0.432-1.926,0.494c-1.352,0.126-2.706,0.279-4.062,0.305c-1.941,0.038-3.884-0.015-5.825-0.058
		c-0.67-0.015-1.33,0.027-1.987,0.139c-0.875,0.149-1.749,0.298-2.622,0.454c-2.429,0.434-4.854,0.886-7.247,1.497
		c-1.802,0.46-3.573,1.01-5.267,1.794c-2.487,1.151-4.466,2.874-5.904,5.206c-0.422,0.684-0.82,1.385-1.176,2.105
		c-0.442,0.894-0.855,1.805-1.233,2.727c-1.495,3.644-2.732,7.383-4.066,11.086c-0.035,0.098-0.03,0.21-0.048,0.35
		c0.165,0.077,0.309,0.15,0.459,0.212c0.589,0.243,1.185,0.472,1.77,0.725c3.091,1.336,6.339,2.007,9.68,2.228
		c2.919,0.193,5.821,0.005,8.688-0.617c7.523-1.632,13.73-5.386,18.452-11.499c3.81-4.933,6.02-10.517,6.56-16.728
		c0.357-4.104-0.071-8.142-1.295-12.087c-4.086-13.176-15.581-21.36-28-22.267c-4.053-0.296-8.031,0.188-11.903,1.449
		c-15.924,5.187-22.655,19.561-22.023,31.603C21.405,40.311,21.474,40.804,21.521,41.279z M69.716,35.826
		c0,0.489-0.01,0.876,0.002,1.262c0.023,0.729-0.183,1.357-0.724,1.873c-0.189,0.18-0.434,0.35-0.433,0.716
		c0.332,0.113,0.662,0.262,1.008,0.338c2.847,0.625,5.71,0.675,8.579,0.171c0.347-0.061,0.684-0.216,1.007-0.367
		c0.124-0.058,0.194-0.23,0.307-0.374c-0.102-0.084-0.159-0.149-0.23-0.186c-0.172-0.087-0.346-0.178-0.53-0.236
		c-0.528-0.166-1.054-0.341-1.592-0.468c-1.002-0.236-1.967-0.563-2.88-1.044c-0.22-0.116-0.452-0.209-0.68-0.309
		c-0.323-0.141-0.633-0.176-0.933,0.073c-0.103,0.085-0.239,0.142-0.37,0.181c-0.471,0.141-0.739,0.003-0.882-0.465
		c-0.065-0.211-0.073-0.446-0.281-0.58C70.693,36.158,70.29,35.931,69.716,35.826z M61.967,35.396c0.481,0.259,0.878,0.334,1.3,0.32
		c0.473-0.015,0.864-0.204,1.155-0.567c0.372-0.465,0.591-0.995,0.613-1.6c0.022-0.606-0.217-1.091-0.72-1.41
		c-0.299-0.19-0.638-0.343-0.979-0.433c-1.341-0.354-2.636-0.12-3.9,0.376c-0.145,0.057-0.273,0.155-0.428,0.246
		c0.132,0.327,0.241,0.602,0.534,0.813c0.499-0.276,1.034-0.345,1.576-0.23c0.249,0.269,0.167,0.594,0.223,0.886
		c0.045,0.233,0.161,0.357,0.383,0.355c0.22-0.001,0.441-0.051,0.661-0.047c0.122,0.002,0.242,0.072,0.348,0.106
		C62.723,34.761,62.362,35.038,61.967,35.396z"/>
</g>
</svg>
