<?xml version="1.0" encoding="utf-8"?>
<!-- Generator: Adobe Illustrator 17.0.0, SVG Export Plug-In . SVG Version: 6.00 Build 0)  -->
<!DOCTYPE svg PUBLIC "-//W3C//DTD SVG 1.1//EN" "http://www.w3.org/Graphics/SVG/1.1/DTD/svg11.dtd">
<svg version="1.1" id="Layer_1" focusable="false" xmlns="http://www.w3.org/2000/svg" xmlns:xlink="http://www.w3.org/1999/xlink"
	 x="0px" y="0px" width="595.28px" height="841.89px" viewBox="0 0 595.28 841.89" enable-background="new 0 0 595.28 841.89"
	 xml:space="preserve">
<path fill="#FFFFFF" d="M481.803,0H113.477C69.902,0,34.549,35.353,34.549,78.927v684.036c0,43.574,35.353,78.927,78.927,78.927
	h368.327c43.574,0,78.927-35.353,78.927-78.927V78.927C560.731,35.353,525.378,0,481.803,0z M297.64,789.272
	c-29.104,0-52.618-23.514-52.618-52.618s23.514-52.618,52.618-52.618s52.618,23.514,52.618,52.618S326.744,789.272,297.64,789.272z
	 M481.803,611.686c0,10.852-8.879,19.732-19.732,19.732H133.208c-10.852,0-19.732-8.879-19.732-19.732V98.659
	c0-10.852,8.879-19.732,19.732-19.732h328.863c10.853,0,19.732,8.879,19.732,19.732V611.686z"/>
</svg>
