<?xml version="1.0" encoding="utf-8"?>
<!-- Generator: Adobe Illustrator 17.0.0, SVG Export Plug-In . SVG Version: 6.00 Build 0)  -->
<!DOCTYPE svg PUBLIC "-//W3C//DTD SVG 1.1//EN" "http://www.w3.org/Graphics/SVG/1.1/DTD/svg11.dtd">
<svg version="1.1" id="Layer_1" focusable="false" xmlns="http://www.w3.org/2000/svg" xmlns:xlink="http://www.w3.org/1999/xlink"
	 x="0px" y="0px" width="595.28px" height="841.89px" viewBox="0 0 595.28 841.89" enable-background="new 0 0 595.28 841.89"
	 xml:space="preserve">
<path fill="#FFFFFF" d="M578.294,543.954l-130.217-55.808c-11.427-4.87-24.698-1.6-32.554,8.022l-57.668,70.457
	c-90.504-42.672-163.339-115.507-206.011-206.011l70.457-57.668c9.643-7.843,12.917-21.129,8.022-32.554l-55.807-130.217
	c-5.394-12.366-18.817-19.151-31.973-16.161L21.625,151.918C8.964,154.842-0.003,166.118,0,179.112
	c0,298.221,241.716,539.473,539.473,539.473c12.999,0.008,24.281-8.96,27.206-21.625l27.904-120.916
	C597.553,562.824,590.718,549.358,578.294,543.954L578.294,543.954z"/>
</svg>
