<?xml version="1.0" encoding="utf-8"?>
<!-- Generator: Adobe Illustrator 17.0.0, SVG Export Plug-In . SVG Version: 6.00 Build 0)  -->
<!DOCTYPE svg PUBLIC "-//W3C//DTD SVG 1.1//EN" "http://www.w3.org/Graphics/SVG/1.1/DTD/svg11.dtd">
<svg version="1.1" id="Layer_1" xmlns="http://www.w3.org/2000/svg" xmlns:xlink="http://www.w3.org/1999/xlink" x="0px" y="0px"
	 width="213.636px" height="68.5px" viewBox="0 0 213.636 68.5" enable-background="new 0 0 213.636 68.5" xml:space="preserve">
<g>
	<path d="M107.456,47.896c-13.771-0.117-27.514-0.668-41.22-1.938c-14.775-1.369-29.455-3.348-43.78-7.396
		c-4.889-1.382-9.723-2.957-14.126-5.536c-1.875-1.098-3.702-2.418-5.211-3.969c-2.694-2.767-2.547-5.905,0.094-8.742
		c2.11-2.267,4.755-3.762,7.519-5.049c7.254-3.378,14.954-5.328,22.742-6.956C46.916,5.5,60.527,3.96,74.213,2.979
		c18.732-1.342,37.478-1.507,56.231-0.62c15.024,0.71,29.987,2.083,44.801,4.764c9.48,1.716,18.899,3.736,27.752,7.689
		c2.424,1.082,4.8,2.42,6.918,4.014c4.94,3.719,4.936,7.964,0.144,11.855c-3.624,2.942-7.902,4.652-12.252,6.159
		c-9.052,3.137-18.409,5.002-27.845,6.501c-12.29,1.953-24.664,3.133-37.087,3.729C124.408,47.476,115.929,47.63,107.456,47.896z
		 M182.244,25.776c1.549,0,2.982-0.05,4.408,0.017c0.969,0.046,1.606,0.642,1.892,1.581c0.128,0.42,0.239,0.845,0.381,1.26
		c0.497,1.457,1.412,2.139,2.943,2.155c1.718,0.019,3.437,0.032,5.155-0.002c2.814-0.056,4.411-2.122,3.807-4.938
		c-0.646,0-1.302,0-1.982,0c-0.066,0.421-0.043,0.811-0.201,1.104c-0.13,0.24-0.467,0.483-0.729,0.504
		c-0.236,0.019-0.58-0.205-0.73-0.423c-0.689-1.001-1.327-2.038-1.996-3.082c0.284-0.174,0.777-0.436,1.228-0.758
		c1.795-1.284,1.854-3.007-0.064-4.094c-1.167-0.662-2.613-1.123-3.946-1.152c-7.03-0.153-14.063-0.141-21.095-0.178
		c-0.188-0.001-0.377,0.09-0.645,0.158c0,0.654,0.05,1.294-0.012,1.923c-0.087,0.88,0.317,1.111,1.113,1.064
		c0.816-0.048,1.637-0.011,2.445-0.011c0,2.297,0,4.39,0,6.628c-1.187,0-2.28,0-3.377,0c0,1.135,0,2.12,0,3.171
		c5.084,0,10.091,0,15.105,0c0-1.073,0-2.054,0-3.159c-0.663,0-1.253,0-1.842,0c-0.619,0-1.237,0-1.86,0
		C182.244,26.856,182.244,26.382,182.244,25.776z M41.424,24.323c0.585-0.4,1.063-0.69,1.5-1.032
		c1.938-1.516,1.849-3.486-0.387-4.521c-1.296-0.6-2.824-0.945-4.255-0.968c-6.356-0.101-12.714-0.044-19.072-0.044
		c-2.285,0-2.262-0.001-2.141,2.329c0.032,0.622,0.249,0.861,0.852,0.848c0.912-0.019,1.824-0.005,2.809-0.005
		c0,2.225,0,4.319,0,6.584c-1.247,0-2.416,0-3.601,0c0,1.155,0,2.136,0,3.161c0.289,0.045,0.519,0.113,0.75,0.113
		c7.317,0.005,14.635,0.041,21.951-0.037c1.066-0.011,2.234-0.385,3.168-0.917c2.049-1.168,1.886-3.836-0.205-4.923
		C42.406,24.711,41.992,24.565,41.424,24.323z M137.996,21.054c0-0.942-0.024-1.695,0.008-2.446
		c0.027-0.623-0.239-0.856-0.845-0.853c-2.84,0.013-5.68-0.012-8.519,0.032c-0.277,0.004-0.759,0.364-0.785,0.599
		c-0.096,0.848-0.038,1.713-0.038,2.681c1.108,0,2.011,0,2.946,0c0,1.441,0,2.767,0,4.267c-0.419-0.373-0.714-0.621-0.992-0.886
		c-2.085-1.986-4.14-4.005-6.272-5.939c-0.45-0.408-1.176-0.708-1.78-0.718c-3.758-0.065-7.519-0.035-11.278-0.03
		c-0.39,0.001-0.78,0.042-1.179,0.065c0,1.119,0,2.131,0,3.265c0.997,0,1.896,0,2.8,0c0,2.183,0,4.243,0,6.425
		c-0.973,0-1.875,0-2.911,0c0,0.79,0.05,1.463-0.012,2.126c-0.082,0.875,0.199,1.201,1.126,1.173
		c2.158-0.064,4.319-0.021,6.479-0.02c2.971,0,2.972,0,2.737-2.975c-0.005-0.069-0.076-0.132-0.183-0.308c-0.917,0-1.901,0-2.941,0
		c0-1.673,0-3.232,0-5.013c2.731,2.604,5.273,5.086,7.897,7.479c0.496,0.453,1.304,0.747,1.985,0.78
		c2.035,0.101,4.078,0.036,6.117,0.036c2.7,0,2.7,0,2.7-2.719c0-2.306,0-4.612,0-7.021C136.07,21.054,136.936,21.054,137.996,21.054
		z M84.349,22.452c2.788,2.66,5.364,5.163,8.007,7.594c0.444,0.409,1.169,0.694,1.775,0.715c2.396,0.081,4.797,0.033,7.195,0.033
		c1.756,0,1.757,0,1.758-1.745c0.001-2.63,0-5.261,0-8.029c1.031,0,1.928,0,2.957,0c0-0.925,0.071-1.725-0.037-2.5
		c-0.04-0.284-0.503-0.722-0.78-0.727c-2.878-0.053-5.757-0.046-8.635-0.007c-0.249,0.003-0.687,0.338-0.707,0.551
		c-0.081,0.859-0.034,1.73-0.034,2.733c1.095,0,2.032,0,2.961,0c0,1.468,0,2.796,0,4.327c-2.451-2.337-4.775-4.518-7.052-6.747
		c-0.645-0.631-1.304-0.922-2.222-0.91c-3.638,0.046-7.276,0.019-10.915,0.019c-0.429,0-0.857,0-1.328,0c0,1.177,0,2.186,0,3.314
		c1,0,1.901,0,2.793,0c0,2.209,0,4.297,0,6.374c-3.107,0.18-3.089,0.178-2.932,2.5c0.04,0.599,0.23,0.858,0.854,0.854
		c2.918-0.019,5.837,0.008,8.755-0.037c0.273-0.004,0.745-0.374,0.771-0.613c0.095-0.85,0.037-1.716,0.037-2.679
		c-1.192,0-2.177,0-3.223,0C84.349,25.828,84.349,24.289,84.349,22.452z M140.942,21.078c1.222,0,2.392,0,3.593,0
		c0,2.217,0,4.28,0,6.501c-1.24,0-2.414,0-3.565,0c0,1.138,0,2.116,0,3.215c0.554,0,1.027,0,1.499,0c7.675,0,15.349,0,23.024,0
		c0.52,0,1.048,0.051,1.555-0.03c0.242-0.038,0.628-0.323,0.634-0.507c0.052-1.458,0.029-2.918,0.029-4.356
		c-2.135,0-4.071,0-6.053,0c-0.051,0.555-0.094,1.023-0.141,1.54c-2.956,0-5.887,0-8.807,0c0-0.578,0-1.075,0-1.706
		c1.698,0,3.318,0,4.975,0c0-0.916,0-1.696,0-2.603c-1.687,0-3.307,0-4.979,0c0-0.74,0-1.35,0-2c2.936,0,5.794,0,8.713,0
		c0.057,0.632,0.109,1.205,0.158,1.747c2.02,0,3.95,0,5.865,0c0-1.727,0-3.347,0-5.016c-8.878,0-17.681,0-26.499,0
		C140.942,18.956,140.942,19.941,140.942,21.078z M73.952,27.728c-0.58,0-0.985-0.058-1.368,0.011
		c-1.201,0.216-1.867-0.34-2.475-1.338c-1.578-2.591-3.294-5.097-4.896-7.673c-0.461-0.741-0.993-1.012-1.847-0.986
		c-1.796,0.055-3.597,0.053-5.393-0.001c-0.818-0.024-1.314,0.252-1.745,0.952c-1.652,2.686-3.383,5.324-5.034,8.011
		c-0.386,0.629-0.814,0.884-1.538,0.83c-0.778-0.057-1.563-0.013-2.445-0.013c0,0.82,0.058,1.461-0.013,2.087
		c-0.114,0.997,0.346,1.214,1.244,1.201c2.756-0.042,5.514-0.012,8.271-0.02c0.344-0.001,0.688-0.063,1.015-0.095
		c0-1.058,0-1.995,0-2.965c-0.766-0.058-1.449-0.11-2.115-0.161c0.392-1.495,1.311-1.929,2.642-1.755
		c0.55,0.072,1.13,0.089,1.674-0.003c1.386-0.235,2,0.542,2.478,1.781c-0.894,0.042-1.708,0.081-2.577,0.122
		c0,1.026,0,1.962,0,2.988c4.714,0,9.362,0,14.121,0c0-0.445,0-0.798,0-1.15C73.952,28.999,73.952,28.447,73.952,27.728z"/>
	<path d="M201.979,65.339c-0.447,0.06-3.654,0.426-4.038,0.064c-0.118-0.112-0.044-0.516,0.049-0.742
		c0.13-0.316,0.512-0.585,0.522-0.883c0.052-1.598,0.024-3.199,0.018-4.799c-0.003-0.71-0.232-1.446-1.039-1.248
		c-0.626,0.154-1.557,0.738-1.616,1.221c-0.202,1.655-0.099,3.351-0.059,5.029c0.005,0.218,0.331,0.424,0.494,0.646
		c0.125,0.17,0.226,0.357,0.337,0.536c-0.183,0.11-0.362,0.307-0.548,0.314c-0.959,0.032-1.92,0.032-2.879,0.003
		c-0.194-0.006-0.383-0.185-0.575-0.284c0.099-0.188,0.195-0.378,0.297-0.565c0.179-0.329,0.507-0.652,0.516-0.985
		c0.051-1.838,0.024-3.678,0.024-5.483c-0.311-0.2-0.59-0.378-0.868-0.557c0.244-0.263,0.441-0.624,0.742-0.768
		c0.715-0.341,1.48-0.579,2.314-0.893c0.085,0.348,0.154,0.629,0.237,0.967c0.268-0.16,0.496-0.299,0.727-0.434
		c2.226-1.308,4.007-0.415,4.171,2.164c0.101,1.594,0.027,3.198,0.042,4.798c0.003,0.371,0.048,0.741,0.099,1.47
		c0.633-1.005,1.061-1.684,1.49-2.366c0.774,0.651,1.425,1.302,2.178,1.8c0.675,0.447,1.512,0.588,1.958-0.309
		c0.416-0.836-0.005-1.454-0.844-1.794c-0.629-0.255-1.272-0.48-1.878-0.781c-1.38-0.685-1.852-1.71-1.563-3.27
		c0.244-1.316,1.142-2.257,2.558-2.259c1.098-0.001,2.197,0.386,3.582,0.657c-0.522,0.895-0.832,1.428-1.202,2.063
		c-0.526-0.433-0.976-0.868-1.489-1.207c-0.61-0.402-1.38-0.831-1.87,0.032c-0.459,0.811,0.155,1.341,0.874,1.662
		c0.582,0.26,1.195,0.452,1.779,0.71c1.527,0.676,2.001,1.511,1.803,3.117c-0.171,1.391-1.118,2.56-2.517,2.658
		C204.543,65.714,203.255,65.448,201.979,65.339z"/>
	<path d="M63.194,58.21c-0.334-0.265-0.592-0.469-0.85-0.674c0.264-0.247,0.488-0.578,0.799-0.723
		c0.716-0.332,1.474-0.574,2.275-0.874c0.064,0.378,0.114,0.677,0.172,1.016c1.173-0.752,2.325-1.576,3.695-0.761
		c1.338,0.796,1.264,2.201,1.263,3.532c-0.001,1.607,0,3.214,0,4.821c0.1,0.015,0.201,0.03,0.301,0.045
		c0.436-0.677,0.872-1.354,1.32-2.049c0.726,0.625,1.34,1.251,2.051,1.738c0.702,0.481,1.567,0.71,2.063-0.241
		c0.48-0.919-0.089-1.503-0.94-1.846c-0.518-0.209-1.048-0.39-1.556-0.622c-1.601-0.731-2.18-1.939-1.753-3.612
		c0.358-1.403,1.741-2.313,3.353-2.05c0.866,0.141,1.69,0.535,2.665,0.859c-0.465,0.774-0.788,1.309-1.137,1.889
		c-0.509-0.429-0.935-0.854-1.424-1.184c-0.601-0.406-1.363-0.871-1.883-0.038c-0.553,0.887,0.163,1.388,0.9,1.725
		c0.543,0.249,1.121,0.422,1.669,0.661c1.548,0.672,2.021,1.474,1.851,3.086c-0.153,1.455-1.118,2.504-2.572,2.761
		c-0.391,0.069-0.851,0.209-1.184,0.076c-1.976-0.786-3.991-0.166-5.982-0.26c-0.282-0.013-0.556-0.17-0.834-0.26
		c0.158-0.216,0.334-0.421,0.469-0.65c0.13-0.22,0.308-0.464,0.312-0.7c0.025-1.639,0.02-3.279,0.005-4.919
		c-0.006-0.703-0.248-1.443-1.06-1.228c-0.625,0.165-1.546,0.749-1.605,1.235c-0.201,1.655-0.097,3.351-0.056,5.029
		c0.005,0.215,0.334,0.418,0.501,0.635c0.129,0.167,0.24,0.349,0.359,0.524c-0.181,0.113-0.36,0.317-0.544,0.323
		c-0.999,0.032-1.999,0.026-2.998,0.001c-0.155-0.004-0.434-0.181-0.432-0.273c0.005-0.191,0.152-0.382,0.255-0.565
		c0.171-0.303,0.5-0.595,0.508-0.898C63.218,61.863,63.194,59.984,63.194,58.21z"/>
	<path d="M107.3,58.013c-0.333-0.198-0.587-0.349-0.84-0.501c0.187-0.222,0.33-0.542,0.569-0.646
		c0.76-0.334,1.555-0.588,2.414-0.902c0.11,0.358,0.195,0.637,0.283,0.924c2.453-1.429,3.165-1.383,4.724,0.279
		c0.688-0.379,1.34-0.854,2.069-1.115c1.564-0.56,2.901,0.194,3.057,1.836c0.173,1.823,0.091,3.67,0.14,5.506
		c0.013,0.509-0.235,1.17,0.635,1.296c0.093,0.014,0.227,0.336,0.191,0.478c-0.033,0.133-0.264,0.302-0.412,0.305
		c-1.038,0.025-2.078,0.024-3.116-0.005c-0.143-0.004-0.368-0.187-0.397-0.322c-0.03-0.139,0.128-0.322,0.211-0.483
		c0.19-0.369,0.533-0.729,0.549-1.104c0.064-1.476,0.026-2.957,0.024-4.435c-0.001-0.731-0.121-1.451-1.046-1.424
		c-0.836,0.025-1.64,0.348-1.68,1.343c-0.065,1.636-0.028,3.277-0.007,4.915c0.003,0.204,0.138,0.425,0.262,0.604
		c0.17,0.245,0.387,0.457,0.583,0.683c-0.285,0.084-0.567,0.23-0.855,0.241c-0.838,0.031-1.679,0.026-2.517-0.007
		c-0.196-0.008-0.48-0.142-0.546-0.295c-0.053-0.123,0.159-0.363,0.258-0.549c0.164-0.306,0.465-0.606,0.474-0.916
		c0.049-1.557,0.017-3.117,0.024-4.676c0.003-0.704-0.139-1.334-0.99-1.349c-0.87-0.016-1.674,0.341-1.732,1.282
		c-0.104,1.672-0.041,3.356-0.016,5.034c0.003,0.192,0.195,0.39,0.32,0.571c0.152,0.22,0.325,0.426,0.49,0.637
		c-0.237,0.092-0.471,0.255-0.711,0.264c-0.838,0.033-1.679,0.034-2.517,0c-0.239-0.01-0.471-0.177-0.706-0.272
		c0.132-0.199,0.277-0.392,0.393-0.6c0.152-0.274,0.395-0.558,0.4-0.841C107.317,61.814,107.3,59.857,107.3,58.013z"/>
	<path d="M7.963,58.075c-0.347-0.252-0.58-0.421-0.813-0.59c0.191-0.216,0.341-0.526,0.581-0.631
		c0.762-0.334,1.557-0.593,2.423-0.911c0.082,0.373,0.146,0.663,0.228,1.031c1.691-1.297,3.319-1.732,4.762,0.274
		c0.441-0.312,0.811-0.613,1.216-0.853c2.07-1.226,3.907-0.254,3.989,2.145c0.058,1.678-0.02,3.36,0.043,5.038
		c0.013,0.36,0.371,0.707,0.566,1.062c0.103,0.187,0.252,0.375,0.266,0.571c0.006,0.082-0.283,0.262-0.441,0.267
		c-0.999,0.026-2,0.032-2.998,0c-0.178-0.006-0.405-0.187-0.502-0.351c-0.05-0.084,0.136-0.31,0.219-0.47
		c0.19-0.37,0.533-0.734,0.548-1.11c0.06-1.517,0.027-3.038,0.013-4.558c-0.006-0.705-0.251-1.445-1.049-1.253
		c-0.625,0.15-1.558,0.733-1.617,1.214c-0.202,1.655-0.099,3.35-0.059,5.029c0.005,0.219,0.323,0.43,0.495,0.646
		c0.132,0.166,0.264,0.332,0.396,0.498c-0.172,0.123-0.341,0.346-0.518,0.352c-0.999,0.035-1.999,0.029-2.998,0.005
		c-0.159-0.004-0.443-0.163-0.446-0.256c-0.005-0.191,0.134-0.39,0.227-0.579c0.17-0.343,0.489-0.676,0.501-1.022
		c0.055-1.518,0.022-3.039,0.022-4.558c0-0.689-0.106-1.342-0.972-1.367c-0.875-0.025-1.686,0.338-1.75,1.263
		c-0.116,1.672-0.054,3.358-0.013,5.036c0.005,0.215,0.343,0.415,0.51,0.635c0.127,0.168,0.226,0.356,0.338,0.536
		c-0.183,0.109-0.363,0.306-0.55,0.313c-0.959,0.031-1.92,0.032-2.878-0.002c-0.182-0.006-0.356-0.215-0.534-0.331
		c0.117-0.176,0.244-0.346,0.349-0.528c0.157-0.274,0.422-0.554,0.428-0.836C7.98,61.823,7.963,59.865,7.963,58.075z"/>
	<path d="M175.906,57.794c-0.515-0.344-0.836-0.557-1.157-0.771c0.27-0.283,0.539-0.567,0.811-0.848
		c0.494-0.509,0.983-1.023,1.487-1.522c0.25-0.248,0.527-0.467,0.793-0.699c0.112,0.368,0.259,0.731,0.326,1.107
		c0.054,0.3,0.011,0.618,0.011,0.988c0.521,0.054,0.986,0.102,1.475,0.153c0.377,1.373-0.633,1.249-1.525,1.34
		c0,1.931-0.085,3.848,0.03,5.753c0.075,1.232,0.955,0.875,1.686,0.506c0.22,0.282,0.409,0.525,0.777,0.996c0-2.439,0-4.629,0-6.877
		c-0.167-0.106-0.443-0.282-0.719-0.458c0.274-0.236,0.513-0.552,0.829-0.692c0.72-0.318,1.479-0.548,2.339-0.856
		c0,2.576-0.011,5.005,0.009,7.433c0.004,0.505-0.258,1.17,0.594,1.345c0.096,0.02,0.216,0.342,0.176,0.482
		c-0.038,0.134-0.259,0.271-0.42,0.301c-0.271,0.051-0.561-0.01-0.837,0.028c-1.451,0.201-2.886-0.352-4.39,0.175
		c-1.282,0.449-2.25-0.523-2.285-2.021C175.871,61.66,175.906,59.662,175.906,57.794z"/>
	<path d="M171.809,64.738c-0.442,0.258-0.864,0.562-1.33,0.765c-1.835,0.797-3.284-0.036-3.506-2.046
		c-0.101-0.909-0.064-1.833-0.074-2.751c-0.011-0.916-0.002-1.833-0.002-2.712c-0.363-0.149-0.665-0.272-0.967-0.395
		c0.249-0.258,0.454-0.614,0.757-0.753c0.754-0.345,1.553-0.59,2.494-0.934c0,2.264-0.046,4.398,0.033,6.527
		c0.019,0.511,0.373,1.344,0.718,1.427c0.497,0.12,1.149-0.265,1.688-0.531c0.185-0.091,0.314-0.469,0.32-0.719
		c0.03-1.437,0.019-2.874,0.011-4.312c-0.001-0.15-0.024-0.343-0.116-0.441c-0.754-0.798-0.762-0.798,0.308-1.194
		c0.659-0.244,1.325-0.47,2.084-0.737c0,2.619-0.005,5.09,0.005,7.562c0.002,0.478-0.197,1.081,0.597,1.207
		c0.044,0.007,0.12,0.63,0,0.719C174.242,65.853,172.181,65.358,171.809,64.738z"/>
	<path d="M87.351,60.771c0.024,2.909-1.824,4.969-4.487,5.001c-2.672,0.032-4.589-1.998-4.609-4.879
		c-0.02-2.883,1.851-4.978,4.488-5.024C85.367,55.822,87.328,57.907,87.351,60.771z M85.205,61.567
		c-0.278-1.027-0.468-2.087-0.858-3.07c-0.368-0.929-1.074-1.651-2.207-1.433c-1.058,0.203-1.501,1.061-1.521,2.026
		c-0.022,1.06,0.036,2.151,0.275,3.179c0.394,1.69,1.408,2.543,2.528,2.367C84.595,64.453,85.125,63.47,85.205,61.567z"/>
	<path d="M30.022,60.873c-0.014,2.913-1.895,4.933-4.564,4.9c-2.65-0.032-4.544-2.123-4.515-4.985
		c0.029-2.864,1.973-4.943,4.6-4.919C28.18,55.892,30.036,57.967,30.022,60.873z M27.831,61.881c0.073-0.031,0.147-0.062,0.22-0.094
		c-0.447-1.293-0.713-2.691-1.387-3.853c-0.83-1.433-2.623-1.219-3.131,0.334c-0.65,1.986-0.397,3.967,0.911,5.641
		c0.338,0.433,1.24,0.77,1.746,0.635c0.558-0.148,1.033-0.839,1.401-1.39C27.813,62.824,27.761,62.311,27.831,61.881z"/>
	<path d="M129.368,60.811c0.006,2.916-1.844,4.951-4.514,4.961c-2.655,0.01-4.562-2.041-4.576-4.922
		c-0.013-2.853,1.908-4.963,4.537-4.982C127.446,55.848,129.361,57.928,129.368,60.811z M122.332,60.193
		c0.436,1.212,0.744,2.496,1.368,3.602c0.265,0.469,1.269,0.878,1.795,0.747c0.579-0.144,1.334-0.896,1.412-1.464
		c0.161-1.186,0.075-2.458-0.181-3.636c-0.372-1.716-1.405-2.573-2.498-2.403C123.138,57.209,122.535,58.332,122.332,60.193z"/>
	<path d="M183.575,60.816c0.002-2.906,1.911-4.975,4.564-4.948c2.596,0.026,4.472,2.073,4.507,4.916
		c0.035,2.875-1.882,4.984-4.535,4.99C185.425,65.78,183.573,63.756,183.575,60.816z M190.602,61.631
		c-0.417-1.22-0.71-2.507-1.309-3.63c-0.263-0.493-1.215-0.981-1.737-0.878c-0.587,0.116-1.406,0.853-1.479,1.405
		c-0.168,1.26-0.104,2.608,0.164,3.856c0.352,1.638,1.393,2.428,2.482,2.252C189.861,64.452,190.367,63.543,190.602,61.631z"/>
	<path d="M162.521,60.853c-0.007,2.935-1.883,4.955-4.567,4.919c-2.625-0.036-4.464-2.043-4.492-4.905
		c-0.028-2.873,1.895-4.992,4.537-4.998C160.654,55.863,162.528,57.929,162.521,60.853z M160.351,61.828
		c0.069-0.034,0.138-0.069,0.207-0.103c-0.46-1.287-0.735-2.685-1.426-3.833c-0.852-1.415-2.617-1.146-3.116,0.427
		c-0.619,1.951-0.367,3.898,0.897,5.536c0.351,0.455,1.268,0.767,1.844,0.668c0.509-0.087,0.991-0.783,1.322-1.312
		C160.311,62.84,160.27,62.296,160.351,61.828z"/>
	<path d="M38.601,61.833c0.875,2.481,2.345,2.77,5.245,0.878c-0.036,0.558,0.061,0.968-0.098,1.212
		c-1.412,2.173-4.719,2.485-6.464,0.643c-1.91-2.016-1.671-6.009,0.468-7.791c2.438-2.032,5.656-0.635,6.301,2.773
		c-0.91,0.373-1.83,0.743-2.745,1.127C40.43,61.042,39.557,61.423,38.601,61.833z M38.241,60.711
		c1.256-0.525,2.412-1.008,3.546-1.481c-0.379-1.629-1.15-2.363-2.187-2.187C38.407,57.244,37.862,58.6,38.241,60.711z"/>
	<path d="M62.325,59.505c-1.936,0.813-3.728,1.566-5.508,2.313c0.828,2.471,2.491,2.819,4.864,1.097
		c0.67,0.257,0.629,0.632,0.207,1.139c-1.117,1.341-2.526,1.921-4.253,1.643c-1.633-0.262-2.648-1.301-3.117-2.811
		c-0.642-2.068-0.413-4.061,1.062-5.734c1.034-1.173,2.402-1.55,3.925-1.116C61.219,56.526,61.898,57.878,62.325,59.505z
		 M60.036,59.213c-0.498-1.708-1.314-2.413-2.352-2.148c-1.155,0.295-1.69,1.852-1.172,3.616
		C57.672,60.198,58.821,59.719,60.036,59.213z"/>
	<path d="M137.916,61.835c0.88,2.27,2.473,2.764,4.303,1.52c0.255-0.174,0.646-0.149,0.973-0.216c-0.089,0.338-0.082,0.754-0.283,1
		c-1.137,1.397-2.647,1.895-4.383,1.515c-1.591-0.348-2.526-1.454-2.951-2.983c-0.494-1.777-0.307-3.491,0.739-5.035
		c0.935-1.381,2.288-1.975,3.933-1.69c1.921,0.333,2.72,1.751,3.201,3.55C141.609,60.274,139.795,61.041,137.916,61.835z
		 M141.143,59.216c-0.456-1.726-1.36-2.475-2.43-2.126c-1.143,0.374-1.647,2.103-1.003,3.569
		C138.832,60.187,139.955,59.715,141.143,59.216z"/>
	<path d="M99.951,56.715c-0.521,0.856-0.83,1.362-1.183,1.941c-0.482-0.406-0.899-0.824-1.379-1.145
		c-0.631-0.422-1.427-0.952-1.961-0.028c-0.516,0.892,0.237,1.373,0.971,1.7c0.545,0.243,1.119,0.421,1.666,0.661
		c1.5,0.661,1.956,1.426,1.815,2.986c-0.129,1.43-1.011,2.518-2.377,2.803c-1.696,0.353-3.252,0.081-4.614-1.31
		c0.359-0.577,0.724-1.164,1.116-1.794c0.72,0.624,1.331,1.249,2.036,1.738c0.696,0.483,1.508,0.706,2.088-0.194
		c0.46-0.713,0.042-1.455-1.018-1.914c-0.512-0.222-1.052-0.38-1.556-0.616c-1.518-0.712-2.079-1.909-1.689-3.539
		c0.321-1.341,1.543-2.264,3.076-2.103C97.893,56,98.813,56.395,99.951,56.715z"/>
	<path d="M52.909,58.607c-0.72-0.521-1.311-1.083-2.013-1.398c-0.353-0.158-0.908,0.134-1.372,0.223
		c0.147,0.487,0.146,1.173,0.474,1.417c0.622,0.462,1.436,0.663,2.165,0.986c1.505,0.667,1.98,1.442,1.845,2.98
		c-0.124,1.415-1.022,2.53-2.382,2.815c-1.696,0.355-3.258,0.094-4.626-1.318c0.36-0.576,0.727-1.165,1.104-1.769
		c0.754,0.636,1.406,1.285,2.155,1.788c0.671,0.45,1.514,0.614,1.97-0.271c0.463-0.901-0.04-1.513-0.915-1.857
		c-0.594-0.234-1.2-0.446-1.771-0.726c-1.354-0.664-1.845-1.653-1.61-3.138c0.224-1.414,1.094-2.286,2.555-2.434
		c1.23-0.124,2.366,0.168,3.393,1.072C53.549,57.533,53.232,58.065,52.909,58.607z"/>
	<path d="M146.262,64.295c0.378-0.609,0.731-1.177,1.092-1.759c0.763,0.647,1.408,1.297,2.154,1.795
		c0.668,0.446,1.486,0.611,1.971-0.276c0.526-0.961-0.098-1.488-0.907-1.846c-0.584-0.258-1.199-0.447-1.772-0.726
		c-1.356-0.662-1.912-1.8-1.633-3.253c0.263-1.376,1.316-2.38,2.79-2.319c1.066,0.044,2.116,0.456,3.38,0.752
		c-0.536,0.87-0.883,1.432-1.201,1.948c-0.704-0.513-1.298-1.081-2.005-1.404c-0.344-0.157-0.898,0.146-1.357,0.241
		c0.144,0.483,0.14,1.168,0.464,1.406c0.625,0.46,1.439,0.658,2.168,0.98c1.407,0.622,1.978,1.458,1.888,2.737
		c-0.112,1.593-0.99,2.708-2.413,3.067C149.218,66.058,147.678,65.636,146.262,64.295z"/>
	<path d="M90.196,55.919c0.026,0.522,0.045,0.912,0.065,1.301c0.522-1.782,2.115-0.829,3.159-1.228
		c0.025-0.009,0.409,0.547,0.353,0.772c-0.181,0.724-0.489,1.416-0.746,2.116c-2.088-0.673-2.771-0.18-2.788,1.958
		c-0.009,1.194-0.002,2.387-0.002,3.635c0.271,0.06,0.524,0.061,0.707,0.174c0.164,0.101,0.307,0.316,0.346,0.504
		c0.017,0.081-0.249,0.316-0.39,0.319c-1.116,0.028-2.233,0.028-3.35,0.004c-0.146-0.003-0.413-0.204-0.406-0.297
		c0.014-0.189,0.173-0.369,0.279-0.549c0.176-0.3,0.505-0.593,0.513-0.897c0.049-1.754,0.035-3.51,0.011-5.264
		c-0.003-0.23-0.144-0.491-0.296-0.677c-0.129-0.157-0.366-0.225-0.556-0.333c0.193-0.212,0.346-0.518,0.586-0.62
		C88.473,56.503,89.295,56.241,90.196,55.919z"/>
	<path d="M35.792,58.902c-2.03-0.715-2.737-0.225-2.806,1.854c-0.029,0.878-0.013,1.758-0.006,2.636
		c0.005,0.574-0.18,1.271,0.797,1.261c0.098-0.001,0.311,0.312,0.276,0.406c-0.065,0.172-0.272,0.407-0.426,0.411
		c-1.117,0.034-2.237,0.033-3.354-0.004c-0.154-0.005-0.299-0.267-0.448-0.409c0.276-0.23,0.552-0.461,0.876-0.731
		c0-2.086,0-4.241,0-6.371c-0.305-0.159-0.595-0.312-0.886-0.464c0.266-0.242,0.494-0.565,0.805-0.708
		c0.684-0.315,1.409-0.538,2.211-0.834c0.085,0.442,0.155,0.811,0.219,1.146c0.464-0.347,0.894-0.815,1.425-1.023
		c0.489-0.191,1.096-0.168,1.634-0.102c0.185,0.023,0.493,0.502,0.445,0.702C36.378,57.402,36.077,58.102,35.792,58.902z"/>
	<path d="M130.066,57.945c-0.35-0.141-0.63-0.254-0.911-0.367c0.233-0.261,0.418-0.627,0.71-0.764
		c0.716-0.335,1.482-0.564,2.324-0.87c0.059,0.459,0.108,0.838,0.195,1.518c0.802-2.086,2.315-1.162,3.757-1.423
		c-0.392,1.103-0.694,1.955-0.995,2.802c-2.145-0.606-2.803-0.119-2.842,2.063c-0.021,1.155-0.004,2.31-0.004,3.511
		c0.257,0.076,0.496,0.106,0.689,0.215c0.171,0.097,0.291,0.282,0.433,0.428c-0.147,0.143-0.291,0.404-0.443,0.409
		c-1.115,0.035-2.233,0.036-3.349,0.002c-0.162-0.005-0.316-0.25-0.474-0.384c0.136-0.156,0.285-0.303,0.405-0.471
		c0.179-0.25,0.477-0.512,0.483-0.774C130.084,61.85,130.066,59.857,130.066,57.945z"/>
	<path d="M163.131,54.662c-0.372-0.193-0.626-0.325-0.879-0.457c0.201-0.245,0.352-0.599,0.611-0.715
		c0.757-0.341,1.556-0.587,2.548-0.947c0,0.557,0.001,0.968,0,1.38c-0.013,3.197-0.03,6.393-0.035,9.59
		c-0.001,0.481-0.196,1.089,0.631,1.159c0.103,0.009,0.294,0.355,0.249,0.436c-0.093,0.166-0.314,0.359-0.489,0.365
		c-0.998,0.035-1.998,0.035-2.996,0.003c-0.179-0.006-0.459-0.19-0.494-0.339c-0.033-0.139,0.2-0.339,0.31-0.516
		c0.183-0.293,0.516-0.586,0.52-0.882C163.146,60.703,163.131,57.667,163.131,54.662z"/>
	<path d="M100.695,67.108c0.24-0.428,0.48-0.856,0.693-1.235c-0.306-0.438-0.772-0.856-0.912-1.363
		c-0.21-0.761,0.079-1.471,0.959-1.64c0.808-0.156,1.273,0.346,1.493,1.068C103.37,65.389,102.627,66.67,100.695,67.108z"/>
	<path d="M182.524,52.764c0.19,0.234,0.745,0.622,0.848,1.106c0.174,0.817-0.961,1.705-1.965,1.65
		c-0.699-0.039-1.255-0.311-1.236-1.145C180.188,53.566,181.155,52.779,182.524,52.764z"/>
	<path fill="#FFFFFF" d="M182.244,25.776c0,0.606,0,1.08,0,1.769c0.622,0,1.241,0,1.86,0c0.59,0,1.179,0,1.842,0
		c0,1.106,0,2.087,0,3.159c-5.014,0-10.021,0-15.105,0c0-1.051,0-2.037,0-3.171c1.097,0,2.189,0,3.377,0c0-2.238,0-4.331,0-6.628
		c-0.809,0-1.629-0.037-2.445,0.011c-0.796,0.047-1.2-0.184-1.113-1.064c0.062-0.629,0.012-1.269,0.012-1.923
		c0.268-0.068,0.457-0.159,0.645-0.158c7.032,0.037,14.065,0.025,21.095,0.178c1.332,0.029,2.778,0.49,3.946,1.152
		c1.918,1.087,1.86,2.811,0.064,4.094c-0.451,0.322-0.944,0.584-1.228,0.758c0.669,1.044,1.307,2.081,1.996,3.082
		c0.15,0.218,0.494,0.441,0.73,0.423c0.263-0.021,0.599-0.263,0.729-0.504c0.158-0.292,0.134-0.683,0.201-1.104
		c0.68,0,1.336,0,1.982,0c0.604,2.816-0.992,4.882-3.807,4.938c-1.718,0.034-3.437,0.02-5.155,0.002
		c-1.532-0.017-2.446-0.699-2.943-2.155c-0.142-0.415-0.253-0.84-0.381-1.26c-0.287-0.939-0.924-1.535-1.892-1.581
		C185.226,25.726,183.794,25.776,182.244,25.776z M182.256,23.213c1.049,0,1.966,0.031,2.88-0.008
		c0.989-0.043,1.996-0.061,2.953-0.278c0.389-0.088,0.666-0.671,0.994-1.028c-0.368-0.273-0.727-0.766-1.106-0.782
		c-1.894-0.081-3.793-0.037-5.721-0.037C182.256,21.801,182.256,22.425,182.256,23.213z"/>
	<path fill="#FFFFFF" d="M41.424,24.323c0.569,0.242,0.983,0.388,1.368,0.588c2.091,1.087,2.254,3.755,0.205,4.923
		c-0.934,0.533-2.102,0.906-3.168,0.917c-7.316,0.078-14.634,0.042-21.951,0.037c-0.23,0-0.46-0.068-0.75-0.113
		c0-1.025,0-2.006,0-3.161c1.186,0,2.355,0,3.601,0c0-2.266,0-4.359,0-6.584c-0.984,0-1.897-0.014-2.809,0.005
		c-0.603,0.013-0.82-0.226-0.852-0.848c-0.12-2.33-0.143-2.329,2.141-2.329c6.357,0,12.716-0.057,19.072,0.044
		c1.431,0.023,2.958,0.368,4.255,0.968c2.236,1.035,2.326,3.005,0.387,4.521C42.486,23.633,42.008,23.923,41.424,24.323z
		 M28.606,27.509c1.889,0,3.68,0.079,5.456-0.053c0.476-0.035,0.903-0.715,1.353-1.099c-0.367-0.319-0.722-0.894-1.104-0.913
		c-1.891-0.095-3.789-0.043-5.705-0.043C28.606,26.132,28.606,26.728,28.606,27.509z M28.65,23.157c1.684,0,3.303,0.014,4.921-0.011
		c0.345-0.005,0.763-0.055,1.014-0.253c0.34-0.267,0.727-0.684,0.755-1.063c0.018-0.234-0.584-0.728-0.921-0.741
		c-1.923-0.072-3.85-0.035-5.77-0.035C28.65,21.798,28.65,22.416,28.65,23.157z"/>
	<path fill="#FFFFFF" d="M137.996,21.054c-1.06,0-1.925,0-2.943,0c0,2.409,0,4.715,0,7.021c0,2.719,0,2.719-2.7,2.719
		c-2.04,0-4.083,0.065-6.117-0.036c-0.681-0.034-1.488-0.328-1.985-0.78c-2.623-2.393-5.166-4.875-7.897-7.479
		c0,1.78,0,3.34,0,5.013c1.04,0,2.024,0,2.941,0c0.107,0.176,0.178,0.24,0.183,0.308c0.234,2.975,0.234,2.975-2.737,2.975
		c-2.16,0-4.321-0.044-6.479,0.02c-0.927,0.028-1.208-0.298-1.126-1.173c0.062-0.663,0.012-1.336,0.012-2.126
		c1.037,0,1.939,0,2.911,0c0-2.182,0-4.242,0-6.425c-0.903,0-1.803,0-2.8,0c0-1.133,0-2.146,0-3.265
		c0.398-0.023,0.788-0.065,1.179-0.065c3.76-0.005,7.52-0.035,11.278,0.03c0.605,0.01,1.33,0.31,1.78,0.718
		c2.132,1.934,4.187,3.953,6.272,5.939c0.279,0.265,0.574,0.513,0.992,0.886c0-1.5,0-2.825,0-4.267c-0.935,0-1.839,0-2.946,0
		c0-0.968-0.058-1.833,0.038-2.681c0.027-0.235,0.508-0.595,0.785-0.599c2.839-0.044,5.679-0.02,8.519-0.032
		c0.607-0.003,0.872,0.23,0.845,0.853C137.971,19.359,137.996,20.112,137.996,21.054z"/>
	<path fill="#FFFFFF" d="M84.349,22.452c0,1.837,0,3.375,0,5.019c1.046,0,2.031,0,3.223,0c0,0.963,0.058,1.83-0.037,2.679
		c-0.027,0.239-0.499,0.609-0.771,0.613c-2.918,0.045-5.837,0.019-8.755,0.037c-0.625,0.004-0.814-0.255-0.854-0.854
		c-0.157-2.322-0.175-2.321,2.932-2.5c0-2.078,0-4.165,0-6.374c-0.892,0-1.793,0-2.793,0c0-1.128,0-2.137,0-3.314
		c0.471,0,0.9,0,1.328,0c3.638,0,7.277,0.027,10.915-0.019c0.918-0.012,1.577,0.279,2.222,0.91c2.277,2.229,4.601,4.41,7.052,6.747
		c0-1.53,0-2.858,0-4.327c-0.929,0-1.866,0-2.961,0c0-1.003-0.048-1.874,0.034-2.733c0.02-0.212,0.457-0.547,0.707-0.551
		c2.878-0.039,5.757-0.046,8.635,0.007c0.277,0.005,0.74,0.443,0.78,0.727c0.109,0.774,0.037,1.574,0.037,2.5
		c-1.029,0-1.926,0-2.957,0c0,2.768,0.001,5.398,0,8.029c-0.001,1.745-0.002,1.745-1.758,1.745c-2.399,0-4.799,0.047-7.195-0.033
		c-0.606-0.02-1.331-0.306-1.775-0.715C89.713,27.615,87.137,25.112,84.349,22.452z"/>
	<path fill="#FFFFFF" d="M140.942,21.078c0-1.137,0-2.122,0-3.214c8.818,0,17.62,0,26.499,0c0,1.669,0,3.289,0,5.016
		c-1.914,0-3.845,0-5.865,0c-0.049-0.543-0.101-1.115-0.158-1.747c-2.919,0-5.777,0-8.713,0c0,0.65,0,1.26,0,2
		c1.673,0,3.293,0,4.979,0c0,0.907,0,1.686,0,2.603c-1.658,0-3.277,0-4.975,0c0,0.631,0,1.127,0,1.706c2.92,0,5.852,0,8.807,0
		c0.048-0.518,0.09-0.985,0.141-1.54c1.982,0,3.918,0,6.053,0c0,1.438,0.023,2.898-0.029,4.356
		c-0.007,0.184-0.393,0.469-0.634,0.507c-0.507,0.08-1.035,0.03-1.555,0.03c-7.675,0-15.349,0-23.024,0c-0.472,0-0.945,0-1.499,0
		c0-1.1,0-2.078,0-3.215c1.152,0,2.325,0,3.565,0c0-2.221,0-4.284,0-6.501C143.335,21.078,142.164,21.078,140.942,21.078z"/>
	<path fill="#FFFFFF" d="M73.952,27.728c0,0.719,0,1.271,0,1.823c0,0.353,0,0.706,0,1.15c-4.759,0-9.407,0-14.121,0
		c0-1.026,0-1.962,0-2.988c0.869-0.041,1.683-0.08,2.577-0.122c-0.478-1.239-1.092-2.016-2.478-1.781
		c-0.544,0.092-1.124,0.075-1.674,0.003c-1.331-0.174-2.25,0.26-2.642,1.755c0.666,0.051,1.349,0.103,2.115,0.161
		c0,0.97,0,1.907,0,2.965c-0.327,0.032-0.671,0.094-1.015,0.095c-2.757,0.008-5.514-0.022-8.271,0.02
		c-0.898,0.014-1.358-0.204-1.244-1.201c0.072-0.626,0.013-1.267,0.013-2.087c0.882,0,1.667-0.044,2.445,0.013
		c0.724,0.053,1.151-0.202,1.538-0.83c1.651-2.687,3.382-5.324,5.034-8.011c0.431-0.701,0.927-0.977,1.745-0.952
		c1.796,0.053,3.597,0.056,5.393,0.001c0.854-0.026,1.386,0.245,1.847,0.986c1.602,2.576,3.318,5.083,4.896,7.673
		c0.608,0.998,1.274,1.554,2.475,1.338C72.967,27.67,73.372,27.728,73.952,27.728z M57.289,22.758
		c0.088,0.091,0.177,0.182,0.265,0.273c1.072,0,2.145,0,3.217,0c0.073-0.112,0.146-0.224,0.219-0.336
		c-0.62-0.553-1.257-1.558-1.854-1.534C58.5,21.185,57.903,22.184,57.289,22.758z"/>
	<path fill="#FFFFFF" d="M41.788,59.229c-1.134,0.474-2.29,0.957-3.546,1.481"/>
	<path d="M182.256,23.213c0-0.788,0-1.412,0-2.134c1.928,0,3.827-0.044,5.721,0.037c0.379,0.016,0.738,0.509,1.106,0.782
		c-0.328,0.358-0.605,0.94-0.994,1.028c-0.957,0.217-1.964,0.235-2.953,0.278C184.222,23.244,183.305,23.213,182.256,23.213z"/>
	<path d="M28.606,27.509c0-0.781,0-1.376,0-2.108c1.915,0,3.814-0.052,5.705,0.043c0.382,0.019,0.737,0.594,1.104,0.913
		c-0.45,0.384-0.877,1.063-1.353,1.099C32.286,27.588,30.494,27.509,28.606,27.509z"/>
	<path d="M28.65,23.157c0-0.741,0-1.359,0-2.103c1.92,0,3.847-0.037,5.77,0.035c0.337,0.013,0.939,0.507,0.921,0.741
		c-0.029,0.379-0.415,0.796-0.755,1.063c-0.252,0.198-0.669,0.247-1.014,0.253C31.953,23.17,30.334,23.157,28.65,23.157z"/>
	<path d="M57.289,22.758c0.614-0.574,1.211-1.572,1.848-1.598c0.596-0.024,1.234,0.982,1.854,1.534
		c-0.073,0.112-0.146,0.224-0.219,0.336c-1.072,0-2.145,0-3.217,0C57.466,22.939,57.377,22.849,57.289,22.758z"/>
</g>
</svg>
