<?xml version="1.0" encoding="UTF-8" standalone="no"?>
<svg
   xmlns:dc="http://purl.org/dc/elements/1.1/"
   xmlns:cc="http://creativecommons.org/ns#"
   xmlns:rdf="http://www.w3.org/1999/02/22-rdf-syntax-ns#"
   xmlns:svg="http://www.w3.org/2000/svg"
   xmlns="http://www.w3.org/2000/svg"
   xml:space="preserve"
   enable-background="new 0 0 595.276 841.89"
   viewBox="0 0 142.05901 42.298"
   height="42.298"
   width="142.05901"
   y="0px"
   x="0px"
   id="Ebene_1"
   version="1.0"><metadata
     id="metadata41"><rdf:RDF><cc:Work
         rdf:about=""><dc:format>image/svg+xml</dc:format><dc:type
           rdf:resource="http://purl.org/dc/dcmitype/StillImage" /><dc:title></dc:title></cc:Work></rdf:RDF></metadata><defs
     id="defs39" /><polygon
     transform="translate(-350.941,-63.008)"
     style="fill:#3db60f"
     id="polygon2"
     points="358.049,86.422 350.942,86.422 350.942,63.053 392.743,63.029 392.743,86.422 385.298,86.422 378.37,67.322 371.648,85.891 364.951,67.411 " /><polygon
     transform="translate(-350.941,-63.008)"
     style="fill:#3db60f"
     id="polygon4"
     points="362.131,92.397 350.941,92.397 350.941,104.967 392.742,104.967 392.742,92.397 381.176,92.393 378.366,84.623 371.648,103.193 364.94,84.623 " /><polygon
     transform="translate(-350.941,-63.008)"
     style="fill:#3db60f"
     id="polygon6"
     points="402.202,95.405 402.202,97.17 404.887,97.17 404.887,100.163 402.202,100.163 402.202,102.095 405.194,102.095 405.194,105.087 398.716,105.087 398.716,92.414 405.194,92.414 405.194,95.405 " /><polygon
     transform="translate(-350.941,-63.008)"
     style="fill:#3db60f"
     id="polygon8"
     points="411.074,102.095 413.69,102.095 413.69,105.087 407.587,105.087 407.587,92.413 411.074,92.413 " /><polygon
     transform="translate(-350.941,-63.008)"
     style="fill:#3db60f"
     id="polygon10"
     points="418.938,95.405 418.938,97.17 421.621,97.17 421.621,100.163 418.938,100.163 418.938,102.095 421.93,102.095 421.93,105.087 415.45,105.087 415.45,92.414 421.93,92.414 421.93,95.405 " /><polygon
     transform="translate(-350.941,-63.008)"
     style="fill:#3db60f"
     id="polygon12"
     points="427.81,99.271 427.81,105.087 424.321,105.087 424.321,92.413 427.81,92.413 427.81,97.809 427.793,97.809 427.81,97.809 427.775,97.843 427.775,97.809 427.826,97.809 429.741,92.413 433.418,92.413 430.631,98.532 433.742,105.087 429.997,105.087 427.826,99.271 427.844,99.271 " /><polygon
     transform="translate(-350.941,-63.008)"
     style="fill:#3db60f"
     id="polygon14"
     points="434.869,92.413 442.272,92.413 442.272,95.506 440.271,95.506 440.271,105.087 436.783,105.087 436.783,95.506 434.869,95.506 " /><g
     transform="translate(-350.941,-63.008)"
     id="g34"><path
       style="fill:#3db60f"
       id="path16"
       d="m 449.416,105.087 -1.931,-5.279 -0.035,0.034 c 0.019,0.622 0.052,1.244 0.052,1.866 v 3.379 h -3.487 V 92.414 h 3.37 c 3.022,0 5.213,0.874 5.213,4.219 0,1.396 -0.617,2.639 -2.001,3.176 l 2.598,5.279 h -3.779 z m -1.691,-6.807 c 0.924,0 1.419,-0.79 1.419,-1.613 0,-1.11 -0.685,-1.581 -1.642,-1.53 v 3.126 z" /><path
       style="fill:#3db60f"
       id="path18"
       d="m 459.212,92.194 c 3.537,0 4.923,3.463 4.923,6.556 0,3.092 -1.386,6.556 -4.923,6.556 -3.537,0 -4.923,-3.464 -4.923,-6.556 0,-3.092 1.386,-6.556 4.923,-6.556 m 0,9.918 c 1.315,0 1.369,-2.572 1.369,-3.362 0,-0.79 -0.054,-3.361 -1.369,-3.361 -1.316,0 -1.366,2.571 -1.366,3.361 0,0.79 0.05,3.362 1.366,3.362" /><path
       style="fill:#3db60f"
       id="path20"
       d="m 466.152,92.414 h 3.315 l 2.787,7.631 0.034,-0.033 c -0.137,-1.463 -0.395,-2.908 -0.395,-4.371 v -3.227 h 3.353 v 12.674 h -3.353 l -2.596,-7.312 -0.035,0.034 c 0.085,1.193 0.239,2.37 0.239,3.563 v 3.715 H 466.15 V 92.414 Z" /><rect
       style="fill:#3db60f"
       id="rect22"
       height="12.674"
       width="3.4860001"
       y="92.413002"
       x="477.64001" /><polygon
       style="fill:#3db60f"
       id="polygon24"
       points="487.008,99.271 487.008,105.087 483.521,105.087 483.521,92.413 487.008,92.413 487.008,97.809 486.989,97.809 487.008,97.809 486.975,97.843 486.975,97.809 487.024,97.809 488.938,92.413 492.615,92.413 489.827,98.532 492.939,105.087 489.194,105.087 487.024,99.271 487.04,99.271 " /><path
       style="fill:#3db60f"
       id="path26"
       d="m 430.175,86.428 c -2.094,-0.154 -4.006,-1.939 -4.147,-4.231 l -0.062,-19.17 h 6.217 v 15.658 c 0,1.283 1.207,2.493 2.49,2.493 h 1.972 c 1.266,0 2.458,-1.068 2.458,-2.493 V 63.027 h 6.217 l -0.063,19.165 c 0.012,2.299 -2.052,4.082 -4.146,4.236 z" /><polygon
       style="fill:#3db60f"
       id="polygon28"
       points="410.758,76.677 416.245,63.008 422.775,63.008 422.775,86.431 416.271,86.447 416.271,76.558 411.857,86.449 409.605,86.449 405.233,76.611 405.23,86.45 398.797,86.38 398.736,63.012 405.23,63.012 " /><path
       style="fill:#3db60f"
       id="path30"
       d="m 478.174,68.573 v 5.113 h 4.221 c 1.425,0 2.778,-1.102 2.778,-2.56 0,-1.458 -1.354,-2.553 -2.778,-2.553 z m -6.153,17.841 V 63.027 h 14.558 c 3.263,0.148 4.781,2.5 4.952,4.963 v 4.091 c -0.035,2.847 -2.73,4.112 -2.73,4.112 0,0 2.377,0.83 2.803,4.102 0.428,3.271 0.626,4.523 0.626,4.523 0.18,0.896 0.77,1.622 0.77,1.622 h -6.344 c 0,0 -0.739,-1.167 -1.025,-3.443 -0.285,-2.276 -1.251,-3.243 -1.535,-3.413 -0.286,-0.171 -0.711,-0.712 -2.562,-0.712 h -3.299 v 7.568 z" /><path
       style="fill:#3db60f"
       id="path32"
       d="m 454.769,68.573 v 5.113 h 4.222 c 1.426,0 2.78,-1.102 2.78,-2.56 0,-1.458 -1.354,-2.553 -2.78,-2.553 z m -6.154,17.841 V 63.027 h 14.561 c 3.261,0.148 4.78,2.5 4.951,4.963 v 4.091 c -0.035,2.847 -2.731,4.112 -2.731,4.112 0,0 2.377,0.83 2.803,4.102 0.428,3.271 0.627,4.523 0.627,4.523 0.178,0.896 0.768,1.622 0.768,1.622 h -6.343 c 0,0 -0.74,-1.167 -1.025,-3.443 -0.284,-2.276 -1.252,-3.243 -1.537,-3.413 -0.283,-0.171 -0.709,-0.712 -2.56,-0.712 h -3.298 v 7.568 z" /></g></svg>