<?xml version="1.0" encoding="utf-8"?>
<!-- Generator: Adobe Illustrator 17.0.0, SVG Export Plug-In . SVG Version: 6.00 Build 0)  -->
<!DOCTYPE svg PUBLIC "-//W3C//DTD SVG 1.1//EN" "http://www.w3.org/Graphics/SVG/1.1/DTD/svg11.dtd">
<svg version="1.1" id="Layer_1" focusable="false" xmlns="http://www.w3.org/2000/svg" xmlns:xlink="http://www.w3.org/1999/xlink"
	 x="0px" y="0px" width="595.28px" height="841.89px" viewBox="0 0 595.28 841.89" enable-background="new 0 0 595.28 841.89"
	 xml:space="preserve">
<path fill="#FFFFFF" d="M539.473,197.715H55.808C24.985,197.715,0,222.7,0,253.522v334.845c0,30.822,24.985,55.808,55.808,55.808
	h483.665c30.822,0,55.807-24.985,55.807-55.808V253.522C595.28,222.7,570.295,197.715,539.473,197.715z M539.473,253.522v47.442
	c-26.069,21.229-67.629,54.239-156.478,123.811c-19.58,15.402-58.367,52.403-85.354,51.972
	c-26.983,0.436-65.782-36.576-85.354-51.972C123.451,355.214,81.88,322.197,55.808,300.965v-47.442H539.473z M55.808,588.367
	V372.576c26.641,21.22,64.422,50.996,122.007,96.089c25.412,20.004,69.915,64.162,119.826,63.894
	c49.665,0.269,93.604-43.25,119.815-63.884c57.584-45.091,95.375-74.876,122.017-96.097v215.79H55.808z"/>
</svg>
