<?xml version="1.0" encoding="utf-8"?>
<!-- Generator: Adobe Illustrator 17.0.0, SVG Export Plug-In . SVG Version: 6.00 Build 0)  -->
<!DOCTYPE svg PUBLIC "-//W3C//DTD SVG 1.1//EN" "http://www.w3.org/Graphics/SVG/1.1/DTD/svg11.dtd">
<svg version="1.1" id="Layer_1_xA0_Image_1_" xmlns="http://www.w3.org/2000/svg" xmlns:xlink="http://www.w3.org/1999/xlink"
	 x="0px" y="0px" width="309.12px" height="120px" viewBox="0 0 309.12 120" enable-background="new 0 0 309.12 120"
	 xml:space="preserve">
<g>
	<g>
		<path fill="#01215F" d="M207.485,65.046c-0.084,0-0.167,0-0.251,0C207.613,65.047,207.972,65.047,207.485,65.046z"/>
	</g>
	<path fill="#373737" d="M254.848,55.226c0.052-0.058,0.102-0.118,0.163-0.169c-0.005,0.002-0.009,0.005-0.014,0.007
		C254.918,55.131,254.869,55.185,254.848,55.226z"/>
	<path fill="#373737" d="M255.012,55.057c0.019-0.012,0.027-0.033,0.045-0.047c-0.029,0.022-0.037,0.035-0.06,0.054
		C255.002,55.062,255.007,55.06,255.012,55.057z"/>
	<polygon fill="#373737" points="255.06,55.014 255.059,55.012 255.059,55.013 	"/>
	<polygon fill="#373737" points="255.057,55.011 255.059,55.013 255.059,55.012 	"/>
	<path fill="#889FB7" d="M303.398,40.225c-0.288-0.622-1.339-0.856-1.908-1.092c-0.831-0.345-1.663-0.69-2.494-1.035
		c-3.425-1.42-6.849-2.845-10.31-4.178c-13.742-5.295-27.921-9.423-42.371-12.268c-30.251-5.956-61.381-7.015-92.107-5.411
		c-15.233,0.795-30.444,2.389-45.507,4.792c-14.713,2.348-29.412,5.354-43.637,9.834c-6.844,2.156-13.635,4.692-20.021,7.984
		c-2.909,1.5-5.719,3.217-8.251,5.3c-2.434,2.003-4.883,4.349-5.927,7.402c-2.093,6.12,2.316,11.958,6.944,15.479
		c5.422,4.125,11.737,7.11,18.087,9.499c13.773,5.18,28.297,8.202,42.789,10.506c14.853,2.362,29.916,4.239,44.959,4.782
		c-5.33-0.193,1.272,0.28,0.352,0.063c3.006,0.579,6.293,0.377,9.342,0.498c3.358,0.133,6.714,0.353,10.073,0.44
		c3.42,0.088,6.841,0.066,10.262,0.079c0.933,0.004,1.866,0.01,2.799,0.022l0,0c3.378,0.001,6.755,0.002,10.133,0.002
		c1.689,0,3.378,0,5.067-0.001c0.858,0,2.803,0.4,3.316-0.552c-4.216-0.008-8.432,0.005-12.648,0.009h0l0,0
		c-6.911,0.101-13.833-0.072-20.734-0.447c-3.554-0.193-7.104-0.459-10.659-0.637c-3.193-0.16-6.378-0.63-9.578-0.611
		c-2.058-0.235-4.112-0.518-6.177-0.73c-3.815-0.392-7.626-0.767-11.429-1.265c-7.559-0.989-15.09-2.201-22.564-3.708
		c-13.816-2.786-28.104-6.309-40.461-13.32c-5.167-2.931-11.48-7.436-12.384-13.774c-0.943-6.607,4.376-11.759,9.352-15.158
		c5.849-3.996,12.448-6.745,19.102-9.089c6.959-2.452,14.089-4.392,21.287-6.003c14.759-3.305,29.754-5.305,44.803-6.702
		c7.683-0.713,15.383-1.165,23.089-1.539c7.63-0.37,15.253-0.283,22.889-0.279c30.305,0.014,60.719,5.272,89.725,13.868
		c7.168,2.124,14.223,4.552,21.228,7.158c0.922,0.343,1.84,0.705,2.771,1.02C303.207,41.369,303.681,40.835,303.398,40.225z
		 M149.271,91.763c0.07,0.022,0.142,0.034,0.212,0.058c-0.171,0-0.341,0-0.512,0C149.075,91.802,149.177,91.783,149.271,91.763z"/>
	<path fill="#FEFEFE" d="M253.76,28.597c-0.573-0.084-1.157-1.268-0.331-1.193C254.047,27.46,254.66,28.588,253.76,28.597
		C253.334,28.535,254.068,28.594,253.76,28.597z"/>
	<path fill="#FEFEFE" d="M175.95,19.509c0.655,0.018,0.785,0.83,0.096,0.893C175.436,20.459,175.409,19.663,175.95,19.509
		C176.263,19.518,175.733,19.571,175.95,19.509z"/>
	<path fill="#254378" d="M301.929,76.968c-0.27-0.208-1.337,0.243-1.595,0.329c-1.713,0.573-3.337,1.405-5.058,1.987
		c-1.691,0.572-3.391,1.117-5.098,1.639c-14.259,4.356-29.001,7.074-43.746,9.165c-15.192,2.155-30.504,3.528-45.824,4.346
		c-30.648,1.636-61.599,0.802-92.037-3.239c-14.9-1.978-29.743-4.664-44.186-8.879c-6.947-2.027-13.785-4.474-20.307-7.623
		c-5.858-2.829-11.812-6.254-15.888-11.459c-3.933-5.022-4.098-11.335-0.19-16.414c3.949-5.131,9.791-8.658,15.541-11.423
		c1.355-0.651,2.742-1.245,4.119-1.849c1.376-0.603,2.761-1.189,4.157-1.745c1.395-0.556,2.8-1.084,4.216-1.584
		c1.416-0.5,2.841-0.973,4.273-1.427c1.432-0.453,2.871-0.888,4.313-1.309c1.442-0.421,2.888-0.83,4.338-1.226
		c1.449-0.396,2.901-0.78,4.358-1.146c1.457-0.367,2.918-0.716,4.383-1.045c1.467-0.329,2.939-0.638,4.415-0.931
		c1.478-0.293,2.958-0.571,4.439-0.844c2.595-0.479,5.202-0.891,7.789-1.41c0.751-0.151,1.501-0.301,2.254-0.439
		c0.57-0.104,1.135-0.237,1.706-0.332c0.602-0.1,1.218-0.133,1.807-0.306c-0.277,0.001-0.534-0.082-0.804-0.133
		c-0.382-0.072-0.776-0.121-1.165-0.132c-1.288-0.038-2.55,0.282-3.806,0.523c-1.234,0.237-2.487,0.38-3.732,0.544
		c-0.722,0.095-1.445,0.187-2.169,0.275c-1.738,0.211-3.476,0.428-5.203,0.721c-0.507,0.086-1.014,0.178-1.519,0.277
		c-0.576,0.113-1.151,0.234-1.723,0.365c0.055,0.005,0.111-0.002,0.166,0.002c-2.891,0.377-5.768,0.905-8.636,1.421
		c-6.078,1.094-12.128,2.353-18.121,3.851c-11.401,2.849-22.767,6.249-33.226,11.699C14.533,42.154,8.483,45.928,5.307,51.65
		c-3.418,6.157-0.563,12.559,4.155,17.078c4.801,4.598,11.156,7.719,17.195,10.34c6.525,2.832,13.322,4.976,20.165,6.888
		c14.605,4.079,29.623,6.725,44.65,8.674c15.236,1.977,30.576,3.128,45.926,3.717c30.971,1.188,61.965-0.26,92.743-3.825
		c15.152-1.755,30.297-4.275,45.102-7.974c7.144-1.785,14.38-3.712,21.171-6.593c1.624-0.689,3.289-1.574,4.959-2.114
		C301.683,77.741,302.501,77.41,301.929,76.968z"/>
	<path fill="#FEFEFE" d="M279.275,86.897c-0.519,0.009-0.574-0.513-0.128-0.739C279.882,85.788,279.872,86.627,279.275,86.897
		C278.987,86.902,279.465,86.811,279.275,86.897z"/>
</g>
<g>
	<path fill="#01215F" d="M85.477,65.523c2.842,0,5.684,0.019,8.525-0.006c2.031-0.018,3.385-1.043,3.746-2.757
		c0.493-2.344-0.221-4.142-1.969-4.941c-0.892-0.408-1.846-0.241-2.773-0.249c-2.751-0.024-5.502,0.001-8.253-0.005
		c-2.116-0.004-4.131-0.41-5.991-1.482c-1.994-1.149-3.403-2.797-4.093-4.976c-0.945-2.986-0.915-5.971,0.602-8.78
		c1.254-2.322,3.283-3.705,5.815-4.425c1.454-0.413,2.924-0.385,4.4-0.388c3.567-0.007,7.135,0.024,10.702-0.012
		c0.812-0.008,1.06,0.261,1.029,1.046c-0.051,1.298-0.018,2.599-0.012,3.899c0.006,1.219,0.001,1.229-1.187,1.23
		c-3.991,0.003-7.981-0.004-11.972,0.011c-2.298,0.009-3.876,1.623-3.848,3.895c0.028,2.243,1.549,3.763,3.852,3.787
		c3.476,0.036,6.954,0.005,10.43,0.064c2.824,0.048,5.328,0.956,7.305,3.059c1.237,1.316,1.93,2.886,2.154,4.681
		c0.269,2.15,0.277,4.278-0.392,6.366c-0.95,2.97-3.126,4.614-5.988,5.497c-1.784,0.551-3.63,0.572-5.474,0.573
		c-4.595,0.003-9.191,0.001-13.786-0.001c-0.393,0-0.789,0.011-1.178-0.033c-1.139-0.129-1.374-0.408-1.37-1.547
		c0.004-1.119-0.001-2.237,0.004-3.356c0.005-1.112,0.046-1.155,1.195-1.156c2.842-0.004,5.684-0.001,8.526-0.001
		C85.477,65.518,85.477,65.521,85.477,65.523z"/>
	<path fill="#01215F" d="M114.969,57.667c0,4.262-0.019,8.525,0.016,12.787c0.007,0.858-0.244,1.205-1.128,1.172
		c-1.328-0.05-2.661-0.039-3.989,0.001c-0.807,0.024-1.031-0.317-1.029-1.088c0.017-8.585-0.004-17.17,0.022-25.755
		c0.003-0.908-0.335-1.134-1.176-1.12c-2.508,0.04-5.018-0.012-7.527,0.027c-0.814,0.012-1.148-0.233-1.114-1.084
		c0.053-1.328,0.045-2.661-0.002-3.989c-0.028-0.799,0.204-1.119,1.068-1.116c7.95,0.026,15.901,0.019,23.851-0.001
		c0.735-0.002,1.037,0.228,1.014,0.989c-0.044,1.419-0.048,2.842-0.008,4.261c0.02,0.717-0.241,0.957-0.946,0.949
		c-2.63-0.03-5.26,0.01-7.889-0.036c-0.917-0.016-1.184,0.304-1.174,1.216c0.045,4.262,0.02,8.525,0.02,12.787
		C114.974,57.667,114.971,57.667,114.969,57.667z"/>
	<path fill="#01215F" d="M194.549,65.638c0,1.603-0.05,3.207,0.011,4.808c0.108,2.848-1.126,4.125-3.592,5.234
		c-1.903,0.856-3.935,0.873-5.963,0.784c-0.897-0.039-1.479-0.868-1.442-1.879c0.031-0.858,0.505-1.365,1.459-1.363
		c1.736,0.003,3.441-0.108,5.05-0.839c0.185-0.084,0.467-0.086,0.441-0.365c-0.029-0.309-0.323-0.347-0.557-0.352
		c-0.785-0.017-1.572,0.004-2.357-0.006c-2.537-0.031-5.077,0.128-7.61-0.216c-1.885-0.255-3.448-1.03-4.645-2.52
		c-0.585-0.727-0.718-1.604-0.732-2.477c-0.035-2.146,0.005-4.294,0.002-6.44c-0.003-2.713,1.669-4.154,3.959-4.835
		c2.929-0.871,5.919-0.611,8.903-0.506c1.406,0.05,2.743,0.353,4.028,0.923c2.042,0.905,3.061,2.456,3.046,4.695
		c-0.012,1.784-0.002,3.568-0.002,5.353C194.547,65.638,194.548,65.638,194.549,65.638z M185.428,68.21c0,0.013,0,0.027,0,0.04
		c1.572,0,3.145-0.029,4.716,0.012c0.757,0.02,1.001-0.258,0.989-1.005c-0.037-2.297-0.05-4.596,0.004-6.893
		c0.022-0.955-0.454-1.485-1.22-1.806c-0.607-0.254-1.266-0.521-1.907-0.534c-2.689-0.052-5.382-0.073-8.069,0.024
		c-1.478,0.053-2.002,0.773-1.998,2.254c0.006,1.965,0.03,3.931,0.001,5.896c-0.011,0.744,0.311,1.225,0.949,1.49
		c0.694,0.289,1.394,0.552,2.182,0.532C182.525,68.185,183.977,68.21,185.428,68.21z"/>
	<path fill="#01215F" d="M126.815,54.485c0-5.292,0.016-10.584-0.017-15.876c-0.005-0.819,0.211-1.137,1.064-1.101
		c1.358,0.056,2.724,0.062,4.081-0.013c0.965-0.054,1.068,0.415,1.066,1.201c-0.018,9.979-0.014,19.959-0.014,29.938
		c0,0.726-0.012,1.452,0.007,2.177c0.016,0.584-0.258,0.815-0.823,0.81c-1.482-0.014-2.964-0.039-4.445-0.002
		c-0.817,0.02-0.927-0.395-0.925-1.076c0.018-5.352,0.01-10.705,0.01-16.058C126.818,54.485,126.817,54.485,126.815,54.485z"/>
	<path fill="#01215F" d="M290.582,59.423c1.724,0,3.448,0.008,5.172-0.008c0.336-0.003,0.839,0.112,0.88-0.385
		c0.034-0.411-0.413-0.514-0.751-0.666c-1.391-0.628-2.856-0.358-4.293-0.383c-1.409-0.025-2.177-1.154-1.674-2.474
		c0.265-0.695,0.828-0.899,1.44-0.875c1.865,0.073,3.745,0.014,5.564,0.596c2.078,0.665,3.449,2.484,3.452,4.672
		c0.004,2.238-0.004,4.476,0.008,6.714c0.009,1.728-0.659,3.15-2.064,4.118c-1.056,0.727-2.333,1.042-3.603,1.067
		c-3.114,0.061-6.24,0.17-9.342-0.029c-2.321-0.149-4.536-0.902-5.692-3.256c-1.023-2.083-0.455-5.878,1.152-7.358
		c1.326-1.221,3.021-1.627,4.762-1.714C287.252,59.358,288.919,59.423,290.582,59.423z M290.142,68.504
		c1.834-0.073,3.681,0.153,5.501-0.269c0.576-0.134,0.955-0.38,1.144-0.994c0.207-0.673,0.323-1.331,0.309-2.037
		c-0.053-2.752,0.12-2.329-2.337-2.345c-3.048-0.021-6.104-0.123-9.141,0.069c-2.65,0.167-3.111,0.711-2.945,3.017
		c0.004,0.06,0,0.121,0.001,0.181c0.023,1.226,0.571,1.804,1.785,2.09C286.343,68.659,288.247,68.427,290.142,68.504z"/>
	<path fill="#01215F" d="M163.657,70.367c-0.046,0.959-0.546,1.635-1.356,1.827c-0.914,0.216-1.424-0.365-1.83-1.027
		c-0.85-1.388-1.686-2.786-2.472-4.211c-0.368-0.667-0.837-0.924-1.597-0.918c-3.96,0.029-7.92,0.03-11.879-0.001
		c-0.711-0.005-1.095,0.273-1.423,0.866c-0.759,1.373-1.555,2.727-2.374,4.066c-0.705,1.153-1.633,1.23-2.481,0.261
		c-0.4-0.457-0.498-0.908-0.18-1.477c1.928-3.451,3.834-6.913,5.747-10.372c1.489-2.692,2.977-5.385,4.466-8.078
		c0.044-0.079,0.084-0.161,0.132-0.238c1.116-1.812,3.117-1.823,4.2-0.006c2.966,4.979,5.922,9.964,8.879,14.948
		c0.631,1.064,1.24,2.142,1.884,3.198C163.605,69.585,163.748,69.96,163.657,70.367z M150.558,62.698c0,0.001,0,0.002,0,0.003
		c1.269,0,2.538,0.001,3.808,0c0.957-0.001,1.026-0.078,0.579-0.876c-1.283-2.292-2.588-4.572-3.892-6.853
		c-0.303-0.53-0.585-0.725-0.985-0.017c-1.32,2.339-2.687,4.65-4.029,6.977c-0.345,0.599,0.013,0.76,0.53,0.763
		C147.898,62.704,149.228,62.698,150.558,62.698z"/>
	<path fill="#01215F" d="M207.436,65.109c-2.297,0-4.595-0.004-6.892,0.002c-1.141,0.003-1.239,0.175-0.834,1.21
		c0.476,1.216,1.432,1.741,2.644,1.881c1.138,0.131,2.284,0.196,3.425,0.305c0.826,0.079,1.196,0.535,1.236,1.481
		c0.051,1.206-0.226,1.752-1.14,1.801c-2.298,0.123-4.656,0.23-6.76-0.834c-1.74-0.88-3.063-2.269-3.067-4.44
		c-0.004-2.176,0.043-4.352,0.033-6.528c-0.012-2.76,1.746-3.967,3.682-4.811c1.174-0.512,2.416-0.548,3.639-0.568
		c2.627-0.042,5.273-0.254,7.878,0.148c3.145,0.486,4.778,2.218,4.779,5.039c0,1.239,0.024,2.48-0.034,3.716
		c-0.057,1.222-0.494,1.598-1.698,1.605c-1.149,0.006-2.297,0-3.446-0.001c-1.149,0-2.297,0-3.446,0
		C207.436,65.114,207.436,65.112,207.436,65.109z M205.985,61.673c0-0.005,0-0.01,0-0.016c1.902,0,3.803,0,5.705,0
		c0.364,0,0.744,0.031,0.946-0.37c0.581-1.154-0.182-2.612-1.45-2.941c-2.323-0.603-4.68-0.357-7.027-0.366
		c-0.96-0.003-1.921-0.031-2.874,0.242c-1.672,0.48-1.92,0.796-1.899,2.524c0.008,0.715,0.296,0.947,0.985,0.936
		C202.242,61.653,204.113,61.673,205.985,61.673z"/>
	<path fill="#01215F" d="M217.606,64.572c0-1.723-0.016-3.447,0.004-5.17c0.026-2.198,1.149-3.589,3.226-4.264
		c1.055-0.342,2.125-0.475,3.201-0.495c2.9-0.055,5.828-0.281,8.692,0.173c2.556,0.405,4.593,1.62,4.554,4.875
		c-0.041,3.416-0.008,6.832-0.012,10.248c-0.001,1.279-0.48,1.868-1.519,1.897c-1.297,0.036-1.783-0.444-1.793-1.897
		c-0.023-3.235-0.015-6.469-0.017-9.704c-0.001-1.671-0.53-2.235-2.221-2.246c-2.902-0.018-5.805-0.018-8.707,0.003
		c-1.497,0.011-2.144,0.677-2.149,2.156c-0.011,3.356-0.005,6.711-0.013,10.067c-0.003,1.166-0.432,1.591-1.575,1.598
		c-1.207,0.008-1.652-0.405-1.663-1.62c-0.017-1.874-0.004-3.749-0.004-5.623C217.61,64.572,217.608,64.572,217.606,64.572z"/>
	<path fill="#01215F" d="M277.266,64.65c0,1.844,0.008,3.687-0.003,5.531c-0.007,1.152-0.48,1.637-1.555,1.64
		c-1.253,0.003-1.728-0.431-1.733-1.668c-0.013-3.325-0.001-6.649-0.008-9.974c-0.003-1.534-0.584-2.159-2.12-2.175
		c-2.962-0.03-5.924-0.032-8.885-0.007c-1.5,0.013-2.092,0.675-2.094,2.209c-0.002,3.325,0.011,6.649-0.005,9.974
		c-0.006,1.264-0.465,1.67-1.722,1.633c-1.117-0.033-1.527-0.449-1.532-1.67c-0.015-3.718-0.021-7.435-0.004-11.153
		c0.008-1.642,1.41-3.223,3.13-3.823c1.165-0.406,2.357-0.511,3.548-0.532c2.778-0.048,5.571-0.203,8.333,0.162
		c2.481,0.327,4.824,1.704,4.658,4.957c-0.083,1.628-0.015,3.264-0.015,4.896C277.262,64.65,277.264,64.65,277.266,64.65z"/>
	<path fill="#01215F" d="M240.796,64.49c0-1.845-0.022-3.69,0.011-5.534c0.012-0.7-0.24-0.966-0.942-0.982
		c-0.933-0.021-1.265-0.486-1.262-1.587c0.002-1.047,0.398-1.629,1.269-1.618c0.825,0.011,0.964-0.395,0.938-1.067
		c-0.026-0.664-0.025-1.331-0.007-1.996c0.031-1.106,0.601-1.644,1.711-1.648c1.153-0.004,1.664,0.467,1.711,1.617
		c0.025,0.604,0.002,1.209,0.004,1.814c0.004,1.167,0.088,1.255,1.218,1.258c1.089,0.003,2.178,0.015,3.266-0.008
		c0.631-0.014,1.169,0.175,1.45,0.737c0.324,0.648,0.289,1.357-0.016,2.01c-0.18,0.386-0.559,0.502-0.991,0.5
		c-1.24-0.007-2.479,0.013-3.719,0.024c-1.1,0.01-1.207,0.111-1.208,1.18c-0.003,3.357-0.002,6.714-0.005,10.07
		c0,0.332,0.009,0.667-0.021,0.997c-0.102,1.105-0.598,1.58-1.589,1.552c-1.169-0.034-1.786-0.583-1.801-1.696
		c-0.025-1.875-0.007-3.75-0.007-5.625C240.801,64.49,240.799,64.49,240.796,64.49z"/>
	<path fill="#01215F" d="M164.624,64.744c0-1.632,0.082-3.27-0.02-4.896c-0.143-2.292,1.453-3.908,3.256-4.613
		c1.583-0.619,3.255-0.583,4.908-0.598c0.799-0.007,1.377,0.821,1.363,1.744c-0.013,0.872-0.644,1.556-1.531,1.597
		c-0.784,0.036-1.573-0.019-2.356,0.03c-1.661,0.106-2.368,0.903-2.364,2.556c0.008,3.174,0.007,6.348,0.001,9.522
		c-0.003,1.467-1.051,2.17-2.443,1.648c-0.629-0.236-0.823-0.732-0.819-1.368C164.631,68.493,164.624,66.618,164.624,64.744z"/>
	<path fill="#01215F" d="M254.002,54.513c0.159,1.195,1.35,1.122,1.345,2.061c-0.026,4.445-0.004,8.891-0.007,13.336
		c-0.001,1.266-0.504,1.874-1.546,1.913c-1.243,0.046-1.783-0.505-1.783-1.836c0-4.324,0.004-8.649,0.007-12.973
		c0-0.363,0-0.726,0.01-1.089c0.009-0.341,0.061-0.687,0.367-0.888c0.589-0.387,0.583-0.654-0.005-1.103
		c-0.652-0.497-1.17-1.141-0.807-2.108c0.34-0.905,0.982-1.359,1.907-1.415c0.907-0.055,1.818,0.546,2.172,1.365
		c0.269,0.625-0.015,1.582-0.614,2.024C254.761,54.012,253.929,53.965,254.002,54.513z"/>
</g>
</svg>
